<svg width="1358" height="1137" viewBox="0 0 1358 1137" fill="none" xmlns="http://www.w3.org/2000/svg">
<rect width="1358" height="1137" fill="white"/>
<path d="M25 354V226.575V206.187L213 100V245.264L25 354Z" fill="#417DA9" fill-opacity="0.03"/>
<path d="M126 424.11V238.938V209.31L399.033 55V266.097L126 424.11Z" fill="#417DA9" fill-opacity="0.03"/>
<path d="M126 1117.11V931.938V902.31L399.033 748V959.097L126 1117.11Z" fill="#417DA9" fill-opacity="0.03"/>
<path d="M301 1119V970.505V946.746L520 823V992.284L301 1119Z" fill="#417DA9" fill-opacity="0.03"/>
<path d="M733 887.11V701.938V672.31L1006.03 518V729.097L733 887.11Z" fill="#417DA9" fill-opacity="0.03"/>
<path d="M914 662V455.813V422.823L1218 251V486.054L914 662Z" fill="#417DA9" fill-opacity="0.03"/>
<path d="M729 341.801V220.496V201.087L914.282 100V238.288L729 341.801Z" fill="#417DA9" fill-opacity="0.03"/>
</svg>
