<?xml version="1.0" encoding="UTF-8"?>
<svg width="157px" height="107px" viewBox="0 0 157 107" version="1.1" xmlns="http://www.w3.org/2000/svg" xmlns:xlink="http://www.w3.org/1999/xlink">
    <!-- Generator: Sketch 60.1 (88133) - https://sketch.com -->
    <title>icon5</title>
    <desc>Created with Sketch.</desc>
    <g id="icon5" stroke="none" stroke-width="1" fill="none" fill-rule="evenodd">
        <rect fill="#FFFFFF" opacity="0" x="0" y="0" width="157" height="107"></rect>
        <path d="M78.8170062,95.526 C75.9890062,95.526 73.1560062,94.905 71.0020062,93.661 L19.2450062,63.779 C17.0780062,62.528 15.9970062,60.876 16,59.226 L16.0270062,50.275 L16.0270062,50.232 L16.0280062,50.24 C16.0290062,48.61 17.0910062,46.98 19.2210062,45.741 L70.6320062,15.866 C72.7710062,14.622 75.5960062,14 78.4250062,14 C81.2540062,14 84.0860062,14.622 86.2400062,15.866 L137.996006,45.748 C140.281006,47.067 141.348006,48.83 141.219006,50.568 L141.241006,50.302 L141.215006,59.296 C141.213006,60.924 140.147006,62.547 138.020006,63.784 L86.6090062,93.661 C84.4710062,94.905 81.6460062,95.526 78.8170062,95.526 M139.444006,53.794 L139.324006,53.889 L139.444006,53.794 M139.993006,53.252 L139.831006,53.413 L139.993006,53.252 M140.443006,52.687 L140.278006,52.895 L140.443006,52.687 M140.792006,52.103 L140.646006,52.349 L140.792006,52.103 M141.042006,51.505 C141.011006,51.598 140.966006,51.688 140.928006,51.78 C140.966006,51.688 141.012006,51.598 141.042006,51.505" id="Fill-5" fill="#BBBBB6"></path>
        <path d="M141.241006,48.302 L141.215006,57.296 C141.213006,58.924 140.147006,60.547 138.020006,61.783 L138.050006,52.788 C140.173006,51.553 141.236006,49.929 141.241006,48.302" id="Fill-32" fill="#EEEEEB"></path>
        <path d="M19.2710062,52.784 L19.2450062,61.779 C17.0790062,60.528 15.9970062,58.876 16,57.226 L16.0270062,48.232 C16.0200062,49.881 17.1030062,51.532 19.2710062,52.784" id="Fill-33" fill="#E8E8E5"></path>
        <polyline id="Fill-34" fill="#EEEEEB" points="138.050006 52.788 138.020006 61.783 86.6090062 91.661 86.6370062 82.667 138.050006 52.788"></polyline>
        <polyline id="Fill-35" fill="#E8E8E5" points="71.0280062 82.667 71.0020062 91.661 19.2450062 61.779 19.2710062 52.784 71.0280062 82.667"></polyline>
        <path d="M137.996006,43.748 C142.304006,46.234 142.325006,50.303 138.050006,52.788 L86.6370062,82.667 C82.3550062,85.153 75.3350062,85.153 71.0280062,82.667 L19.2710062,52.784 C14.9650062,50.298 14.9410062,46.231 19.2210062,43.741 L70.6320062,13.866 C74.9100062,11.378 81.9330062,11.378 86.2400062,13.866 L137.996006,43.748" id="Fill-36" fill="#FFFFFE"></path>
        <path d="M86.6370062,82.667 L86.6090062,91.661 C82.3320062,94.148 75.3100062,94.148 71.0020062,91.661 L71.0280062,82.667 C75.3350062,85.153 82.3550062,85.153 86.6370062,82.667" id="Fill-37" fill="#EBEBE8"></path>
        <path d="M112.572006,33.875 C111.878006,34.279 98.6820062,41.948 97.7500062,42.49 C96.8620062,43.008 95.9630062,43.229 94.6560062,43.251 L94.4670062,43.253 C93.0830062,43.253 79.3050062,43.253 78.6590062,43.253 C78.6350062,43.253 78.5820062,34.901 78.576975,34.079 C78.5730062,33.258 78.9530062,32.717 79.8840062,32.176 C80.8160062,31.634 94.0150062,23.964 94.7070062,23.561 L112.572006,33.875" id="Fill-38" fill="#E1634C"></path>
        <path d="M112.572006,33.875 L112.551006,41.91 C111.856006,42.314 98.6600062,49.983 97.7260062,50.524 C97.3730062,50.731 97.0140062,50.891 96.6310062,51.009 L96.6540062,42.976 C97.0380062,42.857 97.3930062,42.697 97.7500062,42.49 C98.6820062,41.948 111.878006,34.279 112.572006,33.875" id="Fill-39" fill="#CB5945"></path>
        <path d="M96.6540062,42.976 L96.6310062,51.009 C96.4590062,51.063 96.2800062,51.107 96.0960062,51.144 L96.1190062,43.11 C96.3040062,43.073 96.4790062,43.029 96.6540062,42.976" id="Fill-40" fill="#CA5A45"></path>
        <path d="M96.1190062,43.11 L96.0960062,51.144 C95.9410062,51.174 95.7820062,51.2 95.6170062,51.222 L95.6390062,43.186 C95.8070062,43.167 95.9650062,43.141 96.1190062,43.11" id="Fill-41" fill="#C85945"></path>
        <path d="M95.6390062,43.186 L95.6170062,51.222 C95.4470062,51.241 95.2710062,51.258 95.0880062,51.269 L95.1080062,43.234 C95.2930062,43.224 95.4720062,43.207 95.6390062,43.186" id="Fill-42" fill="#C65845"></path>
        <path d="M95.1080062,43.234 L95.0880062,51.269 C94.9410062,51.278 94.7910062,51.282 94.6350062,51.286 L94.4430062,51.288 C93.0590062,51.288 79.2810062,51.288 78.6360062,51.288 L78.6590062,43.253 C79.3050062,43.253 93.0830062,43.253 94.4670062,43.253 L94.6560062,43.251 C94.8120062,43.248 94.9630062,43.242 95.1080062,43.234" id="Fill-43" fill="#C45744"></path>
        <polyline id="Fill-44" fill="#C25743" points="78.6590062 43.253 78.6360062 51.288 78.6350062 51.284 78.6580062 43.25 78.6590062 43.253"></polyline>
        <polyline id="Fill-45" fill="#C15643" points="78.6580062 43.25 78.6350062 51.284 78.6340062 51.278 78.6580062 43.242 78.6580062 43.249"></polyline>
        <polyline id="Fill-46" fill="#C05542" points="78.6580062 43.242 78.6340062 51.278 78.6330062 51.264 78.6560062 43.231 78.6580062 43.242"></polyline>
        <polyline id="Fill-47" fill="#BE5442" points="78.6560062 43.231 78.6330062 51.264 78.6330062 51.248 78.6560062 43.213 78.6560062 43.231"></polyline>
        <path d="M78.6560062,43.213 L78.6330062,51.248 C78.6090062,50.63 78.5600062,42.903 78.5540062,42.114 L78.5770062,34.079 C78.5810062,34.868 78.6310062,42.596 78.6560062,43.213" id="Fill-48" fill="#BC5442"></path>
        <path d="M78.6350062,43.253 L78.6120062,51.288 C77.8920062,51.288 64.1920062,51.283 62.7740062,51.283 L62.7980062,43.25 C64.2160062,43.25 77.9140062,43.253 78.6350062,43.253" id="Fill-49" fill="#CA9C31"></path>
        <polyline id="Fill-50" fill="#CA9C31" points="62.7980062 43.25 62.7740062 51.283 62.7250062 51.283 62.7470062 43.25 62.7980062 43.25"></polyline>
        <path d="M62.7470062,43.25 L62.7250062,51.283 C62.4960062,51.283 62.2800062,51.278 62.0740062,51.264 L62.0970062,43.231 C62.3030062,43.242 62.5180062,43.25 62.7470062,43.25" id="Fill-51" fill="#C99B32"></path>
        <path d="M62.0970062,43.231 L62.0740062,51.264 C61.9010062,51.254 61.7330062,51.239 61.5730062,51.22 L61.5960062,43.186 C61.7560062,43.205 61.9230062,43.221 62.0970062,43.231" id="Fill-52" fill="#C79A32"></path>
        <path d="M61.5960062,43.186 L61.5730062,51.22 C61.4170062,51.2 61.2660062,51.176 61.1210062,51.147 L61.1430062,43.114 C61.2890062,43.141 61.4390062,43.165 61.5960062,43.186" id="Fill-53" fill="#C49832"></path>
        <path d="M61.1430062,43.114 L61.1210062,51.147 C60.9520062,51.113 60.7890062,51.073 60.6310062,51.027 L60.6540062,42.993 C60.8130062,43.038 60.9750062,43.079 61.1430062,43.114" id="Fill-54" fill="#C39733"></path>
        <path d="M60.6540062,42.993 L60.6310062,51.027 C60.2270062,50.907 59.8510062,50.741 59.4780062,50.524 C58.5400062,49.983 45.2630062,42.317 44.5640062,41.913 L44.5870062,33.879 C45.2860062,34.283 58.5630062,41.948 59.5010062,42.49 C59.8750062,42.708 60.2480062,42.871 60.6540062,42.993" id="Fill-55" fill="#C19633"></path>
        <path d="M77.2490062,32.176 C78.1870062,32.717 78.5730062,33.258 78.5770062,34.079 C78.5820062,34.901 78.6330062,42.836 78.6350062,43.253 C77.9140062,43.253 64.2160062,43.25 62.7980062,43.25 C61.3740062,43.253 60.4380062,43.032 59.5010062,42.49 C58.5630062,41.948 45.2860062,34.283 44.5870062,33.879 L62.3360062,23.566 C63.0350062,23.968 76.3110062,31.634 77.2490062,32.176" id="Fill-56" fill="#EAB42A"></path>
        <path d="M78.6860062,52.423 L78.6650062,60.456 C78.6600062,59.636 78.6160062,51.704 78.6120062,51.288 L78.6350062,43.253 C78.6370062,43.67 78.6820062,51.601 78.6860062,52.423" id="Fill-57" fill="#3A9E81"></path>
        <polyline id="Fill-58" fill="#726963" points="78.6860062 52.423 78.6650062 60.456 78.6620062 60.53 78.6840062 52.495 78.6860062 52.423"></polyline>
        <path d="M78.6840062,52.495 L78.6620062,60.53 L78.6610062,60.569 C78.6540062,60.691 78.6390062,60.806 78.6160062,60.916 L78.6370062,52.883 C78.6620062,52.772 78.6770062,52.656 78.6820062,52.534 L78.6840062,52.495" id="Fill-59" fill="#736A64"></path>
        <path d="M78.6370062,52.883 L78.6160062,60.916 C78.5920062,61.019 78.5620062,61.115 78.5230062,61.209 L78.5450062,53.174 C78.5840062,53.082 78.6160062,52.985 78.6370062,52.883" id="Fill-60" fill="#746B65"></path>
        <path d="M78.5450062,53.174 L78.5230062,61.209 C78.4840062,61.301 78.4370062,61.39 78.3820062,61.476 L78.4050062,53.443 C78.4600062,53.357 78.5060062,53.266 78.5450062,53.174" id="Fill-61" fill="#756B66"></path>
        <path d="M78.4050062,53.443 L78.3820062,61.476 C78.3130062,61.583 78.2290062,61.684 78.1330062,61.785 L78.1550062,53.75 C78.2530062,53.651 78.3360062,53.548 78.4050062,53.443" id="Fill-62" fill="#766C67"></path>
        <path d="M78.1550062,53.75 L78.1330062,61.785 C77.9350062,61.986 77.6780062,62.175 77.3520062,62.365 C76.4210062,62.907 63.2290062,70.572 62.5350062,70.976 L62.5570062,62.942 C63.2520062,62.538 76.4420062,54.872 77.3730062,54.331 C77.7020062,54.14 77.9590062,53.95 78.1550062,53.75" id="Fill-63" fill="#776D68"></path>
        <path d="M112.678006,52.63 L94.9310062,62.945 C94.2310062,62.541 80.9460062,54.872 80.0030062,54.327 C79.1090062,53.812 78.7170062,53.295 78.6820062,52.534 L78.6860062,52.423 C78.6820062,51.601 78.6370062,43.67 78.6350062,43.253 C79.3050062,43.253 93.0830062,43.253 94.4670062,43.253 L94.6560062,43.251 C95.9680062,43.272 96.8570062,43.495 97.7520062,44.012 C98.6960062,44.557 111.978006,52.227 112.678006,52.63" id="Fill-64" fill="#50B796"></path>
        <polyline id="Fill-65" fill="#3EAF8E" points="112.678006 52.63 112.656006 60.665 94.9060062 70.98 94.9310062 62.945 112.678006 52.63"></polyline>
        <path d="M94.9310062,62.945 L94.9060062,70.98 C94.2080062,70.576 80.9260062,62.907 79.9790062,62.362 C79.0870062,61.845 78.6930062,61.329 78.6610062,60.569 L78.6820062,52.534 C78.7170062,53.295 79.1090062,53.812 80.0030062,54.327 C80.9460062,54.872 94.2310062,62.541 94.9310062,62.945" id="Fill-66" fill="#3A9E81"></path>
        <path d="M78.6350062,43.253 C78.6370062,43.67 78.6820062,51.601 78.6860062,52.423 L78.6820062,52.534 C78.6440062,53.293 78.2690062,53.81 77.3730062,54.331 C76.4420062,54.872 63.2520062,62.538 62.5570062,62.942 L44.6920062,52.627 C45.3860062,52.224 58.5770062,44.557 59.5090062,44.016 C60.4470062,43.471 61.3740062,43.253 62.7980062,43.25 C64.2160062,43.25 77.9140062,43.253 78.6350062,43.253" id="Fill-67" fill="#847872"></path>
        <polyline id="Fill-68" fill="#6E6560" points="62.5570062 62.942 62.5350062 70.976 44.6690062 60.66 44.6920062 52.627 62.5570062 62.942"></polyline>
    </g>
</svg>