<?xml version="1.0" encoding="UTF-8"?>
<svg width="157px" height="107px" viewBox="0 0 157 107" version="1.1" xmlns="http://www.w3.org/2000/svg" xmlns:xlink="http://www.w3.org/1999/xlink">
    <!-- Generator: Sketch 60.1 (88133) - https://sketch.com -->
    <title>icon2</title>
    <desc>Created with Sketch.</desc>
    <g id="icon2" stroke="none" stroke-width="1" fill="none" fill-rule="evenodd">
        <rect fill="#FFFFFF" opacity="0" x="0" y="0" width="157" height="107"></rect>
        <path d="M78.8160173,95.525 C75.9870173,95.525 73.1550173,94.903 71.0030173,93.661 L19.2420173,63.778 C17.0750173,62.527 15.9950173,60.875 16,59.226 L16.0240173,50.27 L16.0240173,50.23 L16.0250173,50.242 C16.0260173,48.61 17.0890173,46.98 19.2180173,45.742 L70.6300173,15.866 C72.7690173,14.622 75.5940173,14 78.4230173,14 C81.2520173,14 84.0850173,14.622 86.2380173,15.866 L137.996017,45.747 C140.361017,47.113 141.427017,48.956 141.203017,50.753 C141.221017,50.602 141.241017,50.452 141.241017,50.3 L141.214017,59.295 C141.209017,60.922 140.145017,62.547 138.020017,63.783 L86.6080173,93.661 C84.4690173,94.903 81.6440173,95.525 78.8160173,95.525 M138.797017,54.304 C138.563017,54.471 138.313017,54.633 138.046017,54.788 C138.313017,54.633 138.563017,54.471 138.797017,54.304 M139.448017,53.789 C139.263017,53.952 139.061017,54.109 138.848017,54.264 C139.061017,54.109 139.263017,53.952 139.448017,53.789 M139.997017,53.245 C139.845017,53.413 139.676017,53.579 139.497017,53.74 C139.676017,53.579 139.845017,53.413 139.997017,53.245 M140.446017,52.678 C140.332017,52.843 140.199017,53.005 140.060017,53.166 C140.199017,53.005 140.332017,52.843 140.446017,52.678 M140.796017,52.093 C140.711017,52.261 140.608017,52.426 140.500017,52.59 C140.608017,52.426 140.711017,52.261 140.796017,52.093 M141.044017,51.495 C140.988017,51.662 140.915017,51.829 140.837017,51.994 C140.916017,51.829 140.988017,51.662 141.044017,51.495 M141.191017,50.887 C141.165017,51.053 141.120017,51.217 141.072017,51.382 C141.120017,51.217 141.165017,51.053 141.191017,50.887" id="Fill-10" fill="#BBBBB6"></path>
        <path d="M141.241017,48.3 L141.214017,57.295 C141.209017,58.922 140.145017,60.547 138.020017,61.783 L138.046017,52.788 C140.172017,51.553 141.236017,49.927 141.241017,48.3" id="Fill-247" fill="#EEEEEB"></path>
        <path d="M19.2670173,52.783 L19.2420173,61.778 C17.0750173,60.527 15.9950173,58.875 16,57.226 L16.0240173,48.23 C16.0180173,49.88 17.1020173,51.532 19.2670173,52.783" id="Fill-248" fill="#E8E8E5"></path>
        <polyline id="Fill-249" fill="#EEEEEB" points="138.046017 52.788 138.020017 61.783 86.6080173 91.661 86.6360173 82.665 138.046017 52.788"></polyline>
        <polyline id="Fill-250" fill="#E8E8E5" points="71.0270173 82.665 71.0030173 91.661 19.2420173 61.778 19.2670173 52.783 71.0270173 82.665"></polyline>
        <path d="M137.996017,43.747 C142.301017,46.234 142.325017,50.3 138.046017,52.788 L86.6360173,82.665 C82.3540173,85.153 75.3340173,85.153 71.0270173,82.665 L19.2670173,52.783 C14.9610173,50.298 14.9400173,46.229 19.2180173,43.742 L70.6300173,13.866 C74.9080173,11.378 81.9310173,11.378 86.2380173,13.866 L137.996017,43.747" id="Fill-251" fill="#FFFFFE"></path>
        <path d="M86.6360173,82.665 L86.6080173,91.661 C82.3310173,94.146 75.3070173,94.146 71.0030173,91.661 L71.0270173,82.665 C75.3340173,85.153 82.3540173,85.153 86.6360173,82.665" id="Fill-252" fill="#EBEBE8"></path>
        <polyline id="Fill-253" fill="#3A9E81" points="62.7270173 36.124 62.7060173 44.073 52.2890173 37.915 52.3120173 29.966 62.7270173 36.124"></polyline>
        <path d="M97.2510173,29.823 C99.6660173,31.217 101.599017,32.778 103.080017,34.441 L89.1650173,37.636 C88.4990173,37.023 87.7140173,36.44 86.7860173,35.905 C80.2230173,32.116 69.6110173,32.116 63.0870173,35.908 C62.9690173,35.977 62.8450173,36.048 62.7270173,36.124 L52.3120173,29.966 L52.5530173,29.827 C64.8610173,22.673 84.8680173,22.673 97.2510173,29.823" id="Fill-254" fill="#50B796"></path>
        <polyline id="Fill-255" fill="#3CAD8C" points="103.080017 34.441 103.056017 42.39 89.1420173 45.586 89.1650173 37.636 103.080017 34.441"></polyline>
        <path d="M89.1650173,37.636 L89.1420173,45.586 C88.4750173,44.971 87.6910173,44.389 86.7630173,43.854 C80.2000173,40.065 69.5900173,40.065 63.0640173,43.857 C62.9460173,43.925 62.8230173,43.997 62.7060173,44.073 L62.7270173,36.124 C62.8450173,36.048 62.9690173,35.977 63.0870173,35.908 C69.6110173,32.116 80.2230173,32.116 86.7860173,35.905 C87.7140173,36.44 88.4990173,37.023 89.1650173,37.636" id="Fill-256" fill="#5AB99B"></path>
        <path d="M99.4700313,44.067 L99.4460173,52.015 C99.4530173,50.215 98.5990173,48.413 96.8880173,46.832 L96.9100173,38.884 C98.6210173,40.464 99.4740173,42.267 99.4700313,44.067" id="Fill-257" fill="#8A7E78"></path>
        <path d="M114.325017,44.111 L114.304017,52.058 C114.289017,56.712 111.236017,61.359 105.125017,64.91 C104.853017,65.069 104.575017,65.214 104.303017,65.366 L104.325017,57.417 C104.596017,57.266 104.875017,57.12 105.148017,56.961 C111.259017,53.41 114.312017,48.763 114.325017,44.111" id="Fill-258" fill="#8A7E78"></path>
        <path d="M110.831017,35.685 C116.926017,42.566 115.057017,51.203 105.148017,56.961 C104.875017,57.12 104.596017,57.266 104.325017,57.417 L93.7730173,51.325 C94.0580173,51.181 94.3360173,51.034 94.6080173,50.876 C100.206017,47.622 100.966017,42.63 96.9100173,38.884 L110.831017,35.685" id="Fill-259" fill="#847872"></path>
        <polyline id="Fill-260" fill="#6E6560" points="104.325017 57.417 104.303017 65.366 93.7500173 59.274 93.7730173 51.325 104.325017 57.417"></polyline>
        <path d="M61.8810173,36.645 L61.8580173,44.593 C59.1330173,46.403 57.7680173,48.661 57.7620173,50.923 L57.7840173,42.975 C57.7910173,40.712 59.1550173,38.454 61.8810173,36.645" id="Fill-261" fill="#E36851"></path>
        <path d="M61.8810173,36.645 C57.0030173,39.884 56.4830173,44.565 60.3130173,48.122 L47.7290173,52.672 C40.3110173,45.789 41.5020173,36.689 51.3330173,30.556 L61.8810173,36.645" id="Fill-262" fill="#E1634C"></path>
        <polyline id="Fill-263" fill="#D05C47" points="60.3130173 48.122 60.2910173 56.071 47.7060173 60.622 47.7290173 52.672 60.3130173 48.122"></polyline>
        <path d="M47.7290173,52.672 L47.7060173,60.622 C44.5040173,57.649 42.9060173,54.264 42.9149795,50.882 L42.9380173,42.933 C42.9290173,46.315 44.5270173,49.701 47.7290173,52.672" id="Fill-264" fill="#E36851"></path>
        <path d="M97.1250173,56.994 C84.7680173,63.683 65.3640173,63.536 53.2480173,56.54 C51.4870173,55.523 49.9850173,54.412 48.7200173,53.244 L61.3020173,48.694 C61.9700173,49.323 62.7740173,49.915 63.7160173,50.458 C70.0090173,54.092 80.0190173,54.24 86.5850173,50.908 L97.1250173,56.994" id="Fill-265" fill="#EAB42A"></path>
        <path d="M97.1250173,56.994 L97.1010173,64.942 C84.7470173,71.63 65.3420173,71.484 53.2270173,64.489 C51.4660173,63.472 49.9620173,62.362 48.6960173,61.193 L48.7200173,53.244 C49.9850173,54.412 51.4870173,55.523 53.2480173,56.54 C65.3640173,63.536 84.7680173,63.683 97.1250173,56.994" id="Fill-266" fill="#F4BB2A"></path>
    </g>
</svg>