<?xml version="1.0" encoding="UTF-8" standalone="no"?>
<!-- Generator: Adobe Illustrator 16.0.0, SVG Export Plug-In . SVG Version: 6.00 Build 0)  -->

<svg
   xmlns:dc="http://purl.org/dc/elements/1.1/"
   xmlns:cc="http://creativecommons.org/ns#"
   xmlns:rdf="http://www.w3.org/1999/02/22-rdf-syntax-ns#"
   xmlns:svg="http://www.w3.org/2000/svg"
   xmlns="http://www.w3.org/2000/svg"
   xmlns:sodipodi="http://sodipodi.sourceforge.net/DTD/sodipodi-0.dtd"
   xmlns:inkscape="http://www.inkscape.org/namespaces/inkscape"
   version="1.1"
   x="0px"
   y="0px"
   width="415.05838"
   height="345.8396"
   viewBox="0 0 415.05837 345.83961"
   enable-background="new 0 0 415.058 345.848"
   xml:space="preserve"
   id="svg5099"
   sodipodi:docname="people.svg"
   inkscape:version="0.92.1 r15371"><metadata
     id="metadata5105"><rdf:RDF><cc:Work
         rdf:about=""><dc:format>image/svg+xml</dc:format><dc:type
           rdf:resource="http://purl.org/dc/dcmitype/StillImage" /><dc:title></dc:title></cc:Work></rdf:RDF></metadata><defs
     id="defs5103" /><sodipodi:namedview
     pagecolor="#ffffff"
     bordercolor="#666666"
     borderopacity="1"
     objecttolerance="10"
     gridtolerance="10"
     guidetolerance="10"
     inkscape:pageopacity="0"
     inkscape:pageshadow="2"
     inkscape:window-width="1443"
     inkscape:window-height="1018"
     id="namedview5101"
     showgrid="false"
     fit-margin-top="0"
     fit-margin-left="0"
     fit-margin-right="0"
     fit-margin-bottom="0"
     inkscape:pagecheckerboard="true"
     inkscape:zoom="1.2433208"
     inkscape:cx="165.80185"
     inkscape:cy="171.31302"
     inkscape:window-x="191"
     inkscape:window-y="0"
     inkscape:window-maximized="0"
     inkscape:current-layer="svg5099" /><g
     id="OBJECTS"
     transform="translate(2.3410911e-4,-0.00739573)"><g
       id="g4495"><linearGradient
         id="SVGID_1_"
         gradientUnits="userSpaceOnUse"
         x1="0"
         y1="168.1523"
         x2="415.05759"
         y2="168.1523"><stop
           offset="0"
           style="stop-color:#022477"
           id="stop4488" /><stop
           offset="1"
           style="stop-color:#416EAA"
           id="stop4490" /></linearGradient><path
         d="M 18.591,64.255 C 6.841,70.154 3.521,82.231 4.169,95.362 c 0.648,13.131 7.649,25.804 18.422,33.341 8.517,5.958 19.026,8.755 27.099,15.302 8.073,6.547 12.725,19.641 5.535,27.147 -6.781,7.081 -18.401,4.274 -28.088,5.792 -14.018,2.197 -25.057,15.141 -26.844,29.217 -1.789,14.075 4.767,28.471 15.322,37.951 10.555,9.48 24.662,14.388 38.793,15.662 14.523,1.311 30.525,-0.599 42.379,7.895 15.54,11.135 16.974,35.491 32.797,46.221 10.789,7.315 25.474,6.009 37.478,0.928 12.004,-5.081 22.293,-13.42 33.503,-20.071 11.211,-6.651 24.294,-11.737 37.093,-9.268 14.587,2.815 25.456,14.597 37.884,22.736 12.429,8.14 31.218,11.782 40.576,0.243 10.834,-13.358 1.338,-38.087 15.723,-47.517 6.811,-4.464 15.948,-2.79 23.41,0.47 7.462,3.26 14.446,7.97 22.467,9.378 13.891,2.438 28.437,-6.465 34.188,-19.341 5.752,-12.877 3.296,-28.578 -4.64,-40.236 -7.937,-11.657 -20.756,-19.451 -34.377,-23.103 -9.1,-2.438 -18.685,-3.193 -27.396,-6.776 -8.713,-3.584 -16.784,-11.047 -17.258,-20.456 -0.74,-14.684 15.67,-23.417 24.185,-35.404 7.406,-10.427 8.729,-24.871 3.341,-36.47 -5.389,-11.599 -17.28,-19.903 -30.025,-20.967 -14.969,-1.25 -28.937,6.651 -43.149,11.507 -14.214,4.855 -32.448,5.628 -41.719,-6.189 -5.386,-6.865 -6.185,-16.139 -9.108,-24.359 -6.132,-17.235 -22.966,-30.13 -41.203,-31.562 -18.237,-1.431 -36.877,8.681 -45.622,24.749 -7.874,14.47 -7.937,32.324 -16.441,46.433 -8.774,14.555 -26.566,23.111 -43.413,20.879 C 68.233,107.261 57.28,92.641 48.603,78.028 44.258,70.712 31.888,57.58 18.591,64.255 Z"
         id="path4493"
         inkscape:connector-curvature="0"
         style="fill:url(#SVGID_1_)" /></g><g
       id="g4607"><g
         id="g4511"><g
           id="g4507"><path
             d="m 301.547,117.344 c 0,0 -1.096,-4.362 -1.681,-5.738 -1.538,-2.063 -1.954,-3.421 -1.954,-3.421 -0.046,-0.289 -11.954,-28.455 -11.954,-28.455 l -8.616,-32.227 c -0.501,-2.551 -1.506,-5.864 -4.057,-5.363 -2.551,0.501 -4.084,1.087 -3.583,3.638 l 7.118,36.278 0.03,0.154 c 0.07,0.363 0.202,0.716 0.368,1.026 l 16.494,30.397 c 0.279,1.471 0.509,3.136 1.911,8.846 1.403,5.71 4.456,3.28 4.71,2.445 0.643,-3.39 1.214,-7.58 1.214,-7.58 z"
             id="path4497"
             inkscape:connector-curvature="0"
             style="fill:#ffcbae" /><path
             d="M 297.912,108.185 C 297.866,107.896 285.958,79.73 285.958,79.73 l -8.616,-32.227 c -0.501,-2.551 -1.506,-5.864 -4.057,-5.363 -2.551,0.501 -4.084,1.086 -3.583,3.638 l 7.118,36.278 0.03,0.154 c 0.07,0.363 0.202,0.716 0.368,1.026 l 15.752,29.029 c 3.275,0.025 5.107,-1.206 5.96,-2.034 -0.779,-1.27 -1.018,-2.046 -1.018,-2.046 z"
             id="path4499"
             inkscape:connector-curvature="0"
             style="fill:#eab094" /><g
             id="g4503"><path
               d="m 291.941,110.723 c 5.357,0.274 7.139,-2.75 7.139,-2.75 L 286.853,79.126 c 0,0 -4.062,-24.935 -8.173,-33.695 -3.307,-7.047 -9.568,-6.886 -9.568,-6.886 -3.568,0.8 -2.906,4.616 -2.106,8.184 l 9.264,36.554 z"
               id="path4501"
               inkscape:connector-curvature="0"
               style="fill:#2a3e49" /></g><path
             d="m 286.854,79.125 c 0,0 -4.062,-24.935 -8.173,-33.695 -1.828,-3.896 -4.558,-5.584 -6.634,-6.319 1.154,1.111 2.287,2.625 3.217,4.73 4.236,9.586 8.825,36.684 8.825,36.684 l 11.917,29.667 c 2.239,-0.807 3.074,-2.22 3.074,-2.22 z"
             id="path4505"
             inkscape:connector-curvature="0"
             style="fill:#23363f" /></g><path
           d="m 301.143,117.514 c -0.396,1.089 -2.634,0.7 -3.173,-2.824 -0.335,2.747 2.19,5.906 3.173,2.824 z"
           id="path4509"
           inkscape:connector-curvature="0"
           style="fill:#e5ac8f" /></g><path
         d="m 235.158,199.631 4.273,-5.246 -6.637,-5.407 -5.234,6.427 0.505,7.545 6.717,3.087 c 0,0 0.269,-1.289 0.3,-1.731 0.183,-2.611 0.076,-4.675 0.076,-4.675 z"
         id="path4513"
         inkscape:connector-curvature="0"
         style="fill:#0e5970" /><g
         id="g4519"><path
           d="m 226.226,195.15 c -0.501,0.615 -1.08,1.325 -2.047,2.512 -0.928,1.14 0.092,4.952 1.606,7.133 0.094,0.135 0.293,0.132 0.391,0.002 l 0.462,-0.612 c 0.448,0.748 1.12,2.372 1.41,3.461 0.042,0.156 -0.3,0.784 -0.26,0.944 0.556,2.251 1.295,4.378 1.826,6.227 0.78,2.709 5.335,4.156 6.557,4.499 0.184,0.051 0.377,-0.012 0.497,-0.159 l 0.354,-0.435 -3.728,-2.88 -3.3,-8.671 -3.81,-10.287 0.513,-0.785 -0.471,-0.949"
           id="path4515"
           inkscape:connector-curvature="0"
           style="fill:#353d44" /><path
           d="m 228.406,193.966 c -0.555,0.519 0.586,6.716 2.535,8.409 1.948,1.692 3.857,1.386 4.257,-0.768 0.249,0.399 -0.57,6.399 2.205,16.366 0.074,0.266 0.018,0.554 -0.156,0.768 v 0 c -0.106,0.131 -0.28,0.183 -0.441,0.13 -1.105,-0.36 -5.303,-1.894 -6.085,-4.61 -0.902,-3.135 -2.063,-8.425 -3.66,-10.53 -1.599,-2.105 -2.766,-6.21 -1.799,-7.397 0.964,-1.183 0.917,-1.126 1.419,-1.741 0.501,-0.616 1.304,-0.798 1.725,-0.627 z"
           id="path4517"
           inkscape:connector-curvature="0"
           style="fill:#273035" /></g><g
         id="g4525"><path
           d="m 260.445,240.503 c 0.141,0.781 0.302,1.683 0.572,3.189 0.26,1.446 3.815,3.157 6.457,3.43 0.162,0.018 0.29,-0.136 0.256,-0.295 l -0.164,-0.749 c 0.859,0.147 2.529,0.697 3.545,1.186 0.146,0.07 0.398,0.738 0.546,0.813 2.07,1.045 4.165,1.872 5.913,2.673 2.563,1.174 6.629,-1.338 7.686,-2.041 0.158,-0.105 0.236,-0.293 0.203,-0.48 l -0.1,-0.552 -4.613,0.951 -8.727,-3.147 -10.285,-3.815 -0.262,-0.9 -1.027,-0.263"
           id="path4521"
           inkscape:connector-curvature="0"
           style="fill:#353d44" /><path
           d="m 260.969,238.077 c 0.032,0.759 3.016,1.832 5.569,1.457 2.555,-0.375 6.025,0.078 4.652,-1.629 0.465,0.072 4.482,4.604 13.851,8.994 0.25,0.116 0.432,0.347 0.48,0.618 v 0 c 0.029,0.166 -0.044,0.332 -0.188,0.42 -0.994,0.604 -4.893,2.787 -7.463,1.61 -2.966,-1.358 -7.734,-3.926 -10.372,-4.086 -2.639,-0.16 -6.513,-1.95 -6.783,-3.457 -0.27,-1.502 -0.256,-1.43 -0.396,-2.211 -0.14,-0.78 0.246,-1.508 0.65,-1.716 z"
           id="path4523"
           inkscape:connector-curvature="0"
           style="fill:#273035" /></g><path
         d="m 228.641,198.174 c 1.857,3.972 6.908,5.999 6.544,2.393 0,0 -0.01,2.649 -0.088,6.493 0,0 -1.89,0.078 -4.575,-1.023 -0.001,-0.001 -3.072,-6.524 -1.881,-7.863 z"
         id="path4527"
         inkscape:connector-curvature="0"
         style="fill:#273035" /><path
         d="m 228.406,193.966 c 0,0 0.702,0.264 0.703,0.652 0.001,0.388 -1.784,0.74 -1.784,0.74 0,0 0.362,-0.779 0.379,-0.801 0.018,-0.021 0.702,-0.591 0.702,-0.591 z"
         id="path4529"
         inkscape:connector-curvature="0"
         style="fill:#353d44" /><g
         id="g4533"><path
           d="m 263.671,112.817 c -12.353,4.084 -10.558,28.421 -11.222,48.619 -0.362,0.75 -1.083,2.113 -1.022,1.908 -1.628,5.4 -5.062,6.412 -10.683,13.738 -7.343,9.572 -13.759,16.916 -13.759,16.916 0.702,2.128 4.03,9.424 8.795,7.05 0,0 27.024,-20.97 29.585,-32.31 11.265,-31.571 9.883,-51.39 11.229,-58.971 0.021,-5.691 -2.257,-0.477 -12.923,3.05 z"
           id="path4531"
           inkscape:connector-curvature="0"
           style="fill:#217fa5" /></g><path
         d="m 272.415,108.823 c 0,0.042 0.002,0.079 10e-4,0.123 -1.346,7.582 0.036,27.399 -11.229,58.971 -2.562,11.341 -29.585,32.31 -29.585,32.31 -0.166,0.083 -0.33,0.151 -0.492,0.211 1.315,1.035 2.893,1.496 4.67,0.61 0,0 27.024,-20.97 29.585,-32.311 11.265,-31.57 9.883,-51.389 11.229,-58.97 0.013,-3.57 -0.879,-2.848 -4.179,-0.944 z"
         id="path4535"
         inkscape:connector-curvature="0"
         style="fill:#137391" /><g
         id="g4539"><path
           d="m 239.822,119.27 c -8.636,9.73 10.255,45.766 18.317,63.92 -0.13,0.682 -1.004,3.686 -1.004,3.686 0.396,4.924 -0.314,10.438 0.536,17.479 1.438,11.909 3.148,34.198 3.148,34.198 1.177,3.092 12.396,2.795 11.389,-1.65 l -1.079,-58.188 c 0,0 -2.759,-31.251 -11.824,-61.626 10e-4,-0.001 -12.026,-6.222 -19.483,2.181 z"
           id="path4537"
           inkscape:connector-curvature="0"
           style="fill:#217fa5" /></g><path
         d="m 272.209,236.903 -1.079,-58.188 c 0,0 -2.759,-31.251 -11.824,-61.626 0,0 -5.706,-2.95 -11.693,-2.042 4.05,0.491 7.203,2.204 7.203,2.204 9.12,31.241 12.041,63.339 12.041,63.339 l 1.446,59.74 c 0.007,0.034 0.008,0.064 0.014,0.098 2.402,-0.411 4.337,-1.564 3.892,-3.525 z"
         id="path4541"
         inkscape:connector-curvature="0"
         style="fill:#137391" /><path
         d="m 275.77,107.245 c -1.372,-0.098 -4.738,3.138 -12.099,5.572 -2.154,0.712 -3.87,2.052 -5.252,3.867 -2.908,-1.233 -12.353,-4.45 -18.597,2.586 -2.148,2.421 -2.588,6.474 -1.92,11.471 3.81,2.218 10.781,1.933 17.04,1.304 6.333,-0.637 15.79,-3.054 20.261,-6.32 0.632,-6.357 0.789,-11.169 1.172,-14.42 -0.196,-1.312 -0.399,-2.668 -0.605,-4.06 z"
         id="path4543"
         inkscape:connector-curvature="0"
         style="opacity:0.35;fill:#137391" /><g
         id="g4547"><path
           d="m 279.462,117.49 c 0,-6.535 -3.436,-21.366 -3.723,-33.231 -0.315,-13.051 3.723,-23 -0.072,-32.983 -1.813,-4.768 -4.317,-16.094 -11.243,-13.349 -5.434,2.32 -8.721,2.15 -11.186,3.614 -7.019,7.779 -13.451,5.52 -17.511,12.844 -5.106,8.549 2.5,26.899 9.465,44.011 0.043,3.154 -4.859,8.968 -8.333,21.739 -0.436,7.842 10.537,7.663 19.901,6.721 8.178,-0.822 21.572,-4.612 22.702,-9.366 z"
           id="path4545"
           inkscape:connector-curvature="0"
           style="fill:#cae3e8" /></g><ellipse
         transform="matrix(0.9754,-0.2206,0.2206,0.9754,-4.566,57.9373)"
         cx="257.104"
         cy="49.410999"
         rx="9.8999996"
         ry="6.2449999"
         id="ellipse4549"
         style="fill:#dda07f" /><path
         d="m 269.768,90.076 c 0,0 3.746,31.794 2.829,40.364 0,0 9.826,-2.34 11.423,-6.26 0,0 -6.468,-37.475 -5.759,-41.686 0.709,-4.211 0.437,-18.048 0.428,-25.524 -0.01,-7.476 -4.996,-19.718 -14.265,-19.042 -9.27,0.675 3.351,9.321 3.351,9.321 l 0.833,5.373 2.105,22.871 z"
         id="path4551"
         inkscape:connector-curvature="0"
         style="fill:#354956" /><path
         d="m 269.768,90.076 c 0,0 0.997,-38.298 -5.396,-44.644 l -3.553,-4.472 c 0,0 5.966,0.862 10.742,6.076 l -0.412,2.898 1.646,1.459 c 0,0.002 -2.283,37.669 -3.027,38.683 z"
         id="path4553"
         inkscape:connector-curvature="0"
         style="fill:#646f77" /><path
         d="m 261.042,94.103 c 0.264,3.182 2.942,30.398 -1.209,39.329 -5.241,0.218 -25.689,-0.853 -27.688,-5.197 0,0 10.534,-21.193 9.891,-28.097 -0.422,-4.542 -2.758,-12.392 -4.307,-17.232 -0.93,-2.905 -1.382,-5.937 -1.352,-8.987 l 0.236,-24.044 c 0,0 9.205,-6.696 14.635,-7.894 l 0.148,1.833 -0.343,-0.081 -0.665,0.247 -1.452,1.752 -0.979,6.386 2.84,7.324 2.033,7.587 5.134,12.423 z"
         id="path4555"
         inkscape:connector-curvature="0"
         style="fill:#354956" /><g
         id="g4559"><path
           d="m 240.42,92.079 5.431,-28.774 c 1.366,-7.557 -0.093,-11.12 -1.811,-12.994 -1.688,-1.841 -5.623,-2.202 -7.433,0.189 l -0.23,23.418 c -0.03,3.051 0.421,6.082 1.352,8.987 0.81,2.535 1.835,5.895 2.691,9.174 z"
           id="path4557"
           inkscape:connector-curvature="0"
           style="fill:#2a3e49" /></g><path
         d="m 241.17,48.892 c -1.66,-0.257 -3.486,0.186 -4.563,1.608 l -0.23,23.418 c -0.03,3.051 0.421,6.082 1.352,8.987 0.308,0.963 0.647,2.046 0.996,3.198 l 5.996,-22.501 c 1.921,-7.435 0.729,-11.096 -0.846,-13.092 -0.617,-0.782 -1.61,-1.352 -2.705,-1.618 z"
         id="path4561"
         inkscape:connector-curvature="0"
         style="fill:#182930" /><path
         d="m 251.596,43.108 c -6.295,5.172 9.798,25.45 9.446,50.994 0,0 -5.409,-15.847 -11.452,-29.745 l 0.168,-3.64 -3.094,-1.443 c 0.098,-1.378 -1.342,-14.362 4.932,-16.166 z"
         id="path4563"
         inkscape:connector-curvature="0"
         style="fill:#646f77" /><g
         id="g4579"><g
           id="g4567"><path
             d="m 234.08,57.726 c -0.977,2.813 -1.89,5.646 -2.836,8.469 l -2.735,8.501 c -0.925,2.83 -1.779,5.682 -2.668,8.522 l -2.644,8.531 -0.042,0.135 c -0.084,0.271 -0.137,0.563 -0.159,0.834 l -0.824,10.816 c -0.267,3.606 -0.569,7.209 -0.799,10.819 l -0.729,10.826 c -0.206,3.612 -0.447,7.221 -0.622,10.836 -0.091,1.873 1.354,3.464 3.226,3.556 1.753,0.085 2.473,-2.026 2.734,-3.722 0.538,-3.579 1.8,-6.329 2.308,-9.912 l -0.396,-10.345 c 0.485,-3.584 0.885,-7.74 1.332,-11.329 l 0.367,-11.943 -0.201,0.969 3.148,-8.626 c 0.925,-2.83 2.92,-4.833 3.809,-7.673 l 4.092,-7.853 c 0.867,-2.848 1.768,-5.686 2.605,-8.543 0.731,-2.495 -0.698,-5.111 -3.193,-5.843 -2.417,-0.709 -4.952,0.623 -5.773,2.975 z"
             id="path4565"
             inkscape:connector-curvature="0"
             style="fill:#ffcbae" /></g><path
           d="m 220.039,136.454 c 0,0 -1.261,5.219 -0.535,7.274 0.726,2.055 3.684,5.061 5.599,5.334 1.915,0.273 2.704,-0.244 2.704,-0.244 -0.452,-1.885 -2.85,-4.253 -2.354,-7.322 0.11,-1.902 0.707,-0.794 0.633,-0.393 -0.075,0.402 0.212,2.283 0.678,2.757 0.466,0.474 0.743,0.36 0.937,-1.46 0.192,-1.819 0.343,-2.29 0.212,-3.671 -0.131,-1.381 -1.46,-1.614 -1.579,-3.015 -0.119,-1.4 0.233,-2.553 0.233,-2.553 l -6.355,-0.664 c -0.002,10e-4 0.423,1.816 -0.173,3.957 z"
           id="path4569"
           inkscape:connector-curvature="0"
           style="fill:#ffcbae" /><path
           d="m 226.332,135.714 c -0.119,-1.4 0.233,-2.553 0.233,-2.553 l -6.355,-0.664 c 0,0 0.279,1.238 0.049,2.867 0.463,0.393 1.109,0.956 2.154,1.269 1.226,0.366 3.095,0.333 4.178,-0.093 -0.132,-0.231 -0.231,-0.494 -0.259,-0.826 z"
           id="path4571"
           inkscape:connector-curvature="0"
           style="fill:#eab094" /><g
           id="g4575"><path
             d="m 219.541,133.53 c 0.513,-0.258 1.133,1.11 2.99,1.665 1.705,0.51 4.662,0.251 5.006,-0.772 1.191,-3.657 4.468,-40.129 4.468,-40.129 l 11.32,-30.714 c 2.602,-7.225 1.754,-10.981 0.37,-13.114 -1.513,-2.332 -6.08,-3.331 -8.036,-0.241 -4.267,6.739 -12.906,40.206 -12.906,40.206 0,0 -3.573,41.938 -3.212,43.099 z"
             id="path4573"
             inkscape:connector-curvature="0"
             style="fill:#2a3e49" /></g><path
           d="m 243.827,50.685 c 0.229,2.373 -0.163,5.586 -1.757,10.013 l -12.187,33.078 c 0,0 -3.019,33.255 -4.499,41.625 1.064,-0.115 1.971,-0.439 2.152,-0.978 1.191,-3.657 4.468,-40.129 4.468,-40.129 L 243.325,63.58 c 2.517,-6.99 1.804,-10.727 0.502,-12.895 z"
           id="path4577"
           inkscape:connector-curvature="0"
           style="fill:#23363f" /></g><g
         id="g4591"><path
           d="m 251.554,36.252 c 0,0 0.188,5.225 -1.193,10.752 2.35,3.731 12.428,6.065 13.947,1.782 0,0 -0.413,-3.818 1.176,-6.539 1.589,-2.721 -13.93,-5.995 -13.93,-5.995 z"
           id="path4581"
           inkscape:connector-curvature="0"
           style="fill:#dda07f" /><path
           d="m 251.554,36.252 c 0,0 0.036,1.001 -0.039,2.59 3.225,6.23 8.362,8.189 12.746,8.767 0.002,-1.344 0.185,-3.583 1.223,-5.361 1.588,-2.721 -13.93,-5.996 -13.93,-5.996 z"
           id="path4583"
           inkscape:connector-curvature="0"
           style="fill:#cc8a6d" /><path
           d="m 268.211,16.197 c 0,0 3.119,5.45 3.119,11.359 -0.23,0.788 1.115,2.298 0.787,5.581 -0.238,2.384 -0.719,7.227 -0.965,9.7 -0.09,0.916 -0.768,1.66 -1.674,1.82 -4.787,0.845 -12.446,1.333 -18.044,-6.267 0,0 -2.692,-3.152 -3.939,-3.546 -1.248,-0.394 -6.144,-6.641 -6.144,-11.696 0,-5.357 2.958,-13.483 13.957,-13.483 8.959,0.001 12.903,6.532 12.903,6.532 z"
           id="path4585"
           inkscape:connector-curvature="0"
           style="fill:#eab18b" /><g
           id="g4589"><path
             d="m 271.33,27.557 c 0,-5.91 -3.119,-11.359 -3.119,-11.359 0,0 -0.611,-0.999 -1.877,-2.213 0.269,0.355 0.403,0.577 0.403,0.577 0,0 3.118,5.45 3.118,11.359 -0.229,0.788 1.117,2.298 0.788,5.581 -0.238,2.384 -0.719,7.228 -0.964,9.7 -0.092,0.916 -0.769,1.66 -1.675,1.82 -4.234,0.747 -10.715,1.205 -16.029,-3.959 5.542,6.875 12.867,6.414 17.503,5.595 0.906,-0.16 1.584,-0.904 1.674,-1.82 0.246,-2.473 0.727,-7.316 0.965,-9.7 0.329,-3.284 -1.017,-4.793 -0.787,-5.581 z"
             id="path4587"
             inkscape:connector-curvature="0"
             style="fill:#e0a380" /></g></g><path
         d="m 253.085,20.197 c 2.999,2.178 -1.218,11.034 -0.637,13.298 -0.871,0.377 -1.432,-2.548 -2.857,-2.465 -1.427,0.083 -0.232,1.898 -0.232,1.898 l 2.278,4.726 -0.28,3.118 c -0.462,-5.365 -11.103,-5.766 -10.376,-19.1 0.217,-3.268 2.193,-8.488 3.174,-7.575 0.981,0.913 8.105,2.982 8.93,6.1 z"
         id="path4593"
         inkscape:connector-curvature="0"
         style="fill:#6d5e57" /><path
         d="m 248.672,34.599 c -1.177,-1.07 -5.58,-6.859 -7.619,-9.568 1.071,10.089 9.884,10.869 10.304,15.741 l 0.28,-3.118 -1.941,-4.027 z"
         id="path4595"
         inkscape:connector-curvature="0"
         style="fill:#51443f" /><g
         id="g4601"><path
           d="m 249.591,31.03 c -2.105,-2.192 -4.773,-0.314 -3.049,2.295 0.37,0.561 1.188,0.888 1.479,1.406 0.163,0.291 0.319,0.536 0.474,0.762 0.485,0.404 0.991,0.896 1.444,1.362 0.556,0.198 1.026,-0.041 1.418,-0.481 z"
           id="path4597"
           inkscape:connector-curvature="0"
           style="opacity:0.4;fill:#d39779" /><path
           d="m 251.217,31.147 c -1.326,-2.734 -4.444,-1.771 -3.608,1.243 0.18,0.648 0.856,1.211 0.974,1.794 0.584,2.92 1.652,3.187 2.666,2.59"
           id="path4599"
           inkscape:connector-curvature="0"
           style="fill:#eab18b" /></g><path
         d="m 252.484,24.517 c 3.012,1.144 8.334,-4.809 12.057,-2.027 1.045,-3.412 4.679,-2.252 5.361,-2.591 0.586,-0.572 1.935,-3.232 -1.531,-6.502 -2.522,-1.231 -7.646,-4.465 -13.668,-4.52 -5.748,-0.053 -12.821,1.095 -12.821,9.228 2.887,3.646 10.602,6.412 10.602,6.412 z"
         id="path4603"
         inkscape:connector-curvature="0"
         style="fill:#60554f" /><path
         d="m 268.233,13.326 c -0.24,1.063 -0.754,2.473 -1.859,3.443 -1.992,1.749 -4.518,1.127 -7.818,1.868 -3.299,0.74 -6.576,5.68 -6.58,5.686 0.313,0.122 0.509,0.193 0.509,0.193 3.012,1.144 8.334,-4.809 12.057,-2.027 1.045,-3.413 4.679,-2.252 5.361,-2.591 0.586,-0.572 1.935,-3.232 -1.531,-6.502 -0.044,-0.021 -0.095,-0.047 -0.139,-0.07 z"
         id="path4605"
         inkscape:connector-curvature="0"
         style="fill:#51443f" /></g><g
       id="g4721"><ellipse
         transform="matrix(0.9342,0.3569,-0.3569,0.9342,10.6827,-43.1625)"
         cx="122.312"
         cy="7.369"
         rx="6.6490002"
         ry="7.4660001"
         id="ellipse4609"
         style="fill:#a3745a" /><path
         d="m 119.388,8.363 c -0.678,1.775 -0.864,3.645 -0.675,5.516 0.295,0.178 0.604,0.338 0.935,0.465 3.431,1.311 7.404,-0.75 8.876,-4.602 1.191,-3.118 0.376,-6.454 -1.797,-8.307 -3.173,1.173 -5.968,3.337 -7.339,6.928 z"
         id="path4611"
         inkscape:connector-curvature="0"
         style="fill:#93624a" /><path
         d="m 148.807,8.429 c 0,0 3.178,2.025 1.907,9.366 -1.022,5.913 -3.941,-9.705 -3.941,-9.705 z"
         id="path4613"
         inkscape:connector-curvature="0"
         style="fill:#a3745a" /><g
         id="g4621"><path
           d="m 161.922,110.237 c 0,0 1.355,6.104 1.082,6.898 l -2.115,10.275 c -0.123,0.408 -0.626,0.552 -0.945,0.272 l -2.944,-2.579 0.908,-14.866 h 1.65 z"
           id="path4615"
           inkscape:connector-curvature="0"
           style="fill:#eab18b" /><path
           d="m 157.509,94.208 c 0,0 1.964,10.219 4.413,16.03 -0.634,1.5 -3.167,10.659 -3.68,9.112 -3.292,-9.94 -7.202,-19.111 -7.202,-19.111 z"
           id="path4617"
           inkscape:connector-curvature="0"
           style="fill:#eab18b" /><path
           d="m 162.04,121.816 c -0.582,-0.008 -1.313,-3.537 -1.313,-4.936 0,0.001 -0.265,6.408 1.313,4.936 z"
           id="path4619"
           inkscape:connector-curvature="0"
           style="fill:#d1916d" /></g><g
         id="g4627"><path
           d="m 144.839,79.526 c -0.05,-0.179 -0.082,-0.358 -0.095,-0.543 -0.234,-3.319 -2.107,-35.498 -1.768,-38.384 0.433,-3.683 2.16,-7.254 6.012,-7.123 3.037,0.104 7.195,4.719 7.316,10.466 0.121,5.747 -1.266,33.255 -1.307,34.779 0,0 2.539,13.142 2.511,15.486 l -6.469,4.068 z"
           id="path4623"
           inkscape:connector-curvature="0"
           style="fill:#ddabf4" /><path
           d="m 149.64,97.781 c -0.232,-0.282 -0.177,-0.698 0.126,-0.901 0.887,-0.594 2.549,-1.734 2.922,-2.186 l 1.285,0.449 -0.048,-1.486 c 0,0 2.195,-1.516 3.18,-2.383 0.274,-0.242 0.692,-0.209 0.905,0.089 0.473,0.663 1.19,1.683 1.432,2.103 0.054,0.094 0.098,0.195 0.076,0.301 -0.232,1.169 -5.667,4.18 -7.333,5.958 -0.264,0.281 -0.7,0.292 -0.946,-0.005 z"
           id="path4625"
           inkscape:connector-curvature="0"
           style="fill:#c99ae2" /></g><path
         d="m 140.872,214.014 c 2.75,-15 -3.45,-39.948 -1.346,-51.956 0,0 -3.555,-31.093 -3.822,-45.244 -0.268,-14.151 5.364,-24.643 5.364,-24.643 0,0 10.355,0.699 13.378,1.797 0,0 10.313,27.573 -1.142,70.913 0.713,2.469 -4.899,37.805 -3.834,50.237 0.678,4.662 4.535,14.961 4.578,16.723 0.042,1.763 -4.535,2.574 -4.938,2.447 -0.403,-0.127 -2.48,-0.353 -2.48,-0.607 0,-0.254 -4.513,-14.07 -4.513,-14.07 0,0 -1.092,-4.026 -1.129,-4.153 -0.037,-0.127 -0.116,-1.444 -0.116,-1.444 z"
         id="path4629"
         inkscape:connector-curvature="0"
         style="fill:#eab18b" /><path
         d="m 153.305,164.881 c 11.454,-43.339 1.142,-70.913 1.142,-70.913 -1.011,-0.367 -2.843,-0.689 -4.831,-0.956 2.133,7.125 8.072,32.362 -1.279,68.861 0.731,2.463 -1.891,39.851 -0.731,52.274 0.59,3.851 3.266,14.08 5.149,19.2 0.747,-0.386 1.31,-0.886 1.295,-1.507 -0.043,-1.762 -3.9,-12.061 -4.578,-16.723 -1.067,-12.431 4.546,-47.767 3.833,-50.236 z"
         id="path4631"
         inkscape:connector-curvature="0"
         style="fill:#d69976" /><g
         id="g4641"><path
           d="m 140.648,230.834 v 0 c -0.461,0 -0.834,-0.373 -0.834,-0.834 v -12.716 h 1.22 v 13.164 c 0,0.213 -0.173,0.386 -0.386,0.386 z"
           id="path4633"
           inkscape:connector-curvature="0"
           style="fill:#8f6ca3" /><path
           d="m 140.648,222.208 v 0 c -0.461,0 -0.834,-0.071 -0.834,-0.158 v -2.422 h 1.22 v 2.507 c 0,0.04 -0.173,0.073 -0.386,0.073 z"
           id="path4635"
           inkscape:connector-curvature="0"
           style="fill:#735487" /><path
           d="m 141.269,211.075 c 0,0 -2.419,0.359 -2.419,5.168 0,4.809 2.579,3.876 3.226,6.101 0.646,2.226 2.655,11.875 6.244,13.007 3.589,1.133 6.747,2.415 9.259,1.976 1.053,-0.221 0.359,-1.92 -0.359,-2.314 -0.614,-0.338 -2.754,-3.875 -3.356,-4.887 -0.061,-0.102 -0.212,-0.092 -0.255,0.018 -0.227,0.576 -1.896,1.912 -3.58,1.746 -2.188,-0.215 -3,-1.055 -8.886,-19.121 z"
           id="path4637"
           inkscape:connector-curvature="0"
           style="fill:#8f6ca3" /><path
           d="m 148.912,233.988 c -3.589,-1.132 -5.599,-10.782 -6.245,-13.007 -0.646,-2.225 -3.226,-1.292 -3.226,-6.101 0,-1.09 0.128,-1.941 0.32,-2.622 -0.49,0.755 -0.912,1.979 -0.912,3.984 0,4.809 2.579,3.876 3.226,6.101 0.646,2.226 2.655,11.875 6.244,13.007 3.589,1.133 6.747,2.415 9.259,1.976 0.615,-0.129 0.626,-0.761 0.393,-1.344 -2.48,0.343 -5.563,-0.89 -9.059,-1.994 z"
           id="path4639"
           inkscape:connector-curvature="0"
           style="fill:#785c8e" /></g><path
         d="m 140.891,162.82 c 0.987,-30.066 5.895,-32.344 1.275,-61.881 -0.784,-5.013 -20.026,-2.708 -20.026,-2.708 -4.14,2.649 -6.443,9.416 -5.811,17.038 0.981,11.825 13.279,36.407 10.798,47.471 -6.03,17.854 0.896,41.099 -1.662,56.785 0.096,0.281 -0.282,0.54 -0.166,0.79 0.104,10.671 -1.537,18.902 0.898,21.547 1.843,2.001 5.833,4.084 7.283,0.985 0.54,-1.154 0.096,-5.223 0.004,-7.117 0.033,-3.616 -0.77,-8.221 -0.864,-14.238 0.081,-0.273 0.144,-0.563 0.161,-0.89 0,0.001 4.827,-31.7 8.11,-57.782 z"
         id="path4643"
         inkscape:connector-curvature="0"
         style="fill:#eab18b" /><path
         d="m 140.891,162.82 c 0.987,-30.066 5.895,-32.344 1.275,-61.881 -0.203,-1.299 -1.652,-2.104 -3.68,-2.588 0.007,0.031 0.021,0.058 0.025,0.089 5.051,30.931 0.177,33.389 -0.37,64.953 -2.901,27.414 -7.265,60.745 -7.265,60.745 -0.014,0.343 -0.071,0.648 -0.148,0.937 0.183,6.313 1.053,11.134 1.072,14.929 0.063,1.04 0.229,2.703 0.301,4.228 0.558,-0.226 1.039,-0.657 1.379,-1.383 0.54,-1.154 0.096,-5.223 0.004,-7.117 0.033,-3.616 -0.77,-8.221 -0.864,-14.238 0.081,-0.273 0.144,-0.563 0.161,-0.89 0,-0.001 4.827,-31.702 8.11,-57.784 z"
         id="path4645"
         inkscape:connector-curvature="0"
         style="fill:#d69976" /><path
         d="m 125.526,219.061 c 0,0 -0.635,15.552 0.623,20.289 0.909,3.427 5.013,4.102 6.787,1.573 0.854,-1.215 0.368,-4.015 0.497,-6.123 0.172,-0.966 0.637,4.08 0.803,6.639 0.061,0.941 -0.027,1.882 -0.26,2.796 l -1.354,5.322 c -0.225,0.882 -1.02,1.5 -1.931,1.5 h -0.912 c -0.746,0 -1.43,-0.416 -1.771,-1.079 l -2.621,-5.088 c -0.979,-1.902 -1.428,-4.028 -1.285,-6.163 0.221,-3.297 1.418,-7.603 -0.376,-12.216 -1.003,-1.926 0.463,-7.173 1.8,-7.45 z"
         id="path4647"
         inkscape:connector-curvature="0"
         style="fill:#8f6ca3" /><path
         d="m 134.236,241.438 c -0.166,-2.559 -0.631,-7.604 -0.803,-6.639 -0.081,1.315 0.078,2.9 0.001,4.201 0.049,0.594 0.092,1.163 0.122,1.634 0.053,0.822 -0.023,1.644 -0.227,2.442 l -1.183,4.651 c -0.196,0.771 -0.892,1.312 -1.688,1.312 h -0.798 c -0.651,0 -1.248,-0.364 -1.547,-0.944 l -2.29,-4.445 c -0.856,-1.663 -1.249,-3.521 -1.124,-5.387 0.193,-2.881 1.24,-6.644 -0.328,-10.675 -0.757,-1.451 -0.044,-5.051 1.021,-6.175 0.072,-1.441 0.132,-2.354 0.132,-2.354 -1.337,0.277 -2.804,5.524 -1.799,7.45 1.794,4.613 0.597,8.919 0.376,12.216 -0.143,2.135 0.306,4.261 1.285,6.163 l 2.621,5.088 c 0.341,0.663 1.024,1.079 1.771,1.079 h 0.913 c 0.91,0 1.705,-0.618 1.93,-1.5 l 1.354,-5.322 c 0.234,-0.913 0.322,-1.853 0.261,-2.795 z"
         id="path4649"
         inkscape:connector-curvature="0"
         style="fill:#785c8e" /><path
         d="m 154.614,93.204 c 0,0 -28.002,2.281 -32.455,4.963 -2.992,1.802 -6.074,5.649 -6.074,14.624 0,9.944 12.1,40.141 10.708,48.591 0.207,0.8 1.197,1.404 2.664,1.801 0.4,-3.084 0.979,-8.609 0.448,-11.505 0,0 2.23,6.043 2.187,11.942 4.229,0.37 10.166,-0.384 14.808,-2.577 6.456,-3.051 9.532,-9.272 9.705,-10.172 -10e-4,-0.001 7.144,-27.201 -1.991,-57.667 z"
         id="path4651"
         inkscape:connector-curvature="0"
         style="fill:#5a4963" /><path
         d="m 154.614,93.204 c 0,0 -28.002,2.281 -32.455,4.963 -2.992,1.802 -6.074,5.649 -6.074,14.624 0,9.944 12.1,40.141 10.708,48.591 0.207,0.8 1.197,1.404 2.664,1.801 0.4,-3.084 0.979,-8.609 0.448,-11.505 0,0 2.23,6.043 2.187,11.942 4.229,0.37 10.166,-0.384 14.808,-2.577 6.456,-3.051 9.532,-9.272 9.705,-10.172 -10e-4,-0.001 7.144,-27.201 -1.991,-57.667 z"
         id="path4653"
         inkscape:connector-curvature="0"
         style="fill:#5a4963" /><path
         d="m 154.614,93.204 c 0,0 -0.106,0.008 -0.3,0.025 5.115,35.417 -5.103,65.285 -5.103,65.285 -0.073,0.263 -0.39,0.92 -0.931,1.792 5.511,-3.218 8.163,-8.604 8.324,-9.436 10e-4,0 7.145,-27.201 -1.99,-57.666 z"
         id="path4655"
         inkscape:connector-curvature="0"
         style="fill:#46374f" /><path
         d="m 131.63,37.363 c -1.562,0.53 -6.024,2.105 -9.838,4.059 -3.931,2.013 -6.31,6.075 -6.238,10.491 0.131,8.134 3.427,16.909 8.478,24.792 3.038,4.743 2.762,13.477 -1.872,21.462 3.65,4.599 12.47,5.829 18.294,5.312 10.547,-0.936 15.283,-6.781 14.057,-11.454 0,0 -2.043,-10.035 -2.397,-16.21 -0.302,-5.267 0.723,-10.94 1.496,-13.42 3.516,-0.681 7.344,-5.529 2.24,-14.715 -0.17,-2.849 -0.255,-12.759 -8.138,-14.205 -6.436,1.633 -13.092,3.152 -14.979,3.579 -0.387,0.086 -0.729,0.182 -1.103,0.309 z"
         id="path4657"
         inkscape:connector-curvature="0"
         style="fill:#d292ea" /><g
         id="g4661"><path
           d="m 124.031,76.704 c 1.458,2.276 2.144,5.476 1.959,9.067 0.776,-7.596 2.765,-26.902 2.927,-31.621 0.197,-5.745 -3.699,-10.583 -6.725,-10.855 -3.839,-0.345 -5.761,3.126 -6.398,6.779 -0.075,0.435 -0.138,1.554 -0.188,3.139 0.438,7.763 3.643,16.027 8.425,23.491 z"
           id="path4659"
           inkscape:connector-curvature="0"
           style="fill:#bf82db" /></g><path
         d="m 152.541,67.464 c 0.309,-2.127 0.713,-3.935 1.067,-5.07 0,0 -12.589,3.895 -19.741,4.236 0,0 10.791,3.216 18.674,0.834 z"
         id="path4663"
         inkscape:connector-curvature="0"
         style="fill:#bf82db" /><g
         id="g4667"><path
           d="m 152.112,75.814 c -0.201,-3.525 0.19,-7.228 0.704,-10.037 -1.22,2.846 -2.948,8.201 -3.542,13.386 -0.767,6.7 -0.564,17.832 -0.564,17.832 0.12,1.717 -0.431,3.46 -1.581,5.005 5.822,-2.245 8.308,-6.443 7.381,-9.976 0,0.001 -2.043,-10.034 -2.398,-16.21 z"
           id="path4665"
           inkscape:connector-curvature="0"
           style="fill:#bf82db" /></g><path
         d="m 155.849,47.679 c -0.151,-2.537 -0.251,-10.66 -5.835,-13.432 4.767,7.312 5.311,14.34 5.311,14.34 2.498,9.433 -1.716,13.807 -1.716,13.807 3.515,-0.68 7.343,-5.528 2.24,-14.715 z"
         id="path4669"
         inkscape:connector-curvature="0"
         style="fill:#bf82db" /><g
         id="g4683"><path
           d="m 131.818,28.374 c 0,0 0.502,5.496 -0.856,10.929 2.31,3.668 10.46,5.57 11.954,1.358 0,0 -0.406,-3.753 1.155,-6.427 1.562,-2.674 -12.253,-5.86 -12.253,-5.86 z"
           id="path4671"
           inkscape:connector-curvature="0"
           style="fill:#eab18b" /><path
           d="m 131.818,28.374 c 0,0 0.149,1.657 0.062,4.045 0.753,0.771 1.346,1.463 1.346,1.463 2.894,3.93 6.348,5.649 9.657,6.285 -0.05,-1.101 -0.032,-3.843 1.188,-5.933 1.562,-2.674 -12.253,-5.86 -12.253,-5.86 z"
           id="path4673"
           inkscape:connector-curvature="0"
           style="fill:#d39775" /><path
           d="m 148.192,8.66 c 0,0 3.066,5.357 3.066,11.167 -0.227,0.775 1.097,2.259 0.774,5.486 -0.234,2.344 -0.707,7.105 -0.948,9.536 -0.089,0.9 -0.755,1.632 -1.646,1.789 -4.707,0.83 -12.236,1.311 -17.738,-6.161 0,0 -2.646,-3.098 -3.873,-3.486 -1.227,-0.387 -6.039,-6.528 -6.039,-11.498 0,-5.267 2.908,-13.254 13.72,-13.254 8.807,-10e-4 12.684,6.421 12.684,6.421 z"
           id="path4675"
           inkscape:connector-curvature="0"
           style="fill:#eab18b" /><g
           id="g4681"><path
             d="m 151.259,19.826 c 0,-5.809 -3.066,-11.167 -3.066,-11.167 0,0 -1.486,-2.453 -4.698,-4.327 1.817,1.502 2.686,2.918 2.686,2.918 0,0 4.49,5.659 4.49,11.468 -0.227,0.775 1.061,1.825 0.738,5.052 -0.234,2.344 -1.537,7.446 -1.778,9.877 -0.089,0.9 -0.755,1.632 -1.646,1.789 -3.399,0.6 -8.827,0.792 -13.344,-1.838 5.027,4.16 10.887,3.728 14.799,3.038 0.891,-0.157 1.557,-0.889 1.646,-1.789 0.241,-2.431 0.714,-7.192 0.948,-9.536 0.321,-3.226 -1.001,-4.71 -0.775,-5.485 z"
             id="path4677"
             inkscape:connector-curvature="0"
             style="fill:#e0a380" /><path
             d="m 126.759,26.151 c 0.327,0.335 0.612,0.581 0.837,0.72 -0.283,-0.263 -0.567,-0.509 -0.837,-0.72 z"
             id="path4679"
             inkscape:connector-curvature="0"
             style="fill:#dd9e7a" /></g></g><g
         id="g4709"><g
           id="g4699"><path
             d="m 126.313,134.326 c 0.202,-2.04 -3.183,-2.176 -4.203,-6.316 -0.049,-0.198 -0.115,-0.361 -0.183,-0.523 0.003,-0.004 0.007,-0.008 0.01,-0.012 -1.363,-6.157 -1.729,-18.188 -1.729,-18.188 l -8.112,0.104 c 0,0 2.194,9.724 3.644,20.095 0,0 -0.314,6.77 -0.177,7.211 0.139,0.442 4.532,5.477 7.1,5.255 2.568,-0.222 3.788,-2.224 3.788,-2.224 0,0 -0.342,-3.362 -0.138,-5.402 z"
             id="path4685"
             inkscape:connector-curvature="0"
             style="fill:#eab18b" /><path
             d="m 126.313,134.326 c 0.202,-2.04 -3.183,-2.176 -4.203,-6.316 -0.049,-0.198 -0.115,-0.361 -0.183,-0.523 0.003,-0.004 0.007,-0.008 0.01,-0.012 -1.363,-6.157 -1.729,-18.188 -1.729,-18.188 l -3.215,0.042 c 0.529,4.719 2.059,16.301 4.58,19.129 1.088,2.377 3.325,4.335 3.751,5.244 0.426,0.909 0.199,2.043 0.511,2.782 0.141,0.331 0.308,0.647 0.45,0.9 -0.046,-1.011 -0.061,-2.162 0.028,-3.058 z"
             id="path4687"
             inkscape:connector-curvature="0"
             style="fill:#dd9f7c" /><g
             id="g4697"><g
               id="g4691"><path
                 d="m 126.312,137.907 c 0,0 -0.358,-0.039 -0.839,-0.257 -0.249,-0.096 -0.502,-0.267 -0.783,-0.44 -0.257,-0.205 -0.542,-0.417 -0.776,-0.681 -0.227,-0.272 -0.482,-0.519 -0.636,-0.818 -0.148,-0.3 -0.328,-0.55 -0.401,-0.807 -0.152,-0.511 -0.216,-0.845 -0.216,-0.845 0,0 0.217,0.286 0.485,0.703 0.113,0.22 0.339,0.422 0.525,0.662 0.168,0.256 0.44,0.456 0.648,0.705 0.104,0.125 0.244,0.217 0.357,0.331 0.118,0.11 0.234,0.218 0.348,0.323 0.241,0.189 0.446,0.401 0.644,0.556 0.387,0.34 0.644,0.568 0.644,0.568 z"
                 id="path4689"
                 inkscape:connector-curvature="0"
                 style="fill:#c98865" /></g><g
               id="g4695"><path
                 d="m 122.288,135.07 c 0,0 0.064,-0.177 0.155,-0.395 0.083,-0.228 0.201,-0.497 0.307,-0.771 0.059,-0.135 0.115,-0.272 0.158,-0.408 0.054,-0.132 0.125,-0.256 0.147,-0.372 0.08,-0.226 0.174,-0.392 0.174,-0.392 0,0 0.076,0.159 0.132,0.42 0.027,0.13 0.032,0.283 0.021,0.449 -0.005,0.167 -0.047,0.34 -0.112,0.506 -0.054,0.17 -0.148,0.324 -0.247,0.458 -0.092,0.139 -0.229,0.231 -0.326,0.317 -0.218,0.16 -0.409,0.188 -0.409,0.188 z"
                 id="path4693"
                 inkscape:connector-curvature="0"
                 style="fill:#c98865" /></g></g></g><g
           id="g4707"><path
             d="m 109.724,87.899 c -0.018,-0.184 -0.017,-0.367 0.004,-0.551 0.368,-3.306 4.318,-35.297 5.172,-38.075 1.09,-3.544 3.432,-6.747 7.197,-5.924 2.968,0.649 6.228,5.937 5.312,11.612 -0.916,5.675 -7.231,32.484 -7.547,33.976 0,0 0.53,17.253 0.08,19.554 l -8.122,1 z"
             id="path4701"
             inkscape:connector-curvature="0"
             style="fill:#ddabf4" /><path
             d="m 124.068,44.434 c 1.742,2.396 2.868,6.44 1.994,10.561 -1.265,5.966 -9.229,34.029 -9.636,35.592 0,0 -0.377,12.832 -0.847,18.44 l 4.361,-0.537 c 0.45,-2.3 -0.08,-19.554 -0.08,-19.554 0.315,-1.492 6.631,-28.301 7.547,-33.977 0.713,-4.412 -1.101,-8.58 -3.339,-10.525 z"
             id="path4703"
             inkscape:connector-curvature="0"
             style="fill:#cb9ae5" /><path
             d="m 110.612,108.219 c -0.061,-0.36 0.195,-0.693 0.56,-0.718 1.064,-0.07 3.074,-0.227 3.623,-0.432 l 0.889,1.031 0.702,-1.311 c 0,0 2.659,-0.215 3.945,-0.474 0.358,-0.072 0.703,0.165 0.738,0.529 0.079,0.811 0.19,2.053 0.188,2.537 0,0.109 -0.012,0.218 -0.084,0.3 -0.785,0.896 -6.998,0.785 -9.329,1.492 -0.369,0.112 -0.753,-0.098 -0.816,-0.478 z"
             id="path4705"
             inkscape:connector-curvature="0"
             style="fill:#c99ae2" /></g></g><path
         d="M 131.908,30.751 C 125.074,27.077 118.843,17.584 121.789,9.87 c 2.945,-7.713 12.439,-8.906 18.203,-7.632 5.764,1.275 8.814,6.191 8.814,6.191 -0.095,0.636 -0.636,0.858 -1.271,0.636 -0.636,-0.222 -5.213,-0.699 -5.848,0.445 -0.637,1.145 -1.398,13.414 -8.773,17.165 0,0 -0.604,-3.21 -2.13,-4.545 -1.525,-1.335 -2.302,1.494 -1.611,2.193 0.69,0.698 2.735,6.428 2.735,6.428 z"
         id="path4711"
         inkscape:connector-curvature="0"
         style="fill:#a3745a" /><g
         id="g4717"><path
           d="m 130.068,23.385 c -2.054,-2.139 -4.658,-0.306 -2.975,2.24 0.361,0.547 1.159,0.867 1.443,1.373 0.158,0.283 0.311,0.522 0.461,0.743 0.475,0.394 0.968,0.874 1.41,1.329 0.542,0.193 1.002,-0.04 1.384,-0.47 z"
           id="path4713"
           inkscape:connector-curvature="0"
           style="opacity:0.4;fill:#d39779" /><path
           d="m 131.655,23.5 c -1.294,-2.668 -4.337,-1.728 -3.521,1.213 0.175,0.632 0.836,1.182 0.949,1.75 0.57,2.85 1.612,3.11 2.603,2.528"
           id="path4715"
           inkscape:connector-curvature="0"
           style="fill:#eab18b" /></g><circle
         cx="130.556"
         cy="28.987"
         r="0.79400003"
         id="circle4719"
         style="fill:#fcf5ff" /></g><g
       id="g4845"><g
         id="g4725"><path
           d="m 236.614,191.852 c -0.391,-0.867 -4.938,-6.182 -4.938,-6.182 -5.674,-4.343 -5.18,-3.275 -5.18,-3.275 l -1.97,3.998 c 0,0 -1.261,-1.868 5.491,6.6 0.742,4.43 3.053,6.499 5.192,7.804 0.793,0.29 6.178,0.281 7.498,-1.112 0.394,-0.416 -0.164,-0.523 -0.681,-0.77 -1.969,-0.938 -5.94,-3.965 -5.412,-7.063 z"
           id="path4723"
           inkscape:connector-curvature="0"
           style="fill:#eab18b" /></g><g
         id="g4733"><path
           d="m 208.464,162.931 c -0.099,-0.152 -0.182,-0.312 -0.248,-0.481 -1.187,-3.041 -12.334,-32.647 -12.858,-35.45 -0.668,-3.578 -0.093,-7.428 3.556,-8.429 2.875,-0.789 8.118,2.322 9.909,7.672 1.791,5.35 8.521,31.53 8.927,32.97 0,0 13.529,23.681 14.187,25.886 l -4.874,5.7 z"
           id="path4727"
           inkscape:connector-curvature="0"
           style="fill:#c7e6ea" /><path
           d="m 206.303,126.729 c 2.046,5.667 10.09,33.279 10.566,34.799 0,0 10.123,17.775 13.883,24.954 l 1.184,-1.385 c -0.657,-2.205 -14.188,-25.886 -14.188,-25.886 -0.405,-1.44 -7.135,-27.62 -8.926,-32.97 -1.775,-5.305 -6.942,-8.403 -9.833,-7.686 2.671,1.09 5.832,4.069 7.314,8.174 z"
           id="path4729"
           inkscape:connector-curvature="0"
           style="fill:#add5d8" /><path
           d="m 225.735,189.535 c -0.206,-0.234 -0.143,-0.604 0.144,-0.799 0.835,-0.57 2.4,-1.663 2.759,-2.081 l 1.17,0.325 0.002,-1.305 c 0,0 0.784,-0.467 1.718,-1.283 0.261,-0.227 0.645,-0.221 0.831,0.03 0.416,0.557 1.046,1.415 1.255,1.771 0.047,0.08 0.084,0.166 0.062,0.261 -0.249,1.041 -4.065,2.997 -5.654,4.651 -0.252,0.262 -0.654,0.294 -0.872,0.046 z"
           id="path4731"
           inkscape:connector-curvature="0"
           style="fill:#afd5d8" /></g><g
         id="g4765"><path
           d="m 206.205,311.595 c -0.041,-1.726 -3.819,-11.812 -4.483,-16.377 -0.094,-1.094 -0.133,-2.373 -0.13,-3.789 -1.494,1.473 -6.253,1.196 -7.896,-0.078 -0.103,0.96 -0.231,1.893 -0.396,2.786 0,0 0.078,1.288 0.115,1.413 0.036,0.124 1.105,4.067 1.105,4.067 0,0 4.42,13.53 4.42,13.779 0,0.249 2.033,0.471 2.428,0.595 0.397,0.125 4.878,-0.67 4.837,-2.396 z"
           id="path4735"
           inkscape:connector-curvature="0"
           style="fill:#eab18b" /><g
           id="g4747"><path
             d="m 193.082,310.609 v 0 c -0.451,0 -0.816,-0.366 -0.816,-0.817 v -12.453 h 1.194 v 12.892 c 0,0.208 -0.169,0.378 -0.378,0.378 z"
             id="path4737"
             inkscape:connector-curvature="0"
             style="fill:#469191" /><path
             d="m 193.689,291.259 c 0,0 -2.369,0.352 -2.369,5.061 0,4.71 2.526,3.796 3.159,5.975 0.632,2.179 2.601,11.63 6.115,12.738 3.515,1.109 6.607,2.365 9.067,1.935 1.03,-0.217 0.352,-1.88 -0.352,-2.267 -0.602,-0.331 -2.697,-3.795 -3.288,-4.786 -0.06,-0.099 -0.207,-0.09 -0.249,0.018 -0.223,0.564 -1.856,1.872 -3.506,1.71 -2.144,-0.211 -2.938,-1.032 -8.702,-18.727 z"
             id="path4739"
             inkscape:connector-curvature="0"
             style="fill:#58a3a5" /><g
             id="g4745"><path
               d="m 205.895,309.847 c -0.051,0.003 -0.1,0.03 -0.121,0.085 -0.004,0.01 -0.016,0.023 -0.02,0.033 0.05,-0.039 0.095,-0.078 0.141,-0.118 z"
               id="path4741"
               inkscape:connector-curvature="0"
               style="fill:#469191" /><path
               d="m 201.265,314.303 c -3.515,-1.109 -5.483,-10.56 -6.115,-12.738 -0.633,-2.18 -3.159,-1.266 -3.159,-5.975 0,-2.006 0.431,-3.216 0.924,-3.95 -0.691,0.528 -1.594,1.772 -1.594,4.68 0,4.71 2.526,3.796 3.159,5.975 0.632,2.179 2.601,11.63 6.115,12.738 3.515,1.109 6.607,2.365 9.067,1.935 0.389,-0.081 0.533,-0.369 0.526,-0.717 -2.437,0.359 -5.475,-0.86 -8.923,-1.948 z"
               id="path4743"
               inkscape:connector-curvature="0"
               style="fill:#469191" /></g></g><path
           d="m 178.638,299.125 c -0.979,10.754 -2.186,19.595 0.292,22.284 1.805,1.959 5.712,3.999 7.133,0.965 0.529,-1.131 0.094,-5.114 0.003,-6.97 0.041,-4.339 -1.15,-10.13 -0.786,-18.142 -0.696,-3.499 -6.642,1.863 -6.642,1.863 z"
           id="path4749"
           inkscape:connector-curvature="0"
           style="fill:#eab18b" /><path
           d="m 178.648,299.079 c 0,0 -0.998,15.23 0.234,19.87 0.891,3.355 4.909,4.016 6.646,1.54 0.836,-1.189 0.36,-3.933 0.487,-5.997 0.169,-0.945 0.624,3.996 0.786,6.502 0.059,0.922 -0.026,1.843 -0.254,2.737 l -1.326,5.213 c -0.22,0.864 -0.998,1.47 -1.891,1.47 h -0.894 c -0.73,0 -1.399,-0.408 -1.734,-1.058 l -2.566,-4.982 c -0.959,-1.863 -1.398,-3.945 -1.259,-6.036 0.217,-3.229 1.389,-7.445 -0.368,-11.963 -0.983,-1.886 0.83,-7.025 2.139,-7.296 z"
           id="path4751"
           inkscape:connector-curvature="0"
           style="fill:#58a3a5" /><g
           id="g4755"><path
             d="m 183.957,329.672 h -0.895 c -0.729,0 -1.399,-0.408 -1.733,-1.058 l -2.566,-4.982 c -0.96,-1.863 -1.399,-3.945 -1.259,-6.036 0.216,-3.229 1.389,-7.445 -0.369,-11.963 -0.745,-1.429 0.114,-4.72 1.144,-6.353 -1.248,0.993 -2.662,5.381 -1.768,7.095 1.757,4.518 0.585,8.734 0.368,11.963 -0.14,2.091 0.3,4.173 1.259,6.036 l 2.566,4.982 c 0.335,0.649 1.004,1.058 1.734,1.058 h 0.894 c 0.762,0 1.438,-0.443 1.756,-1.11 -0.322,0.23 -0.713,0.368 -1.131,0.368 z"
             id="path4753"
             inkscape:connector-curvature="0"
             style="fill:#469191" /></g><path
           d="m 193.39,290.983 c 0.306,2.311 8.337,3.12 8.617,0.287 0.026,-14.348 3.799,-43.418 3.163,-45.619 11.217,-42.443 1.117,-69.447 1.117,-69.447 -2.959,-1.075 -13.101,-1.76 -13.101,-1.76 0,0 -5.515,10.275 -5.254,24.134 0.263,13.858 3.744,44.309 3.744,44.309 -1.936,11.045 3.301,33.264 1.714,48.096 z"
           id="path4757"
           inkscape:connector-curvature="0"
           style="fill:#604b4f" /><path
           d="m 206.287,176.204 c -2.959,-1.075 -13.101,-1.76 -13.101,-1.76 0,0 -0.32,0.598 -0.8,1.689 3.172,0.27 8.739,0.83 10.807,1.581 0,0 10.1,27.004 -1.117,69.447 0.636,2.201 -3.137,31.271 -3.163,45.619 -0.01,0.1 -0.05,0.185 -0.078,0.275 1.646,-0.088 3.058,-0.629 3.172,-1.786 0.026,-14.348 3.799,-43.418 3.163,-45.619 11.217,-42.442 1.117,-69.446 1.117,-69.446 z"
           id="path4759"
           inkscape:connector-curvature="0"
           style="fill:#51393f" /><path
           d="m 174.956,180.746 c -4.055,2.595 -6.311,9.221 -5.691,16.687 0.962,11.58 13.006,35.655 10.575,46.489 -5.905,17.486 0.877,40.25 -1.628,55.611 1.69,4.983 6.945,5.013 7.166,1.055 0,0 4.727,-31.044 7.942,-56.587 0.966,-29.445 5.771,-31.676 1.248,-60.604 -0.768,-4.909 -19.612,-2.651 -19.612,-2.651 z"
           id="path4761"
           inkscape:connector-curvature="0"
           style="fill:#604b4f" /><path
           d="m 194.568,183.397 c -0.298,-1.899 -3.306,-2.724 -6.878,-3.023 1.501,0.498 2.528,1.248 2.694,2.353 4.453,29.603 -0.276,31.885 -1.228,62.018 -3.164,26.139 -7.816,57.907 -7.816,57.907 -0.009,0.174 -0.039,0.33 -0.066,0.488 1.939,0.796 3.968,-0.124 4.104,-2.552 0,0 4.727,-31.044 7.942,-56.587 0.966,-29.445 5.772,-31.676 1.248,-60.604 z"
           id="path4763"
           inkscape:connector-curvature="0"
           style="fill:#51393f" /></g><path
         d="m 184.46,119.871 c -1.563,0.53 -6.024,2.105 -9.838,4.059 -3.931,2.013 -6.311,6.075 -6.239,10.491 0.132,8.134 3.428,16.909 8.479,24.792 3.038,4.743 2.762,13.478 -1.872,21.463 3.649,4.599 12.469,5.828 18.293,5.312 10.548,-0.936 15.283,-6.781 14.058,-11.453 0,0 -2.044,-10.035 -2.397,-16.211 -0.302,-5.267 0.722,-10.939 1.496,-13.42 3.516,-0.681 7.343,-5.529 2.239,-14.715 -0.17,-2.849 -0.255,-12.759 -8.137,-14.205 -6.436,1.633 -13.093,3.152 -14.98,3.579 -0.386,0.085 -0.728,0.181 -1.102,0.308 z"
         id="path4767"
         inkscape:connector-curvature="0"
         style="fill:#c7e6ea" /><g
         id="g4771"><path
           d="m 176.861,159.212 c 1.458,2.276 2.143,5.477 1.959,9.067 0.775,-7.597 2.765,-26.903 2.926,-31.621 0.198,-5.746 -3.698,-10.583 -6.725,-10.855 -3.838,-0.345 -5.761,3.125 -6.397,6.779 -0.076,0.435 -0.138,1.554 -0.188,3.139 0.438,7.762 3.642,16.027 8.425,23.491 z"
           id="path4769"
           inkscape:connector-curvature="0"
           style="fill:#92c8cc" /></g><path
         d="m 205.371,149.973 c 0.308,-2.128 0.713,-3.935 1.067,-5.07 0,0 -12.589,3.896 -19.742,4.235 0,0 10.791,3.216 18.675,0.835 z"
         id="path4773"
         inkscape:connector-curvature="0"
         style="fill:#92c8cc" /><g
         id="g4777"><path
           d="m 204.942,158.322 c -0.202,-3.525 0.19,-7.228 0.704,-10.037 -1.221,2.847 -2.949,8.201 -3.542,13.386 -0.767,6.7 -0.565,17.832 -0.565,17.832 0.12,1.718 -0.43,3.46 -1.58,5.006 5.821,-2.245 8.308,-6.443 7.381,-9.976 0,0 -2.044,-10.035 -2.398,-16.211 z"
           id="path4775"
           inkscape:connector-curvature="0"
           style="fill:#92c8cc" /></g><path
         d="m 208.678,130.187 c -0.151,-2.537 -0.251,-10.66 -5.835,-13.432 4.768,7.312 5.312,14.34 5.312,14.34 2.498,9.432 -1.716,13.807 -1.716,13.807 3.515,-0.68 7.342,-5.528 2.239,-14.715 z"
         id="path4779"
         inkscape:connector-curvature="0"
         style="fill:#92c8cc" /><path
         d="m 193.993,120.751 1.622,0.125 1.179,5.179 -0.961,3.275 -2.464,-1.404 c 0,0 -0.026,-4.5 0,-4.484 0.027,0.016 0.624,-2.691 0.624,-2.691 z"
         id="path4781"
         inkscape:connector-curvature="0"
         style="fill:#76b6b7" /><path
         d="m 195.358,124.26 0.61,5.445 -0.559,0.396 -9.352,-4.048 c 0,0 1.387,-1.174 1.457,-1.174 0.07,0 4.321,-0.618 4.321,-0.618 h 3.523 z"
         id="path4783"
         inkscape:connector-curvature="0"
         style="fill:#eab18b" /><path
         d="m 195.377,121.137 c 0,0 1.218,5.136 0.033,8.964 0,0 2.264,0.633 3.914,5.344 0,0 -1.484,-11.754 -3.147,-15.514 l -0.8,-0.524 -1.114,0.399 z"
         id="path4785"
         inkscape:connector-curvature="0"
         style="fill:#a7d5d8" /><g
         id="g4799"><path
           d="m 184.717,112.389 c 0,0 0.495,5.421 -0.845,10.782 2.278,3.619 10.319,5.495 11.793,1.34 0,0 -0.401,-3.703 1.14,-6.341 1.541,-2.638 -12.088,-5.781 -12.088,-5.781 z"
           id="path4787"
           inkscape:connector-curvature="0"
           style="fill:#eab18b" /><path
           d="m 184.717,112.389 c 0,0 0.147,1.635 0.061,3.991 0.743,0.76 1.328,1.443 1.328,1.443 2.854,3.877 6.262,5.573 9.527,6.2 -0.05,-1.086 -0.032,-3.791 1.172,-5.853 1.541,-2.638 -12.088,-5.781 -12.088,-5.781 z"
           id="path4789"
           inkscape:connector-curvature="0"
           style="fill:#ce8e6e" /><path
           d="m 200.87,92.941 c 0,0 3.024,5.285 3.024,11.016 -0.223,0.764 1.083,2.229 0.765,5.412 -0.231,2.313 -0.698,7.009 -0.936,9.407 -0.088,0.888 -0.745,1.61 -1.624,1.765 -4.643,0.819 -12.07,1.293 -17.498,-6.078 0,0 -2.611,-3.057 -3.821,-3.438 -1.21,-0.382 -5.957,-6.44 -5.957,-11.343 0,-5.195 2.869,-13.075 13.535,-13.075 8.688,-0.001 12.512,6.334 12.512,6.334 z"
           id="path4791"
           inkscape:connector-curvature="0"
           style="fill:#eab18b" /><g
           id="g4797"><path
             d="m 203.895,103.957 c 0,-5.731 -3.024,-11.016 -3.024,-11.016 0,0 -1.467,-2.419 -4.636,-4.268 1.794,1.481 2.649,2.879 2.649,2.879 0,0 4.431,5.582 4.431,11.313 -0.224,0.764 1.046,1.8 0.728,4.984 -0.231,2.313 -1.516,7.346 -1.754,9.744 -0.088,0.888 -0.745,1.61 -1.624,1.765 -3.353,0.591 -8.707,0.781 -13.163,-1.813 4.96,4.104 10.74,3.677 14.599,2.996 0.879,-0.155 1.536,-0.877 1.624,-1.765 0.237,-2.398 0.704,-7.095 0.936,-9.407 0.317,-3.183 -0.989,-4.648 -0.766,-5.412 z"
             id="path4793"
             inkscape:connector-curvature="0"
             style="fill:#dd9f7c" /><path
             d="m 179.726,110.196 c 0.322,0.331 0.604,0.573 0.826,0.711 -0.279,-0.26 -0.559,-0.503 -0.826,-0.711 z"
             id="path4795"
             inkscape:connector-curvature="0"
             style="fill:#dd9e7a" /></g></g><g
         id="g4825"><g
           id="g4815"><path
             d="m 173.071,190.619 c 0,0 0.359,11.808 1.697,17.85 -0.878,1.337 -5.861,3.558 -6.083,1.975 -1.422,-10.179 -2.581,-19.734 -2.581,-19.734 z"
             id="path4801"
             inkscape:connector-curvature="0"
             style="fill:#eab18b" /><path
             d="m 168.686,210.443 c 0,0 0.828,8.702 1.225,8.924 1.411,0.788 2.15,1.173 4.648,1.84 3.653,0.976 4.639,-0.712 4.639,-0.712 0,0 -0.333,-3.3 -0.134,-5.302 0.198,-2.002 -3.124,-2.136 -4.126,-6.198 -1.001,-4.063 -6.08,-0.033 -6.08,-0.033 z"
             id="path4803"
             inkscape:connector-curvature="0"
             style="fill:#eab18b" /><g
             id="g4813"><g
               id="g4807"><path
                 d="m 179.063,218.708 c 0,0 -0.352,-0.038 -0.824,-0.252 -0.243,-0.094 -0.492,-0.263 -0.769,-0.433 -0.252,-0.201 -0.531,-0.409 -0.762,-0.669 -0.222,-0.267 -0.474,-0.509 -0.623,-0.803 -0.146,-0.294 -0.322,-0.539 -0.395,-0.792 -0.149,-0.502 -0.212,-0.829 -0.212,-0.829 0,0 0.213,0.28 0.477,0.689 0.111,0.216 0.332,0.415 0.516,0.65 0.165,0.251 0.433,0.447 0.637,0.691 0.103,0.124 0.239,0.214 0.351,0.325 0.116,0.108 0.23,0.214 0.341,0.316 0.237,0.187 0.438,0.395 0.632,0.546 0.378,0.337 0.631,0.561 0.631,0.561 z"
                 id="path4805"
                 inkscape:connector-curvature="0"
                 style="fill:#c98865" /></g><g
               id="g4811"><path
                 d="m 175.114,215.924 c 0,0 0.063,-0.174 0.152,-0.388 0.081,-0.224 0.198,-0.487 0.301,-0.757 0.058,-0.133 0.113,-0.268 0.155,-0.4 0.053,-0.13 0.122,-0.252 0.145,-0.365 0.079,-0.222 0.171,-0.385 0.171,-0.385 0,0 0.075,0.155 0.13,0.412 0.039,0.25 0.052,0.615 -0.09,0.937 -0.053,0.167 -0.146,0.318 -0.242,0.449 -0.09,0.137 -0.225,0.228 -0.32,0.312 -0.214,0.157 -0.402,0.185 -0.402,0.185 z"
                 id="path4809"
                 inkscape:connector-curvature="0"
                 style="fill:#c98865" /></g></g></g><g
           id="g4823"><path
             d="m 162.783,169.63 c -0.018,-0.182 -0.032,-1.337 -0.013,-1.518 0.361,-3.245 4.254,-33.665 5.092,-36.391 1.069,-3.479 3.368,-6.622 7.063,-5.814 2.912,0.637 6.111,5.826 5.213,11.396 -0.898,5.57 -7.097,31.881 -7.406,33.345 0,0 2.258,34.929 1.815,37.187 l -6.321,2.61 z"
             id="path4817"
             inkscape:connector-curvature="0"
             style="fill:#c7e6ea" /><path
             d="m 175.661,126.172 c 1.592,2.281 2.655,5.814 2.095,9.506 -0.892,5.865 -7.055,33.566 -7.362,35.107 0,0 1.951,31.145 1.921,37.972 l 2.233,-0.922 c 0.442,-2.258 -1.815,-37.187 -1.815,-37.187 0.31,-1.464 6.508,-27.775 7.406,-33.345 0.823,-5.102 -1.793,-9.875 -4.478,-11.131 z"
             id="path4819"
             inkscape:connector-curvature="0"
             style="fill:#add5d8" /><path
             d="m 167.238,209.313 c -0.086,-0.28 0.084,-0.572 0.371,-0.629 0.842,-0.167 2.426,-0.5 2.843,-0.72 l 0.814,0.729 0.424,-1.117 c 0,0 2.097,-0.447 3.095,-0.786 0.278,-0.095 0.578,0.059 0.644,0.346 0.146,0.638 0.363,1.616 0.413,2.002 0.011,0.086 0.012,0.174 -0.036,0.247 -0.533,0.795 -5.495,1.351 -7.279,2.155 -0.282,0.127 -0.61,0 -0.7,-0.297 z"
             id="path4821"
             inkscape:connector-curvature="0"
             style="fill:#afd5d8" /></g></g><path
         d="m 195.41,130.101 c 0,0 -8.113,-3.221 -11.784,-7.174 l -2.091,3.306 c 0,0 6.572,9.295 12.063,11.042 0,0 0.814,-5.344 1.812,-7.174 z"
         id="path4827"
         inkscape:connector-curvature="0"
         style="fill:#a7d5d8" /><path
         d="m 187.608,100.007 c -2.506,0.787 -0.805,7.872 -3.78,8.235 0,0 1.409,4.709 0.814,8.368 -1.284,-3.147 -4.754,-5.11 -8.348,-9.491 -1.817,-2.216 -3.869,-3.828 -3.785,-7.154 -0.004,-2.036 0.768,-8.693 3.577,-11.688 0.125,-3.494 13.601,-7.112 22.211,0 8.609,7.112 6.364,17.594 6.364,17.594 -1.742,-6.85 -11.812,-1.388 -17.053,-5.864 z"
         id="path4829"
         inkscape:connector-curvature="0"
         style="fill:#a3745a" /><path
         d="m 172.897,96.172 c -0.281,1.623 -0.389,3.032 -0.388,3.794 -0.084,3.326 1.968,4.938 3.785,7.154 3.594,4.38 7.063,6.343 8.348,9.491 0.595,-3.659 -0.814,-8.368 -0.814,-8.368 l -1.732,1.221 c -1.759,-0.878 -7.587,-8.903 -9.199,-13.292 z"
         id="path4831"
         inkscape:connector-curvature="0"
         style="fill:#996850" /><g
         id="g4837"><path
           d="m 183.055,107.305 c -2.016,-2.1 -4.571,-0.301 -2.92,2.198 0.355,0.537 1.139,0.851 1.416,1.347 0.156,0.278 0.307,0.513 0.453,0.729 0.466,0.387 0.95,0.858 1.384,1.304 0.532,0.189 0.825,-0.032 1.199,-0.454 z"
           id="path4833"
           inkscape:connector-curvature="0"
           style="opacity:0.4;fill:#d39779" /><path
           d="m 184.612,107.417 c -1.271,-2.619 -4.256,-1.696 -3.456,1.19 0.173,0.62 0.82,1.16 0.933,1.718 0.56,2.797 1.582,3.052 2.554,2.481"
           id="path4835"
           inkscape:connector-curvature="0"
           style="fill:#eab18b" /></g><circle
         cx="183.228"
         cy="112.803"
         r="0.778"
         id="circle4839"
         style="fill:#fcf5ff" /><path
         d="m 235.356,190.229 c 2.358,0.291 2.379,3.243 4.454,3.563 2.074,0.319 2.012,0.301 2.472,0.323 0.461,0.023 -1.313,1.847 -3.292,1.232 -1.979,-0.615 -1.864,-1.271 -3.121,-1.116 -1.257,0.155 -0.745,-3.051 -0.745,-3.051 z"
         id="path4841"
         inkscape:connector-curvature="0"
         style="fill:#eab18b" /><path
         d="m 199.549,100.401 c -2.555,-0.492 -10.672,-0.909 -11.581,-1.666 -0.908,-0.757 -6.945,-3.993 -6.945,-3.993 0,0 5.261,3.376 6.586,5.265 4.317,3.687 11.909,0.636 15.425,3.275 -0.956,-1.294 -2.221,-2.637 -3.485,-2.881 z"
         id="path4843"
         inkscape:connector-curvature="0"
         style="fill:#996850" /></g><g
       id="g4987"><g
         id="g4983"><g
           id="g4895"><g
             id="g4893"><g
               id="g4891"><path
                 d="m 65.964,317.221 c 0,0 0.307,-0.568 1.156,-1.748 0.851,-1.18 7.551,-0.495 7.551,-0.495 0,0 0.741,1.595 0.823,1.676 0.082,0.08 0.563,5.018 0.563,5.018 l -7.366,1.744 -2.523,-2.648 z"
                 id="path4847"
                 inkscape:connector-curvature="0"
                 style="fill:#4c565e" /><path
                 d="m 75.494,316.653 c -0.082,-0.081 -0.822,-1.676 -0.822,-1.676 0,0 -6.701,-0.685 -7.552,0.495 -0.85,1.18 -1.156,1.748 -1.156,1.748 l 0.001,0.017 c 1.67,2.088 7.689,2.704 9.664,0.338 -0.062,-0.527 -0.112,-0.9 -0.135,-0.922 z"
                 id="path4849"
                 inkscape:connector-curvature="0"
                 style="fill:#3e484f" /><g
                 id="g4857"><path
                   d="m 65.801,317.968 -0.188,6.465 0.889,0.669 v 5.743 c 0,0 0.512,5.271 1.225,6.694 0.494,0.986 0.805,1.499 2.343,1.938 1.357,0.387 4.155,0.903 6.663,-0.639 0.655,-0.402 1.023,-1.154 0.994,-1.922 -0.025,-0.664 -0.112,-1.454 -0.358,-1.953 -0.314,-0.637 -6.11,-0.534 -6.11,-0.534 l -5.118,-14.193 z"
                   id="path4851"
                   inkscape:connector-curvature="0"
                   style="fill:#353d44" /><path
                   d="m 75.549,315.005 -0.869,-0.292 c 0,0 0.729,2.733 0.854,5.61 -0.81,-0.065 -4.163,-0.249 -8.456,0.732 -0.496,-2.828 -0.352,-5.574 -0.686,-5.352 -1.742,2.873 -0.053,4.398 0.146,7.711 0.037,1.94 0.49,11.079 1.246,12.989 0.911,1.814 3.436,2.236 4.582,2.47 2.085,0.424 5.031,-1.078 5.178,-2.029 0.879,-0.904 -0.87,-15.583 -1.995,-21.839 z"
                   id="path4853"
                   inkscape:connector-curvature="0"
                   style="fill:#273035" /><path
                   d="m 75.549,315.005 -0.399,-0.134 c 0.984,6.283 2.41,19.685 1.663,20.531 -0.128,0.917 -2.705,2.365 -4.529,1.957 -1.003,-0.225 -3.211,-0.632 -4.008,-2.381 -0.661,-1.842 -1.058,-10.65 -1.09,-12.521 -0.149,-2.738 -1.252,-4.212 -0.604,-6.321 -0.043,-0.325 -0.098,-0.493 -0.189,-0.432 -1.742,2.873 -0.053,4.398 0.146,7.711 0.037,1.94 0.49,11.079 1.246,12.989 0.911,1.814 3.436,2.236 4.582,2.47 2.085,0.424 5.031,-1.078 5.178,-2.029 0.878,-0.905 -0.871,-15.584 -1.996,-21.84 z"
                   id="path4855"
                   inkscape:connector-curvature="0"
                   style="fill:#21292d" /></g><path
                 d="m 87.039,309.418 c 0,0 0.716,-0.241 0.964,0.062 0.247,0.304 -0.923,1.715 -0.923,1.715 0,0 -0.214,-0.84 -0.214,-0.867 0,-0.029 0.173,-0.91 0.173,-0.91 z"
                 id="path4859"
                 inkscape:connector-curvature="0"
                 style="fill:#353d44" /><path
                 d="m 95.918,309.547 v -6.818 h -8.626 v 8.352 l 5.197,5.573 7.212,-1.863 c 0,0 -0.61,-1.178 -0.868,-1.543 -1.518,-2.156 -2.915,-3.701 -2.915,-3.701 z"
                 id="path4861"
                 inkscape:connector-curvature="0"
                 style="fill:#4c565e" /><path
                 d="m 96.072,309.722 c -0.091,-0.104 -0.154,-0.175 -0.154,-0.175 v -6.818 h -8.626 v 6.935 c 2.508,1.253 6.661,2.648 8.78,0.058 z"
                 id="path4863"
                 inkscape:connector-curvature="0"
                 style="fill:#3e484f" /><g
                 id="g4871"><path
                   d="m 86.088,311.731 c 0,0.8 0,1.722 0,3.265 0,1.48 3.223,3.81 5.795,4.55 0.158,0.046 0.313,-0.083 0.306,-0.247 l -0.028,-0.772 c 0.826,0.3 2.384,1.141 3.304,1.807 0.132,0.096 0.265,0.803 0.397,0.903 1.867,1.404 3.798,2.597 5.39,3.701 2.334,1.621 6.813,-0.147 7.985,-0.657 0.176,-0.076 0.287,-0.248 0.287,-0.44 v -0.564 l -4.745,0.123 -8.096,-4.674 -9.522,-5.613 -0.1,-0.939 -0.973,-0.443"
                   id="path4865"
                   inkscape:connector-curvature="0"
                   style="fill:#353d44" /><path
                   d="m 109.346,322.448 c -4.283,-3.03 -7.214,-5.853 -9.128,-7.93 -1.139,-2.476 -2.412,-3.793 -2.412,-3.793 -2.726,-0.006 -5.435,2.022 -6.222,2.662 -2.295,-1.288 -4.617,-3.441 -4.545,-3.97 -0.438,0.135 -0.951,0.787 -0.951,1.587 0,0.8 0,0.727 0,2.264 0,1.543 3.525,4.007 6.113,4.635 2.588,0.628 6.861,4.021 9.561,5.896 2.34,1.625 6.595,0.152 7.688,-0.27 0.159,-0.062 0.262,-0.213 0.262,-0.384 -0.001,-0.276 -0.14,-0.537 -0.366,-0.697 z"
                   id="path4867"
                   inkscape:connector-curvature="0"
                   style="fill:#273035" /><path
                   d="m 109.346,322.448 c -0.004,-0.003 -0.006,-0.005 -0.01,-0.007 -1.236,0.466 -5.303,1.805 -7.574,0.228 -2.699,-1.875 -6.973,-5.27 -9.561,-5.897 -2.588,-0.627 -6.113,-3.092 -6.113,-4.634 0,0.25 0,0.587 0,1.131 0,1.543 3.525,4.007 6.113,4.635 2.588,0.628 6.861,4.021 9.561,5.896 2.34,1.625 6.595,0.152 7.688,-0.27 0.159,-0.062 0.262,-0.213 0.262,-0.384 -0.001,-0.277 -0.14,-0.538 -0.366,-0.698 z"
                   id="path4869"
                   inkscape:connector-curvature="0"
                   style="fill:#21292d" /></g><g
                 id="g4881"><path
                   d="m 82.16,176.26 c -11.318,6.615 -0.446,57.914 3.134,77.96 -1.423,5.806 0.63,14.446 0.946,25.266 0.354,12.151 -0.513,27.902 -0.513,27.902 1.902,1.216 8.779,4.801 10.991,-0.086 0,0 2.69,-36.88 2.836,-48.594 4.483,-33.477 3.22,-61.638 2.957,-69.393 -1.172,-5.613 -10.578,-18.767 -20.351,-13.055 z"
                   id="path4873"
                   inkscape:connector-curvature="0"
                   style="fill:#353d44" /><path
                   d="M 102.511,189.315 C 101.372,183.863 92.466,171.3 83,175.818 c 8.46,-1.469 15.918,9.361 16.953,14.318 0.264,7.755 1.527,35.915 -2.956,69.393 -0.146,11.714 -2.836,48.594 -2.836,48.594 -0.339,0.748 -0.796,1.278 -1.319,1.668 1.604,-0.039 3.061,-0.684 3.877,-2.489 0,0 2.69,-36.88 2.836,-48.594 4.483,-33.477 3.219,-61.638 2.956,-69.393 z"
                   id="path4875"
                   inkscape:connector-curvature="0"
                   style="opacity:0.2;fill:#2f373d" /><path
                   d="m 89.413,201.388 c 0,0 -5.652,-4.565 -12.23,-4.398 0.496,18.543 5.81,44.344 8.111,57.23 -1.423,5.805 0.63,14.446 0.946,25.266 0.354,12.151 -0.513,27.902 -0.513,27.902 0.646,0.413 1.873,1.097 3.29,1.632 l -0.444,-44.409 c 0,-10e-4 3.621,-31.403 0.84,-63.223 z"
                   id="path4877"
                   inkscape:connector-curvature="0"
                   style="opacity:0.2;fill:#272e33" /><path
                   d="m 89.236,201.581 c 0,0 -1.193,-1.098 -3.145,-2.283 -2.26,-1.178 -5.451,-2.396 -8.909,-2.309 0.496,18.543 5.81,44.344 8.111,57.23 -0.514,2.097 -0.571,4.569 -0.424,7.375 1.363,-8.555 4.975,-34.008 4.367,-60.013 z"
                   id="path4879"
                   inkscape:connector-curvature="0"
                   style="opacity:0.2;fill:#272e33" /></g><g
                 id="g4885"><path
                   d="m 69.921,197.569 c -11.318,6.615 -4.511,47.042 -2.475,66.954 -2.385,4.321 -0.741,13.697 -0.615,22.395 0.174,12.086 -1.491,27.978 -1.491,27.978 0.159,3.329 10.295,4.477 10.721,-0.096 l 5.229,-50.495 c 0,0 7.145,-30.793 7.975,-62.724 -0.001,0 -9.572,-9.725 -19.344,-4.012 z"
                   id="path4883"
                   inkscape:connector-curvature="0"
                   style="fill:#353d44" /></g><path
                 d="m 87.154,199.799 c -1.571,32.521 -8.694,63.067 -8.694,63.067 l -5.91,53.172 c -0.072,0.717 -0.362,1.298 -0.797,1.762 2.183,-0.146 4.126,-1.054 4.308,-3 l 5.229,-50.495 c 0,0 7.145,-30.793 7.975,-62.724 -0.001,0 -0.778,-0.787 -2.111,-1.782 z"
                 id="path4887"
                 inkscape:connector-curvature="0"
                 style="opacity:0.2;fill:#2f373d" /><path
                 d="m 102.874,206.516 c -0.011,-7.313 -0.21,-12.894 -0.325,-16.131 -0.102,-0.673 -0.201,-1.354 -0.303,-2.043 -1.929,-6.008 -10.841,-17.485 -20.086,-12.082 -3.885,2.271 -5.155,9.806 -5.004,19.533 -2.298,-0.125 -4.76,0.329 -7.235,1.776 -3.593,2.099 -5.354,7.61 -6.027,14.783 3.773,2.412 10.984,2.124 17.439,1.475 6.978,-0.702 17.72,-3.548 21.541,-7.311 z"
                 id="path4889"
                 inkscape:connector-curvature="0"
                 style="opacity:0.2;fill:#2f373d" /></g></g></g><path
           d="m 93.234,99.722 c 0,0 6.121,5.69 1.898,14.118 -4.223,8.429 -7.617,-14.722 -7.617,-14.722 z"
           id="path4897"
           inkscape:connector-curvature="0"
           style="fill:#60554f" /><g
           id="g4907"><path
             d="m 110.831,206.02 c 0,0 -0.149,-4.495 -0.431,-5.963 -1.066,-2.342 -1.188,-3.758 -1.188,-3.758 0.018,-0.292 -5.672,-30.338 -5.672,-30.338 l -1.613,-33.32 c 0.05,-2.599 -0.232,-6.049 -2.832,-6.099 -2.599,-0.05 -4.221,0.199 -4.271,2.798 l -0.707,36.962 -0.003,0.157 c -0.007,0.369 0.047,0.743 0.144,1.081 l 9.699,33.195 c -0.038,1.496 -0.165,3.172 0,9.05 0.165,5.878 3.662,4.147 4.087,3.385 1.344,-3.175 2.787,-7.15 2.787,-7.15 z"
             id="path4899"
             inkscape:connector-curvature="0"
             style="fill:#ffcbae" /><g
             id="g4903"><path
               d="m 102.842,197.519 c 5.178,1.399 7.559,-1.18 7.559,-1.18 l -5.856,-30.779 c 0,0 1.298,-25.23 -0.869,-34.661 -1.744,-7.586 -7.898,-8.752 -7.898,-8.752 -3.656,0.028 -3.815,3.897 -3.787,7.554 l 1.331,37.687 z"
               id="path4901"
               inkscape:connector-curvature="0"
               style="fill:#293035" /></g><path
             d="m 104.544,165.56 c 0,0 1.298,-25.23 -0.869,-34.661 -0.688,-2.996 -2.065,-4.979 -3.479,-6.296 0.999,1.341 1.882,3.119 2.366,5.498 2.031,9.983 0.354,36.585 0.354,36.585 l 5.141,30.937 c 1.587,-0.465 2.343,-1.283 2.343,-1.283 z"
             id="path4905"
             inkscape:connector-curvature="0"
             style="fill:#20272b" /></g><g
           id="g4911"><path
             d="m 103.675,201.266 c 0,-6.535 -3.437,-21.366 -3.724,-33.231 -0.315,-13.051 3.724,-22.999 -0.072,-32.983 -1.813,-4.767 -4.318,-16.094 -11.243,-13.348 -5.434,2.32 -8.721,2.15 -11.186,3.614 -7.019,7.779 -13.451,5.52 -17.511,12.843 -5.106,8.55 2.5,26.899 9.465,44.012 0.043,3.154 -4.859,8.968 -8.333,21.739 -0.436,7.842 10.538,7.662 19.901,6.721 8.178,-0.823 21.572,-4.613 22.703,-9.367 z"
             id="path4909"
             inkscape:connector-curvature="0"
             style="fill:#b2ceea" /></g><path
           d="m 99.279,169.299 c 0,0 2.647,29.419 1.731,37.989 0,0 3.73,-0.869 5.327,-4.789 0,0 -4.574,-32.019 -3.865,-36.23 0.709,-4.211 0.438,-18.048 0.428,-25.523 -0.01,-7.476 -4.996,-19.718 -14.265,-19.042 -9.27,0.675 4.345,7.972 4.345,7.972 l 1.618,6.099 4.045,24.267 z"
           id="path4913"
           inkscape:connector-curvature="0"
           style="fill:#31393f" /><path
           d="m 85.471,138.821 c 0,0 -1.008,5.012 -1.005,6.708 3.05,9.263 8.212,48.036 8.212,48.036 0,0 4.213,-33.523 -1.821,-50.532 -0.526,-1.483 -4.467,-4.438 -4.467,-4.438 z"
           id="path4915"
           inkscape:connector-curvature="0"
           style="fill:#44647f" /><path
           d="m 82.487,136.998 c 0,0 0.735,2.45 1.824,2.668 1.089,0.218 3.186,-1.008 3.458,-1.77 0.272,-0.763 0.436,-2.66 0.136,-3.032 -0.3,-0.372 -1.886,-0.274 -1.886,-0.274 l -0.895,0.205 c 0,0 -2.598,1.599 -2.604,1.674 -0.006,0.075 -0.033,0.529 -0.033,0.529 z"
           id="path4917"
           inkscape:connector-curvature="0"
           style="fill:#44647f" /><path
           d="m 99.279,169.299 c 0,0 -3.219,-35.853 -10.256,-40.962 l -4.015,-3.722 c 0,0 6.011,0.048 11.319,4.308 l -2.146,3.349 3.849,0.559 c 0.001,0.001 1.876,35.427 1.249,36.468 z"
           id="path4919"
           inkscape:connector-curvature="0"
           style="fill:#646f77" /><path
           d="m 75.035,127.588 c -2.677,1.623 -0.792,9.172 7.033,13.157 0,0 0.124,-4.604 3.402,-6.028 -3.908,0.048 -11.189,-3.96 -10.435,-7.129 z"
           id="path4921"
           inkscape:connector-curvature="0"
           style="fill:#cce3ff" /><path
           d="m 85.471,134.717 c 0,0 2.026,-0.443 3.388,2.28 1.033,-1.688 1.03,-5.088 -0.708,-6.698 0.435,1.688 0.467,3.337 -2.68,4.418 z"
           id="path4923"
           inkscape:connector-curvature="0"
           style="fill:#cce3ff" /><path
           d="m 110.4,206.102 c -0.617,0.979 -2.723,0.127 -2.505,-3.431 -0.907,2.613 0.894,6.234 2.505,3.431 z"
           id="path4925"
           inkscape:connector-curvature="0"
           style="fill:#e5ac8f" /><g
           id="g4937"><path
             d="m 75.855,119.804 c 0,0 0.191,5.304 -1.211,10.914 2.385,3.788 12.614,6.157 14.157,1.809 0,0 -0.42,-3.875 1.192,-6.637 1.614,-2.762 -14.138,-6.086 -14.138,-6.086 z"
             id="path4927"
             inkscape:connector-curvature="0"
             style="fill:#dda07f" /><path
             d="m 75.855,119.804 c 0,0 0.037,1.016 -0.039,2.629 3.272,6.324 8.487,8.313 12.938,8.898 0.002,-1.364 0.188,-3.638 1.24,-5.442 1.613,-2.761 -14.139,-6.085 -14.139,-6.085 z"
             id="path4929"
             inkscape:connector-curvature="0"
             style="fill:#cc8a6d" /><path
             d="m 92.764,99.447 c 0,0 3.165,5.532 3.165,11.53 -0.232,0.8 1.134,2.333 0.8,5.665 -0.241,2.42 -0.729,7.336 -0.979,9.846 -0.093,0.929 -0.78,1.685 -1.699,1.848 -4.859,0.857 -12.635,1.354 -18.316,-6.362 0,0 -2.732,-3.199 -3.999,-3.599 -1.267,-0.4 -6.235,-6.741 -6.235,-11.873 0,-5.438 3.003,-13.686 14.167,-13.686 9.092,10e-4 13.096,6.631 13.096,6.631 z"
             id="path4931"
             inkscape:connector-curvature="0"
             style="fill:#eab18b" /><g
             id="g4935"><path
               d="m 95.93,110.978 c 0,-5.999 -3.166,-11.531 -3.166,-11.531 0,0 -0.62,-1.014 -1.906,-2.246 0.273,0.361 0.41,0.585 0.41,0.585 0,0 3.166,5.532 3.166,11.531 -0.233,0.8 1.133,2.333 0.8,5.665 -0.242,2.42 -0.73,7.336 -0.979,9.846 -0.092,0.929 -0.779,1.685 -1.699,1.847 -4.299,0.759 -10.877,1.223 -16.271,-4.018 5.626,6.978 13.061,6.51 17.768,5.68 0.919,-0.163 1.606,-0.918 1.699,-1.848 0.249,-2.51 0.737,-7.426 0.979,-9.846 0.332,-3.333 -1.035,-4.866 -0.801,-5.665 z"
               id="path4933"
               inkscape:connector-curvature="0"
               style="fill:#e0a380" /></g></g><path
           d="m 77.297,103.972 c 2.999,2.178 -1.218,11.034 -0.637,13.298 -0.871,0.377 -1.432,-2.549 -2.857,-2.465 -1.427,0.083 -0.232,1.898 -0.232,1.898 l 2.027,4.576 -0.182,3.269 c -1.587,-1.818 -11.934,-9.333 -10.953,-20.006 0.217,-3.267 2.923,-7.582 3.903,-6.669 0.98,0.913 8.106,2.981 8.931,6.099 z"
           id="path4939"
           inkscape:connector-curvature="0"
           style="fill:#60554f" /><path
           d="m 75.416,124.548 0.182,-3.269 -2.027,-4.576 c 0,0 -1.194,-1.815 0.232,-1.898 1.426,-0.083 1.986,2.842 2.857,2.465 -0.522,-2.039 2.825,-9.403 1.314,-12.445 l -0.886,0.117 c 0,0 -0.345,2.327 -2.011,4.449 -1.664,2.123 -3.936,0.602 -4.878,2.419 -0.942,1.817 -0.97,4.018 -0.97,4.018 -1.387,-1.556 -3.609,-7.257 -4.813,-10.527 -0.437,10.269 9.451,17.472 11,19.247 z"
           id="path4941"
           inkscape:connector-curvature="0"
           style="fill:#4f423c" /><path
           d="m 81.063,178.443 c 0.264,3.182 0.073,29.212 -4.079,38.143 -5.241,0.218 -17.663,-2.844 -19.663,-7.188 0,0 9.57,-18.582 8.928,-25.485 -0.642,-6.903 -3.872,-20.257 -3.872,-20.257 l -2.134,-30.623 c 0,0 9.788,-6.081 15.219,-7.279 l 0.148,1.834 -0.344,-0.081 -0.665,0.247 -1.452,1.752 -0.979,6.386 2.84,7.325 2.033,7.587 2.637,21.129 z"
           id="path4943"
           inkscape:connector-curvature="0"
           style="fill:#31393f" /><g
           id="g4947"><path
             d="m 62.376,163.655 c 0,0 1.838,7.6 3.017,14.297 l 3.585,-31.092 c 0.868,-7.63 -1.34,-11.122 -2.659,-12.847 -1.161,-1.52 -4.014,-1.907 -6.069,-0.875 z"
             id="path4945"
             inkscape:connector-curvature="0"
             style="fill:#222d33" /></g><path
           d="m 75.035,127.588 c -6.701,4.633 8.492,25.428 6.027,50.855 0,0 -4.079,-16.24 -8.95,-30.591 l 2.196,-4.213 -3.912,-0.765 c 0.211,-1.364 0.45,-14.147 4.639,-15.286 z"
           id="path4949"
           inkscape:connector-curvature="0"
           style="fill:#646f77" /><g
           id="g4963"><g
             id="g4953"><path
               d="m 58.09,143.116 c -0.444,2.944 -0.825,5.896 -1.239,8.845 l -1.134,8.857 c -0.392,2.951 -0.71,5.912 -1.064,8.867 l -1.039,8.87 -0.017,0.14 c -0.032,0.282 -0.03,0.58 -0.003,0.851 l 1.168,10.784 c 0.397,3.594 0.759,7.191 1.194,10.782 l 1.263,10.777 c 0.459,3.589 0.882,7.181 1.37,10.767 0.254,1.858 1.965,3.159 3.823,2.906 1.737,-0.237 2.06,-2.444 2.006,-4.159 -0.125,-3.617 0.612,-6.552 0.456,-10.167 l -0.578,-10.835 c -0.179,-3.612 -0.432,-7.219 -0.648,-10.828 l -0.674,-10.827 -0.02,0.989 1.199,-8.85 c 0.392,-2.951 0.819,-5.897 1.174,-8.853 l 1.104,-8.862 c 0.332,-2.958 0.697,-5.913 0.999,-8.875 0.263,-2.587 -1.622,-4.897 -4.209,-5.16 -2.506,-0.254 -4.754,1.518 -5.131,3.981 z"
               id="path4951"
               inkscape:connector-curvature="0"
               style="fill:#ffcbae" /></g><path
             d="m 58.686,223.084 c 0,0 -0.284,5.362 0.805,7.25 1.089,1.888 4.547,4.302 6.48,4.22 1.933,-0.081 2.613,-0.734 2.613,-0.734 -0.789,-1.771 -3.58,-3.66 -3.654,-6.768 -0.239,-1.892 0.551,-0.911 0.551,-0.503 0,0.408 0.626,2.206 1.171,2.587 0.544,0.381 0.796,0.218 0.653,-1.606 -0.144,-1.824 -0.082,-2.314 -0.463,-3.648 -0.381,-1.334 -1.731,-1.319 -2.104,-2.675 -0.373,-1.354 -0.237,-2.553 -0.237,-2.553 l -6.369,0.51 c -10e-4,-10e-4 0.748,1.706 0.554,3.92 z"
             id="path4955"
             inkscape:connector-curvature="0"
             style="fill:#ffcbae" /><g
             id="g4959"><path
               d="m 57.661,220.301 c 0.457,-0.348 1.317,0.884 3.245,1.09 1.77,0.189 4.629,-0.606 4.779,-1.675 0.502,-3.813 -2.712,-40.479 -2.712,-40.479 l 5.277,-32.056 c 1.235,-7.58 -0.802,-11.173 -2.035,-12.96 -1.58,-2.287 -6.843,-2.36 -8.201,1.035 -2.963,7.406 -6.72,40.083 -6.72,40.083 0,0 5.8,43.886 6.367,44.962 z"
               id="path4957"
               inkscape:connector-curvature="0"
               style="fill:#31393f" /></g><path
             d="m 66.274,134.308 c 0.752,2.273 1.201,5.58 0.412,10.454 l -5.551,33.967 c 0,0 2.884,36.363 2.585,42.351 1.039,-0.307 1.885,-0.796 1.965,-1.363 0.502,-3.813 -2.712,-40.479 -2.712,-40.479 l 5.277,-32.056 c 1.217,-7.465 -0.737,-11.06 -1.976,-12.874 z"
             id="path4961"
             inkscape:connector-curvature="0"
             style="fill:#283035" /></g><path
           d="m 76.316,106.09 c 3.972,-3.316 5.02,8.083 17.798,-4.514 0.935,-2.505 -2.371,-7.543 -9.648,-9.435 -7.278,-1.892 -14.283,0.551 -17.37,4.498 -2.556,3.268 1.706,2.868 4.103,3.63 2.395,0.762 5.117,5.821 5.117,5.821 z"
           id="path4965"
           inkscape:connector-curvature="0"
           style="fill:#60554f" /><path
           d="m 94.114,101.576 c 0.567,-1.521 -0.437,-3.971 -2.933,-6.088 -0.092,1.762 1.682,3.912 -0.587,6.861 -2.271,2.952 -7.796,2.271 -9.454,1.968 -1.658,-0.303 -3.337,-1.06 -4.824,1.773 3.891,-2.945 5.02,8.083 17.798,-4.514 z"
           id="path4967"
           inkscape:connector-curvature="0"
           style="fill:#4f423c" /><ellipse
           transform="matrix(0.86,0.5103,-0.5103,0.86,71.2045,-32.783)"
           stroke-miterlimit="10"
           cx="95.341003"
           cy="113.361"
           rx="2.184"
           ry="3.4189999"
           id="ellipse4969"
           style="fill:#efd1bd;stroke:#4e4f4f;stroke-width:0.51920003;stroke-miterlimit:10" /><ellipse
           transform="matrix(0.8599,0.5104,-0.5104,0.8599,72.5812,-27.5284)"
           stroke-miterlimit="10"
           cx="86.445"
           cy="118.472"
           rx="2.184"
           ry="3.4189999"
           id="ellipse4971"
           style="fill:#efd1bd;stroke:#4e4f4f;stroke-width:0.51920003;stroke-miterlimit:10" /><line
           stroke-miterlimit="10"
           x1="89.003998"
           y1="117.451"
           x2="92.857002"
           y2="115.226"
           id="line4973"
           style="fill:none;stroke:#4e4f4f;stroke-width:0.51920003;stroke-miterlimit:10" /><line
           stroke-miterlimit="10"
           x1="83.947998"
           y1="120.091"
           x2="74.393997"
           y2="114.173"
           id="line4975"
           style="fill:#efd1bd;stroke:#4e4f4f;stroke-width:0.43560001;stroke-miterlimit:10" /><g
           id="g4981"><path
             d="m 73.803,114.805 c -2.105,-2.192 -4.773,-0.314 -3.049,2.295 0.37,0.561 1.188,0.888 1.479,1.407 0.163,0.29 0.319,0.536 0.474,0.762 0.485,0.403 0.991,0.896 1.444,1.362 0.556,0.198 1.027,-0.041 1.418,-0.481 z"
             id="path4977"
             inkscape:connector-curvature="0"
             style="opacity:0.4;fill:#d39779" /><path
             d="m 75.429,114.922 c -1.326,-2.735 -4.444,-1.771 -3.608,1.243 0.18,0.647 0.857,1.211 0.974,1.794 0.584,2.921 1.652,3.188 2.667,2.591"
             id="path4979"
             inkscape:connector-curvature="0"
             style="fill:#eab18b" /></g></g><path
         d="m 78.289,105.851 c 0,0 -6.692,-3.388 -8.821,-5.148 0,0 5.365,3.236 7.493,3.378 2.129,0.142 3.662,0.553 3.775,0.745 0.113,0.192 -2.367,0.192 -2.367,0.192 l -0.613,0.227 z"
         id="path4985"
         inkscape:connector-curvature="0"
         style="fill:#4f423c" /></g><g
       id="g5095"><path
         d="m 335.998,210.993 c 0,0 1.763,-1.418 4.564,0 2.802,1.417 -2.282,3.013 -2.282,3.013 l -2.282,-1.159 z"
         id="path4989"
         inkscape:connector-curvature="0"
         style="fill:#eab18b" /><polygon
         points="338.041,227.68 341.776,193.604 374.233,195.701 370.477,230.766 "
         id="polygon4991"
         style="fill:#cccccc" /><polygon
         points="338.041,227.68 369.116,230.636 372.587,198.241 342.151,195.315 "
         id="polygon4993"
         style="fill:#b7b3b2" /><polygon
         points="335.998,229.736 339.732,195.661 372.189,197.759 368.433,232.822 "
         id="polygon4995"
         style="fill:#cccccc" /><path
         d="m 317.092,108.233 c 0,0 4.146,3.369 1.868,9.172 -1.002,5.791 -3.86,-9.504 -3.86,-9.504 z"
         id="path4997"
         inkscape:connector-curvature="0"
         style="fill:#3d3c3b" /><ellipse
         transform="rotate(-42.726554,295.9304,125.78457)"
         cx="295.939"
         cy="125.785"
         rx="5.8369999"
         ry="7.3119998"
         id="ellipse4999"
         style="fill:#3d3c3b" /><g
         id="g5007"><path
           d="m 329.937,207.938 c 0,0 1.326,5.979 1.06,6.756 l -2.072,10.063 c -0.119,0.399 -0.612,0.541 -0.926,0.266 l -2.882,-2.525 0.89,-14.559 h 1.615 2.315 z"
           id="path5001"
           inkscape:connector-curvature="0"
           style="fill:#eab18b" /><path
           d="m 325.614,192.239 c 0,0 1.924,10.008 4.322,15.698 -0.621,1.47 -3.102,10.438 -3.604,8.924 -3.225,-9.735 -7.054,-18.715 -7.054,-18.715 z"
           id="path5003"
           inkscape:connector-curvature="0"
           style="fill:#eab18b" /><path
           d="m 330.052,219.277 c -0.57,-0.008 -1.286,-3.464 -1.286,-4.833 0,0 -0.26,6.274 1.286,4.833 z"
           id="path5005"
           inkscape:connector-curvature="0"
           style="fill:#d1916d" /></g><g
         id="g5011"><path
           d="m 313.206,177.86 c -0.05,-0.174 -0.081,-0.351 -0.094,-0.531 -0.229,-3.25 -2.063,-34.765 -1.73,-37.591 0.425,-3.606 2.116,-7.104 5.889,-6.976 2.974,0.102 7.046,4.621 7.164,10.25 0.118,5.628 -1.238,32.568 -1.279,34.061 0,0 3.663,14.454 3.634,16.75 l -6.714,4.393 z"
           id="path5009"
           inkscape:connector-curvature="0"
           style="fill:#3898a8" /></g><g
         id="g5043"><path
           d="m 309.454,308.805 c 2.749,-15 -3.45,-39.948 -1.346,-51.956 0,0 -3.555,-31.094 -3.822,-45.244 -0.267,-14.15 5.364,-24.643 5.364,-24.643 0,0 10.355,0.699 13.377,1.797 0,0 10.313,27.573 -1.141,70.913 0.713,2.469 -4.899,37.805 -3.835,50.237 0.679,4.661 4.536,14.96 4.578,16.723 0.043,1.762 -4.534,2.574 -4.938,2.447 -0.404,-0.127 -2.479,-0.354 -2.479,-0.607 0,-0.255 -4.513,-14.07 -4.513,-14.07 0,0 -1.092,-4.026 -1.13,-4.153 -0.036,-0.129 -0.115,-1.444 -0.115,-1.444 z"
           id="path5013"
           inkscape:connector-curvature="0"
           style="fill:#f2c1a5" /><path
           d="m 323.027,188.759 c -0.932,-0.339 -2.563,-0.64 -4.372,-0.894 1.651,11.889 4.938,42.144 -0.54,64.533 -0.265,2.232 -0.206,5.201 -0.235,6.102 -0.029,0.899 0.084,3.996 -2.754,4.662 0,0 1.029,1.119 3.012,0.949 0,0 -2.415,35.971 -2.354,38.848 0.062,2.876 -1.661,5.524 1.281,11.655 2.942,6.13 2.767,12.202 5.132,12.934 0.274,-0.271 0.442,-0.575 0.434,-0.916 -0.042,-1.763 -3.899,-12.062 -4.578,-16.723 -1.064,-12.433 4.548,-47.769 3.835,-50.237 11.452,-43.34 1.139,-70.913 1.139,-70.913 z"
           id="path5015"
           inkscape:connector-curvature="0"
           style="fill:#e5a98f" /><g
           id="g5023"><path
             d="m 309.23,325.625 v 0 c -0.461,0 -0.834,-0.373 -0.834,-0.834 v -12.717 h 1.22 v 13.164 c 0,0.214 -0.173,0.387 -0.386,0.387 z"
             id="path5017"
             inkscape:connector-curvature="0"
             style="fill:#44a3b2" /><path
             d="m 309.851,305.866 c 0,0 -2.419,0.358 -2.419,5.168 0,4.809 2.579,3.875 3.226,6.101 0.646,2.225 2.655,11.875 6.244,13.007 3.589,1.132 6.747,2.415 9.259,1.976 1.053,-0.222 0.358,-1.92 -0.359,-2.314 -0.614,-0.338 -2.754,-3.875 -3.357,-4.887 -0.06,-0.102 -0.211,-0.092 -0.254,0.018 -0.227,0.576 -1.896,1.911 -3.58,1.746 -2.188,-0.216 -3,-1.055 -8.886,-19.122 z"
             id="path5019"
             inkscape:connector-curvature="0"
             style="fill:#53aec4" /><path
             d="m 326.425,330.944 c -2.512,0.439 -5.67,-0.844 -9.259,-1.976 -3.588,-1.133 -5.598,-10.782 -6.244,-13.008 -0.646,-2.225 -3.226,-1.292 -3.226,-6.101 0,-0.633 0.044,-1.184 0.116,-1.672 -0.229,0.711 -0.381,1.638 -0.381,2.846 0,4.809 2.579,3.875 3.226,6.101 0.646,2.225 2.655,11.875 6.244,13.007 3.589,1.132 6.747,2.415 9.259,1.976 0.581,-0.122 0.621,-0.694 0.428,-1.249 -0.055,0.027 -0.096,0.062 -0.163,0.076 z"
             id="path5021"
             inkscape:connector-curvature="0"
             style="fill:#44a3b2" /></g><path
           d="m 309.473,257.611 c 0.987,-30.066 5.895,-32.344 1.275,-61.882 -0.784,-5.013 -18.477,-1.38 -18.477,-1.38 -4.141,2.649 -5.98,9.637 -5.348,17.259 0.981,11.825 11.267,34.859 8.785,45.923 -6.03,17.854 0.896,41.099 -1.662,56.784 0.096,0.281 -0.184,0.763 -0.067,1.014 0.016,10.459 -1.636,18.68 0.8,21.324 1.843,2 5.833,4.083 7.283,0.985 0.54,-1.155 0.096,-5.223 0.004,-7.117 0.033,-3.616 -0.77,-8.221 -0.864,-14.239 0.081,-0.273 0.143,-0.563 0.161,-0.89 0,10e-4 4.826,-31.699 8.11,-57.781 z"
           id="path5025"
           inkscape:connector-curvature="0"
           style="fill:#f2c1a5" /><path
           d="m 309.473,257.611 c 0.987,-30.066 5.895,-32.344 1.275,-61.882 -0.381,-2.436 -5.118,-3.142 -9.889,-3.226 1.726,11.139 5.716,40.646 3.417,62.592 0.348,2.487 0.987,2.277 0.696,3.404 -0.292,1.127 -0.179,2.659 -2.79,2.887 -2.61,0.227 0.221,3.065 2.863,2.271 0,0 -4.263,47.021 -5.55,51.563 -1.287,4.542 2.687,16.841 1.438,19.565 -1.249,2.726 -2.365,2.111 -2.726,3.065 -0.097,0.259 -0.073,0.652 0.013,1.095 1.529,0.522 3.057,0.369 3.841,-1.307 0.54,-1.155 0.096,-5.223 0.004,-7.117 0.033,-3.616 -0.77,-8.221 -0.864,-14.239 0.081,-0.273 0.143,-0.563 0.161,-0.89 10e-4,10e-4 4.827,-31.699 8.111,-57.781 z"
           id="path5027"
           inkscape:connector-curvature="0"
           style="fill:#e5a98f" /><path
           d="m 294.106,313.935 c 0,0 -0.633,15.469 0.624,20.206 0.91,3.427 5.014,4.102 6.788,1.573 0.854,-1.216 0.377,-5.038 0.507,-7.146 0,0 0.627,5.103 0.793,7.661 0.061,0.941 -0.027,1.881 -0.26,2.795 l -1.354,5.322 c -0.225,0.883 -1.02,1.501 -1.931,1.501 h -0.912 c -0.746,0 -1.43,-0.417 -1.771,-1.08 l -2.621,-5.088 c -0.979,-1.902 -1.429,-4.028 -1.285,-6.163 0.221,-3.297 1.418,-7.603 -0.376,-12.215 -1.003,-1.925 0.462,-7.09 1.798,-7.366 z"
           id="path5029"
           inkscape:connector-curvature="0"
           style="fill:#53aec4" /><g
           id="g5033"><path
             d="m 299.991,344.485 h -0.912 c -0.746,0 -1.43,-0.417 -1.771,-1.08 l -2.621,-5.088 c -0.979,-1.902 -1.429,-4.028 -1.285,-6.163 0.221,-3.297 1.418,-7.603 -0.376,-12.215 -0.606,-1.162 -0.172,-3.526 0.561,-5.285 -1.099,1.598 -2.065,5.138 -1.277,6.647 1.794,4.612 0.597,8.918 0.376,12.215 -0.144,2.135 0.306,4.261 1.285,6.163 l 2.621,5.088 c 0.341,0.663 1.024,1.08 1.771,1.08 h 0.912 c 0.911,0 1.706,-0.618 1.931,-1.501 l 0.091,-0.355 c -0.355,0.308 -0.811,0.494 -1.306,0.494 z"
             id="path5031"
             inkscape:connector-curvature="0"
             style="fill:#44a3b2" /></g><path
           d="m 323.33,187.994 c 0,0 -26.453,3.609 -30.906,6.291 -2.993,1.802 -6.354,5.863 -6.354,14.838 0,9.944 10.83,38.598 9.438,47.049 0.208,0.8 1.198,1.404 2.664,1.801 0.4,-3.085 0.98,-8.609 0.448,-11.505 0,0 2.231,6.043 2.187,11.942 4.229,0.37 10.166,-0.384 14.809,-2.578 6.455,-3.051 9.531,-9.271 9.705,-10.171 -0.001,0 7.143,-27.201 -1.991,-57.667 z"
           id="path5035"
           inkscape:connector-curvature="0"
           style="fill:#54737a" /><path
           d="m 306.827,190.616 c -6.307,1.147 -12.457,2.497 -14.403,3.669 -0.884,0.532 -1.798,1.269 -2.649,2.263 -0.67,1.711 -1.603,3.4 -2.672,5.007 -0.635,2.024 -1.033,4.504 -1.033,7.568 0,2.802 0.859,7.089 2.063,11.99 9.618,4.431 17.038,2.527 17.038,2.527 z"
           id="path5037"
           inkscape:connector-curvature="0"
           style="fill:#3e6268" /><path
           d="m 327.207,207.062 c -0.689,-6.042 -1.901,-12.478 -3.877,-19.067 0,0 -26.453,3.609 -30.906,6.291 -0.702,0.423 -1.423,0.976 -2.117,1.681 -1.09,4.351 -2.558,8.546 -4.203,11.729 -0.02,0.463 -0.034,0.936 -0.034,1.428 0,0.132 0.01,0.279 0.014,0.417 4.829,4.655 19.511,7 25.681,6.452 8.954,-0.795 14.117,-4.781 15.442,-8.931 z"
           id="path5039"
           inkscape:connector-curvature="0"
           style="fill:#3e6268" /><path
           d="m 323.33,187.994 c 0,0 -0.107,0.009 -0.3,0.025 5.115,35.416 -5.104,65.285 -5.104,65.285 -0.073,0.262 -0.39,0.92 -0.93,1.791 5.51,-3.217 8.163,-8.603 8.323,-9.435 10e-4,0.001 7.145,-27.2 -1.989,-57.666 z"
           id="path5041"
           inkscape:connector-curvature="0"
           style="fill:#3e6268" /></g><path
         d="m 300.271,136.569 c -1.53,0.519 -5.9,2.062 -9.635,3.975 -3.85,1.972 -3.373,5.099 -3.303,9.423 0.128,7.966 1.57,17.213 6.517,24.933 2.976,4.645 -1.35,21.917 -5.888,29.737 3.575,4.503 17.522,6.793 23.227,6.287 10.329,-0.916 14.968,-6.641 13.767,-11.217 0,0 -4.279,-19.434 -4.626,-25.48 -0.295,-5.158 0.708,-10.714 1.465,-13.144 3.443,-0.666 5.472,-4.954 2.194,-14.411 -0.167,-2.79 -2.408,-11.001 -10.127,-12.417 -6.303,1.599 -10.664,1.592 -12.513,2.01 -0.378,0.086 -0.712,0.18 -1.078,0.304 z"
         id="path5045"
         inkscape:connector-curvature="0"
         style="fill:#d2f9ff" /><path
         d="m 316.071,168.994 9.045,38.943 c 0,0 5.915,-0.418 6.426,-3.301 0,0 -8.765,-23.315 -8.865,-31.035 -0.1,-7.72 3.957,-12.21 3.733,-18.461 -0.258,-7.159 -4.568,-18.064 -9.318,-21.5 -4.509,-3.261 -5.75,-0.175 -5.75,-0.175 z"
         id="path5047"
         inkscape:connector-curvature="0"
         style="fill:#6abed8" /><path
         d="m 322.677,173.602 c -0.1,-7.72 3.957,-12.21 3.733,-18.461 -0.257,-7.159 -4.568,-18.064 -9.318,-21.5 -0.018,-0.013 -0.033,-0.021 -0.051,-0.034 4.053,4.85 7.394,14.428 7.621,21.031 0.23,6.673 -3.938,11.465 -3.835,19.705 0.093,7.414 7.391,28.296 8.853,32.408 0.937,-0.488 1.694,-1.166 1.862,-2.115 0,0.001 -8.765,-23.315 -8.865,-31.034 z"
         id="path5049"
         inkscape:connector-curvature="0"
         style="fill:#59b2c6" /><path
         d="m 314.608,132.553 c 0,0 -0.747,5.063 -0.747,7.305 l 3.906,0.054 -1.696,29.083 -4.729,-35.073 z"
         id="path5051"
         inkscape:connector-curvature="0"
         style="fill:#a1e7f7" /><g
         id="g5065"><path
           d="m 300.724,127.863 c 0,0 0.496,5.428 -0.846,10.795 2.281,3.623 10.333,5.501 11.809,1.342 0,0 -0.401,-3.708 1.142,-6.349 1.541,-2.641 -12.105,-5.788 -12.105,-5.788 z"
           id="path5053"
           inkscape:connector-curvature="0"
           style="fill:#eab18b" /><path
           d="m 300.724,127.863 c 0,0 0.148,1.637 0.062,3.996 0.743,0.761 1.329,1.445 1.329,1.445 2.858,3.882 6.27,5.58 9.54,6.208 -0.05,-1.087 -0.033,-3.796 1.173,-5.861 1.542,-2.641 -12.104,-5.788 -12.104,-5.788 z"
           id="path5055"
           inkscape:connector-curvature="0"
           style="fill:#d39775" /><path
           d="m 316.898,108.39 c 0,0 3.028,5.292 3.028,11.03 -0.224,0.765 1.084,2.231 0.765,5.419 -0.231,2.315 -0.698,7.018 -0.937,9.419 -0.088,0.889 -0.745,1.612 -1.626,1.768 -4.648,0.82 -12.086,1.294 -17.521,-6.086 0,0 -2.614,-3.061 -3.825,-3.443 -1.212,-0.383 -5.966,-6.448 -5.966,-11.358 0,-5.202 2.873,-13.092 13.553,-13.092 8.699,0 12.529,6.343 12.529,6.343 z"
           id="path5057"
           inkscape:connector-curvature="0"
           style="fill:#eab18b" /><g
           id="g5063"><path
             d="m 319.927,119.42 c 0,-5.738 -3.028,-11.03 -3.028,-11.03 0,0 -1.469,-2.422 -4.642,-4.273 1.796,1.483 2.652,2.883 2.652,2.883 0,0 4.436,5.589 4.436,11.328 -0.223,0.765 1.048,1.802 0.729,4.99 -0.231,2.315 -1.519,7.355 -1.756,9.756 -0.089,0.889 -0.746,1.612 -1.626,1.768 -3.357,0.592 -8.719,0.782 -13.181,-1.815 4.966,4.109 10.754,3.682 14.617,3 0.881,-0.156 1.538,-0.878 1.626,-1.768 0.238,-2.401 0.705,-7.104 0.937,-9.419 0.32,-3.189 -0.988,-4.655 -0.764,-5.42 z"
             id="path5059"
             inkscape:connector-curvature="0"
             style="fill:#e0a380" /><path
             d="m 295.727,125.667 c 0.323,0.332 0.604,0.574 0.827,0.712 -0.28,-0.26 -0.56,-0.504 -0.827,-0.712 z"
             id="path5061"
             inkscape:connector-curvature="0"
             style="fill:#dd9e7a" /></g></g><path
         d="m 300.542,130.094 c -6.692,-3.598 -12.794,-12.896 -9.909,-20.449 2.885,-7.553 12.063,-9.335 17.708,-8.086 5.646,1.249 8.751,6.675 8.751,6.675 -0.094,0.623 2.483,4.761 1.861,4.543 1.712,5.603 -15.551,-0.469 -16.465,1.938 2.283,2.698 5.162,7.616 -2.06,11.29 0,0 -0.14,-2.47 -1.634,-3.777 -1.494,-1.308 -1.607,0.885 -0.932,1.57 0.677,0.684 2.68,6.296 2.68,6.296 z"
         id="path5067"
         inkscape:connector-curvature="0"
         style="fill:#3d3c3b" /><g
         id="g5073"><path
           d="m 298.741,122.88 c -2.012,-2.095 -4.562,-0.3 -2.914,2.193 0.354,0.536 1.136,0.849 1.413,1.345 0.155,0.277 0.306,0.512 0.452,0.728 0.465,0.385 0.948,0.855 1.381,1.301 0.531,0.189 0.981,-0.039 1.355,-0.46 z"
           id="path5069"
           inkscape:connector-curvature="0"
           style="opacity:0.4;fill:#d39779" /><path
           d="m 300.295,122.992 c -1.268,-2.613 -4.247,-1.692 -3.448,1.188 0.172,0.619 0.818,1.157 0.93,1.714 0.559,2.792 1.58,3.046 2.549,2.476"
           id="path5071"
           inkscape:connector-curvature="0"
           style="fill:#eab18b" /></g><circle
         cx="299.21799"
         cy="128.367"
         r="0.77700001"
         id="circle5075"
         style="fill:#fcf5ff" /><path
         d="m 310.541,171.65 -2.283,45.52 c 0,0 -14.07,3.622 -28.58,-10.686 0,0 14.427,-11.591 14.262,-21.719 -0.167,-10.127 -6.662,-20.597 -7.438,-24.506 -2.895,-14.607 -0.496,-14.235 -0.081,-16.643 0.415,-2.407 7.405,-5.323 13.624,-7.201 0,0 -0.697,0.907 -0.51,1.681 0.281,1.163 0.46,4.206 0.46,4.206 l 4.256,14.821 4.305,8.384 z"
         id="path5077"
         inkscape:connector-curvature="0"
         style="fill:#6abed8" /><path
         d="m 309.803,186.367 c -3.702,-5.363 -4.77,-7.765 -4.77,-7.765 -0.478,-1.415 -5.572,-24.427 -7.628,-29.668 -2.056,-5.242 -4.08,-8.472 -8.064,-7.615 -0.63,0.136 -1.235,0.374 -1.801,0.691 -0.623,0.548 -1.029,1.09 -1.119,1.606 -0.345,2.002 -2.06,2.09 -0.963,10.459 1.524,4.87 3.976,12.5 6.079,19.014 0.316,0.898 0.615,1.817 0.891,2.754 1.754,5.425 3.084,9.514 3.084,9.514 l 13.498,16.827 z"
         id="path5079"
         inkscape:connector-curvature="0"
         style="fill:#4196aa" /><g
         id="g5091"><path
           d="m 342.967,214.009 c -1.644,-0.539 -4.452,-1.574 -5.001,-2.505 -0.786,-1.332 -1.521,0.166 -3.988,-1.899 -4.639,-4.076 -10.866,-14.289 -10.866,-14.289 l -6.349,6.164 c 0,0 7.022,4.803 14.009,11.883 0.139,0.21 2.818,4.246 3.093,4.448 0.281,0.207 6.794,1.922 8.258,0.642 0.804,-0.702 1.342,-1.861 1.664,-2.764 0.246,-0.695 -0.12,-1.451 -0.82,-1.68 z"
           id="path5081"
           inkscape:connector-curvature="0"
           style="fill:#eab18b" /><path
           d="m 342.967,214.009 c -1.644,-0.539 -4.452,-1.574 -5.001,-2.505 -0.786,-1.332 -1.521,0.166 -3.988,-1.899 -4.639,-4.076 -10.866,-14.289 -10.866,-14.289 l -0.886,0.861 c 0.421,0.687 6.368,10.316 10.84,14.246 2.467,2.065 3.202,0.567 3.988,1.899 0.549,0.931 3.356,1.966 5,2.505 0.7,0.229 1.067,0.985 0.82,1.68 -0.241,0.676 -0.604,1.496 -1.108,2.16 0.138,-0.06 0.26,-0.13 0.356,-0.215 0.804,-0.702 1.342,-1.861 1.664,-2.764 0.247,-0.694 -0.119,-1.45 -0.819,-1.679 z"
           id="path5083"
           inkscape:connector-curvature="0"
           style="fill:#d89b79" /><g
           id="g5087"><path
             d="m 299.065,184.655 c 0,0 -14.038,-32.051 -14.972,-34.739 -1.189,-3.432 1.165,-7.408 4.507,-8.48 3.881,-1.245 6.213,1.772 8.773,6.787 2.56,5.015 9.89,27.414 10.503,28.775 0,0 3.466,6.111 17.529,20.156 -1.902,7.318 -7.475,6.789 -7.475,6.789 z"
             id="path5085"
             inkscape:connector-curvature="0"
             style="fill:#4bafc6" /></g><path
           d="m 293.104,149.933 c 2.866,5.266 11.679,28.479 12.378,29.902 0,0 3.757,6.317 18.112,21.246 0.725,-0.959 1.369,-2.224 1.813,-3.927 -14.063,-14.045 -17.529,-20.156 -17.529,-20.156 -0.613,-1.361 -7.943,-23.761 -10.503,-28.775 -2.561,-5.015 -4.893,-8.031 -8.773,-6.787 -0.693,0.223 -1.341,0.575 -1.926,1.017 2.364,0.77 4.293,3.558 6.428,7.48 z"
           id="path5089"
           inkscape:connector-curvature="0"
           style="fill:#44abbc" /></g><path
         d="m 297.083,143.064 3.346,2.448 -1.909,5.553 12.021,20.586 -10.496,-35.234 c -2.533,0.965 -2.962,6.647 -2.962,6.647 z"
         id="path5093"
         inkscape:connector-curvature="0"
         style="fill:#a1e7f7" /></g></g><g
     id="DESIGNED_BY_FREEPIK"
     transform="translate(2.3410911e-4,-0.00739573)" /></svg>