<?xml version="1.0" encoding="utf-8"?>
<!-- Generator: Adobe Illustrator 19.0.0, SVG Export Plug-In . SVG Version: 6.00 Build 0)  -->
<svg version="1.1" id="Layer_1" xmlns="http://www.w3.org/2000/svg" xmlns:xlink="http://www.w3.org/1999/xlink" x="0px" y="0px"
	 viewBox="0 0 567 634" style="enable-background:new 0 0 567 634;" xml:space="preserve">
<style type="text/css">
	.st0{fill:#CCCCCC;}
	.st1{fill:#E6E6E6;}
	.st2{fill:#B3B3B3;}
	.st3{fill:#FFFFFF;}
	.st4{fill:#666666;}
	.st5{fill:#29ABE2;}
	.st6{fill:#D4EEF9;}
	.st7{fill:#155671;}
	.st8{fill:#E3F6FF;}
	.st9{fill:#269ACB;}
	.st10{fill:#A4C5D2;}
</style>
<g id="XMLID_272_">
</g>
<g id="Layer_2">
</g>
<g id="XMLID_446_">
	<path id="XMLID_354_" class="st0" d="M105.3,466.7"/>
	<path id="XMLID_366_" class="st0" d="M384,537.3v-4.2l-7.3-1L296,485.5c-2.3-1.3-5.9-1.3-8.2,0L241.8,512l-4.3-0.9l0.1,4.5l0,0
		c-0.1,1.1,0.2,2.4,1.3,3l86.7,50.1c2.3,1.3,6.1,1.2,8.4-0.2l48.5-28.3C383.9,539.6,384,538.3,384,537.3z"/>
	<path id="XMLID_358_" class="st1" d="M325.9,563.8l-86.7-50.1c-1.1-0.6-1.7-1.5-1.7-2.3c0-0.9,0.5-1.8,1.7-2.5l48.6-28.1
		c2.3-1.3,6-1.3,8.3,0l86.7,50.1c2.3,1.3,2.3,3.5,0,4.8l-48.6,28.1C331.9,565.1,328.2,565.1,325.9,563.8z"/>
	<polygon id="XMLID_352_" class="st2" points="291.2,420.7 287.5,423.2 292,432 292,505.3 339,532.5 341.5,539.2 345,536.6 345,452 
			"/>
	<polygon id="XMLID_347_" class="st0" points="342,539.3 287.7,507.9 287.7,423.3 342,454.7 	"/>
	<path id="XMLID_337_" class="st1" d="M559.6,262.8L105.9,0.8c-1.5-0.9-2.8-1-3.9-0.6l0,0.1v0c0,0.1-0.7,0.2-1,0.3l-9.7,4.6l7.7,10
		v330.3c0,5.3,3.1,11.7,7.1,14l434.7,251.1l12.4,16.8l10.3-5.1c2-0.6,3.5-2.7,3.5-6.1V276.8C567,271.5,563.6,265.1,559.6,262.8z"/>
	<path id="XMLID_324_" class="st3" d="M549,626.5L95.4,364.6c-4-2.3-7.3-8.6-7.3-13.9V11.3c0-5.3,3.3-7.8,7.3-5.5L549,267.7
		c4,2.3,7.3,8.6,7.3,13.9V621C556.3,626.3,553,628.8,549,626.5z"/>
	<polygon id="XMLID_349_" class="st4" points="545.4,609.1 99,351.4 99,23.2 545.4,280.9 	"/>
	<polygon id="XMLID_353_" class="st5" points="545.4,316 99,58.3 99,23.8 545.4,281.5 	"/>
	<polygon id="XMLID_360_" class="st6" points="545.7,530.6 99.3,272.9 99.3,58.5 545.7,316.2 	"/>
	<polygon id="XMLID_361_" class="st7" points="545.4,609.1 99,351.4 99,272.7 545.4,530.4 	"/>
	<polygon id="XMLID_367_" class="st8" points="267.7,448.9 179.7,398.1 179.7,353 267.7,403.8 	"/>
	<polygon id="XMLID_368_" class="st8" points="366.1,506.5 278.2,455.7 278.2,410.5 366.1,461.3 	"/>
	<polygon id="XMLID_369_" class="st8" points="465.1,563.1 377.1,512.3 377.1,467.2 465.1,517.9 	"/>
	<path id="XMLID_372_" class="st6" d="M187.5,101.8l-1-0.6c-4-2.3-7.2-8.5-7.2-13.8v0c0-5.3,3.2-7.8,7.2-5.5l1,0.6
		c4,2.3,7.2,8.5,7.2,13.8v0C194.7,101.6,191.5,104.1,187.5,101.8z"/>
	<g id="XMLID_421_">
		<path id="XMLID_374_" class="st6" d="M402.1,222l-15.2-8.8c-1.5-0.9-2.8-3.3-2.8-5.3v-4.4c0-2.1,1.2-3,2.8-2.1l15.2,8.8
			c1.5,0.9,2.8,3.3,2.8,5.3v4.4C404.9,221.9,403.7,222.9,402.1,222z"/>
		<path id="XMLID_375_" class="st6" d="M431.6,239l-15.2-8.8c-1.5-0.9-2.8-3.3-2.8-5.3v-4.4c0-2.1,1.2-3,2.8-2.1l15.2,8.8
			c1.5,0.9,2.8,3.3,2.8,5.3v4.4C434.4,238.9,433.1,239.9,431.6,239z"/>
		<path id="XMLID_376_" class="st6" d="M461.9,256.5l-15.2-8.8c-1.5-0.9-2.8-3.3-2.8-5.3V238c0-2.1,1.2-3,2.8-2.1l15.2,8.8
			c1.5,0.9,2.8,3.3,2.8,5.3v4.4C464.7,256.4,463.4,257.4,461.9,256.5z"/>
	</g>
	<path id="XMLID_377_" class="st7" d="M297.2,280.9l-80.8-46.6c-1.1-0.6-2-2.4-2-3.9v-16.9c0-1.5,0.9-2.2,2-1.5l80.8,46.6
		c1.1,0.6,2,2.4,2,3.9v16.9C299.2,280.8,298.3,281.5,297.2,280.9z"/>
	<g id="XMLID_412_">
		<path id="XMLID_406_" class="st9" d="M232.9,266.8l-18.4-10.6c-0.5-0.3-0.9-1.1-0.9-1.7v-3.2c0-0.7,0.4-1,0.9-0.7l18.4,10.6
			c0.5,0.3,0.9,1.1,0.9,1.7v3.2C233.8,266.8,233.4,267.1,232.9,266.8z"/>
		<path id="XMLID_405_" class="st9" d="M245.3,274l-8.3-4.8c-0.5-0.3-0.9-1.1-0.9-1.7v-3.2c0-0.7,0.4-1,0.9-0.7l8.3,4.8
			c0.5,0.3,0.9,1.1,0.9,1.7v3.2C246.2,274,245.8,274.3,245.3,274z"/>
		<path id="XMLID_409_" class="st9" d="M265.9,285.9l-16.3-9.4c-0.5-0.3-0.9-1.1-0.9-1.7v-3.2c0-0.7,0.4-1,0.9-0.7l16.3,9.4
			c0.5,0.3,0.9,1.1,0.9,1.7v3.2C266.8,285.9,266.4,286.2,265.9,285.9z"/>
		<path id="XMLID_408_" class="st9" d="M290.2,299.9l-20.4-11.8c-0.5-0.3-0.9-1.1-0.9-1.7v-3.2c0-0.7,0.4-1,0.9-0.7l20.4,11.8
			c0.5,0.3,0.9,1.1,0.9,1.7v3.2C291.1,299.9,290.7,300.2,290.2,299.9z"/>
		<path id="XMLID_407_" class="st9" d="M299.1,305.1l-5.1-2.9c-0.5-0.3-0.9-1.1-0.9-1.7v-3.2c0-0.7,0.4-1,0.9-0.7l5.1,2.9
			c0.5,0.3,0.9,1.1,0.9,1.7v3.2C300,305,299.6,305.3,299.1,305.1z"/>
	</g>
	<g id="XMLID_411_">
		<path id="XMLID_378_" class="st9" d="M227.5,252.9l-16.3-9.4c-0.5-0.3-0.9-1.1-0.9-1.7v-3.2c0-0.7,0.4-1,0.9-0.7l16.3,9.4
			c0.5,0.3,0.9,1.1,0.9,1.7v3.2C228.4,252.9,228,253.2,227.5,252.9z"/>
		<path id="XMLID_379_" class="st9" d="M251.8,266.9l-20.4-11.8c-0.5-0.3-0.9-1.1-0.9-1.7v-3.2c0-0.7,0.4-1,0.9-0.7l20.4,11.8
			c0.5,0.3,0.9,1.1,0.9,1.7v3.2C252.7,266.9,252.3,267.2,251.8,266.9z"/>
		<path id="XMLID_381_" class="st9" d="M260.7,272.1l-5.1-2.9c-0.5-0.3-0.9-1.1-0.9-1.7v-3.2c0-0.7,0.4-1,0.9-0.7l5.1,2.9
			c0.5,0.3,0.9,1.1,0.9,1.7v3.2C261.6,272.1,261.2,272.4,260.7,272.1z"/>
		<path id="XMLID_382_" class="st9" d="M281.1,283.8l-16.3-9.4c-0.5-0.3-0.9-1.1-0.9-1.7v-3.2c0-0.7,0.4-1,0.9-0.7l16.3,9.4
			c0.5,0.3,0.9,1.1,0.9,1.7v3.2C282,283.8,281.6,284.1,281.1,283.8z"/>
		<path id="XMLID_383_" class="st9" d="M302.4,296.1l-16.3-9.4c-0.5-0.3-0.9-1.1-0.9-1.7v-3.2c0-0.7,0.4-1,0.9-0.7l16.3,9.4
			c0.5,0.3,0.9,1.1,0.9,1.7v3.2C303.3,296.1,302.9,296.4,302.4,296.1z"/>
	</g>
	<path id="XMLID_410_" class="st5" d="M451.6,431l-76.1-43.9c-7.8-4.5-14.1-16.5-14.1-26.9v-75.1c0-10.4,6.3-15.1,14.1-10.6
		l76.1,43.9c7.8,4.5,14.1,16.5,14.1,26.9v75.1C465.7,430.7,459.4,435.5,451.6,431z"/>
</g>
<g id="XMLID_447_">
	<g id="XMLID_348_">
		<path id="XMLID_404_" class="st1" d="M311.1,370.8l-256-148.1c-1-0.6-2.1-0.4-2.6-0.7l0,0l-0.1,0.2c-0.1,0-0.2,0.2-0.3,0.2
			l-8.3,3.6l6.6,10.4l0,233.7c0,2.8,2.1,6.1,4.5,7.5l243,140.3l7.6,11.7l7.9-3.6c0.4-0.1,0.5-0.5,0.8-0.5l-0.2-0.1l0,0
			c1,0.2,1.2-1.3,1.2-2.5l0.1-244.7C315.4,375.4,313.5,372.1,311.1,370.8z"/>
		<path id="XMLID_314_" class="st3" d="M302.9,629.1L46.9,481.2c-2.4-1.4-4.3-4.7-4.3-7.5V229c0-2.8,1.9-3.9,4.3-2.5l256.1,147.9
			c2.4,1.4,4.3,4.7,4.3,7.5v244.7C307.3,629.3,305.3,630.4,302.9,629.1z"/>
		<polygon id="XMLID_401_" class="st4" points="274.5,600.6 66,480.2 66,251.1 274.5,371.6 		"/>
		<path id="XMLID_359_" class="st1" d="M298.8,499.6c0,5.7-3.5,8.3-7.7,5.8c-4.3-2.5-7.7-9.1-7.7-14.8s3.5-8.3,7.7-5.8
			C295.3,487.3,298.8,493.9,298.8,499.6z"/>
		<path id="XMLID_402_" class="st1" d="M53.6,358.5c0,2.2-1.3,3.2-3,2.2c-1.6-0.9-3-3.5-3-5.6s1.3-3.2,3-2.2
			C52.3,353.8,53.6,356.4,53.6,358.5z"/>
	</g>
	<polygon id="XMLID_370_" class="st5" points="274.5,406.1 66,285.7 66,251.2 274.5,371.6 	"/>
	<polygon id="XMLID_371_" class="st6" points="274.5,600.6 65.8,480.1 65.8,285.6 274.5,406.1 	"/>
	<path id="XMLID_419_" class="st6" d="M84.1,288.5l-1-0.6c-4-2.3-7.2-8.5-7.2-13.8l0,0c0-5.3,3.2-7.8,7.2-5.5l1,0.6
		c4,2.3,7.2,8.5,7.2,13.8l0,0C91.3,288.4,88.1,290.8,84.1,288.5z"/>
	<g id="XMLID_422_">
		<path id="XMLID_425_" class="st6" d="M203,353.5l-15.2-8.8c-1.5-0.9-2.8-3.3-2.8-5.3V335c0-2.1,1.2-3,2.8-2.1l15.2,8.8
			c1.5,0.9,2.8,3.3,2.8,5.3v4.4C205.8,353.4,204.5,354.4,203,353.5z"/>
		<path id="XMLID_424_" class="st6" d="M232.4,370.5l-15.2-8.8c-1.5-0.9-2.8-3.3-2.8-5.3V352c0-2.1,1.2-3,2.8-2.1l15.2,8.8
			c1.5,0.9,2.8,3.3,2.8,5.3v4.4C235.2,370.4,234,371.4,232.4,370.5z"/>
		<path id="XMLID_423_" class="st6" d="M262.7,388l-15.2-8.8c-1.5-0.9-2.8-3.3-2.8-5.3v-4.4c0-2.1,1.2-3,2.8-2.1l15.2,8.8
			c1.5,0.9,2.8,3.3,2.8,5.3v4.4C265.5,387.9,264.3,388.9,262.7,388z"/>
	</g>
	<path id="XMLID_418_" class="st7" d="M209.2,433.6l-80.8-46.6c-1.1-0.6-2-2.4-2-3.9v-16.9c0-1.5,0.9-2.2,2-1.5l80.8,46.6
		c1.1,0.6,2,2.4,2,3.9V432C211.3,433.5,210.3,434.2,209.2,433.6z"/>
	<g id="XMLID_403_">
		<path id="XMLID_417_" class="st9" d="M144.9,419.5l-18.4-10.6c-0.5-0.3-0.9-1.1-0.9-1.7V404c0-0.7,0.4-1,0.9-0.7l18.4,10.6
			c0.5,0.3,0.9,1.1,0.9,1.7v3.2C145.8,419.5,145.4,419.8,144.9,419.5z"/>
		<path id="XMLID_416_" class="st9" d="M157.3,426.7l-8.3-4.8c-0.5-0.3-0.9-1.1-0.9-1.7V417c0-0.7,0.4-1,0.9-0.7l8.3,4.8
			c0.5,0.3,0.9,1.1,0.9,1.7v3.2C158.2,426.7,157.8,427,157.3,426.7z"/>
		<path id="XMLID_415_" class="st9" d="M177.9,438.5l-16.3-9.4c-0.5-0.3-0.9-1.1-0.9-1.7v-3.2c0-0.7,0.4-1,0.9-0.7l16.3,9.4
			c0.5,0.3,0.9,1.1,0.9,1.7v3.2C178.8,438.5,178.4,438.8,177.9,438.5z"/>
		<path id="XMLID_414_" class="st9" d="M202.2,452.6l-20.4-11.8c-0.5-0.3-0.9-1.1-0.9-1.7v-3.2c0-0.7,0.4-1,0.9-0.7l20.4,11.8
			c0.5,0.3,0.9,1.1,0.9,1.7v3.2C203.1,452.6,202.7,452.9,202.2,452.6z"/>
		<path id="XMLID_413_" class="st9" d="M211.1,457.7l-5.1-2.9c-0.5-0.3-0.9-1.1-0.9-1.7v-3.2c0-0.7,0.4-1,0.9-0.7l5.1,2.9
			c0.5,0.3,0.9,1.1,0.9,1.7v3.2C212.1,457.7,211.6,458,211.1,457.7z"/>
	</g>
	<g id="XMLID_373_">
		<path id="XMLID_387_" class="st9" d="M139.5,405.6l-16.3-9.4c-0.5-0.3-0.9-1.1-0.9-1.7v-3.2c0-0.7,0.4-1,0.9-0.7l16.3,9.4
			c0.5,0.3,0.9,1.1,0.9,1.7v3.2C140.4,405.5,140,405.9,139.5,405.6z"/>
		<path id="XMLID_386_" class="st9" d="M163.8,419.6l-20.4-11.8c-0.5-0.3-0.9-1.1-0.9-1.7v-3.2c0-0.7,0.4-1,0.9-0.7l20.4,11.8
			c0.5,0.3,0.9,1.1,0.9,1.7v3.2C164.7,419.6,164.3,419.9,163.8,419.6z"/>
		<path id="XMLID_385_" class="st9" d="M172.8,424.8l-5.1-2.9c-0.5-0.3-0.9-1.1-0.9-1.7v-3.2c0-0.7,0.4-1,0.9-0.7l5.1,2.9
			c0.5,0.3,0.9,1.1,0.9,1.7v3.2C173.7,424.7,173.3,425,172.8,424.8z"/>
		<path id="XMLID_384_" class="st9" d="M193.2,436.5l-16.3-9.4c-0.5-0.3-0.9-1.1-0.9-1.7v-3.2c0-0.7,0.4-1,0.9-0.7l16.3,9.4
			c0.5,0.3,0.9,1.1,0.9,1.7v3.2C194.1,436.5,193.7,436.8,193.2,436.5z"/>
		<path id="XMLID_380_" class="st9" d="M214.5,448.8l-16.3-9.4c-0.5-0.3-0.9-1.1-0.9-1.7v-3.2c0-0.7,0.4-1,0.9-0.7l16.3,9.4
			c0.5,0.3,0.9,1.1,0.9,1.7v3.2C215.4,448.8,214.9,449.1,214.5,448.8z"/>
	</g>
	<path id="XMLID_420_" class="st5" d="M222.7,570.7l-104.2-60.2v-64.7c0-10.4,6.3-15.1,14.1-10.6l76.1,43.9
		c7.8,4.5,14.1,16.5,14.1,26.9V570.7z"/>
</g>
<g id="XMLID_448_">
	<g id="XMLID_350_">
		<path id="XMLID_344_" class="st1" d="M90,385.1l-74.8-43.2c-1.4-0.8-2.7-1-3.7-0.6l-9.5,2.7l7.4,24.3L9.4,556.8
			c0,3.7,2.5,8.3,5.7,10.1l66.5,38.4L84,613l8.9-2.6c0.2,0,0.9-0.1,1.1-0.2l0.6,0l0,0c1-0.5,1.5-1.8,1.5-3.8L96.1,395
			C96.1,391.3,93.2,386.9,90,385.1z"/>
		<path id="XMLID_333_" class="st3" d="M0.1,347.8L0,559.5c0,3.7,2.5,8.2,5.7,10.1l74.5,43c3.2,1.8,5.9,0.2,5.9-3.4l0.4-211.4
			c0-3.7-2.5-8.1-5.7-10L5.9,344.6C2.7,342.7,0.1,344.1,0.1,347.8z"/>
		<polygon id="XMLID_346_" class="st4" points="81,576.6 4.6,532.5 4.6,368.9 81,413 		"/>
		<path id="XMLID_345_" class="st1" d="M48,576.2c0,6.7-4.1,9.8-9.1,6.9s-9.1-10.7-9.1-17.4c0-6.7,4.1-9.8,9.1-6.9
			C43.9,561.7,48,569.5,48,576.2z"/>
	</g>
	<path id="XMLID_340_" class="st1" d="M47,386.5l-16.3-9.4c-1.9-1.1-3.4-4-3.4-6.5l0,0c0-2.5,1.5-3.7,3.4-2.6l16.3,9.4
		c1.9,1.1,3.4,4,3.4,6.5l0,0C50.4,386.4,48.8,387.6,47,386.5z"/>
	<polygon id="XMLID_427_" class="st6" points="81,576.6 4.6,532.5 4.6,369.2 81,413.3 	"/>
	<path id="XMLID_445_" class="st10" d="M13.3,386.6l-0.1-0.1c-1.7-1-3.2-3.7-3.2-6v-0.2c0-2.3,1.4-3.4,3.2-2.4l0.1,0.1
		c1.7,1,3.2,3.7,3.2,6v0.2C16.5,386.5,15.1,387.6,13.3,386.6z"/>
	<path id="XMLID_439_" class="st7" d="M69.2,463.7l-52.8-30.5c-1.1-0.6-2-2.4-2-3.9v-16.9c0-1.5,0.9-2.2,2-1.5l52.8,30.5
		c1.1,0.6,2,2.4,2,3.9v16.9C71.2,463.6,70.3,464.3,69.2,463.7z"/>
	<g id="XMLID_443_">
		<path id="XMLID_440_" class="st7" d="M75.4,416.9l-4.4-2.6c-0.3-0.1-0.5-0.5-0.5-0.9v-0.2c0-0.3,0.2-0.5,0.5-0.3l4.4,2.6
			c0.3,0.1,0.5,0.5,0.5,0.9v0.2C75.9,416.9,75.7,417.1,75.4,416.9z"/>
		<path id="XMLID_441_" class="st7" d="M75.4,419l-4.4-2.6c-0.3-0.1-0.5-0.5-0.5-0.9v-0.2c0-0.3,0.2-0.5,0.5-0.3l4.4,2.6
			c0.3,0.1,0.5,0.5,0.5,0.9v0.2C75.9,419,75.7,419.2,75.4,419z"/>
		<path id="XMLID_442_" class="st7" d="M75.4,421.1l-4.4-2.6c-0.3-0.1-0.5-0.5-0.5-0.9v-0.2c0-0.3,0.2-0.5,0.5-0.3l4.4,2.6
			c0.3,0.1,0.5,0.5,0.5,0.9v0.2C75.9,421.1,75.7,421.3,75.4,421.1z"/>
	</g>
	<g id="XMLID_433_">
		<path id="XMLID_438_" class="st9" d="M26.5,462.1l-11.7-6.8c-0.5-0.3-0.9-1.1-0.9-1.7v-3.2c0-0.7,0.4-1,0.9-0.7l11.7,6.8
			c0.5,0.3,0.9,1.1,0.9,1.7v3.2C27.4,462.1,27,462.4,26.5,462.1z"/>
		<path id="XMLID_437_" class="st9" d="M34.8,466.9l-5-2.9c-0.5-0.3-0.9-1.1-0.9-1.7v-3.2c0-0.7,0.4-1,0.9-0.7l5,2.9
			c0.5,0.3,0.9,1.1,0.9,1.7v3.2C35.7,466.9,35.3,467.2,34.8,466.9z"/>
		<path id="XMLID_436_" class="st9" d="M48.6,474.8l-10.3-6c-0.5-0.3-0.9-1.1-0.9-1.7V464c0-0.7,0.4-1,0.9-0.7l10.3,6
			c0.5,0.3,0.9,1.1,0.9,1.7v3.2C49.5,474.8,49.1,475.1,48.6,474.8z"/>
		<path id="XMLID_435_" class="st9" d="M64.9,484.2l-13.1-7.6c-0.5-0.3-0.9-1.1-0.9-1.7v-3.2c0-0.7,0.4-1,0.9-0.7l13.1,7.6
			c0.5,0.3,0.9,1.1,0.9,1.7v3.2C65.8,484.2,65.4,484.5,64.9,484.2z"/>
		<path id="XMLID_434_" class="st9" d="M70.9,487.7l-2.8-1.6c-0.5-0.3-0.9-1.1-0.9-1.7v-3.2c0-0.7,0.4-1,0.9-0.7l2.8,1.6
			c0.5,0.3,0.9,1.1,0.9,1.7v3.2C71.8,487.7,71.4,488,70.9,487.7z"/>
	</g>
	<g id="XMLID_426_">
		<path id="XMLID_432_" class="st9" d="M22.9,449.2l-10.3-6c-0.5-0.3-0.9-1.1-0.9-1.7v-3.2c0-0.7,0.4-1,0.9-0.7l10.3,6
			c0.5,0.3,0.9,1.1,0.9,1.7v3.2C23.8,449.1,23.4,449.4,22.9,449.2z"/>
		<path id="XMLID_431_" class="st9" d="M39.2,458.6L26.1,451c-0.5-0.3-0.9-1.1-0.9-1.7v-3.2c0-0.7,0.4-1,0.9-0.7l13.1,7.6
			c0.5,0.3,0.9,1.1,0.9,1.7v3.2C40.1,458.5,39.7,458.8,39.2,458.6z"/>
		<path id="XMLID_430_" class="st9" d="M45.1,462l-2.8-1.6c-0.5-0.3-0.9-1.1-0.9-1.7v-3.2c0-0.7,0.4-1,0.9-0.7l2.8,1.6
			c0.5,0.3,0.9,1.1,0.9,1.7v3.2C46,462,45.6,462.3,45.1,462z"/>
		<path id="XMLID_429_" class="st9" d="M58.8,469.9l-10.3-6c-0.5-0.3-0.9-1.1-0.9-1.7V459c0-0.7,0.4-1,0.9-0.7l10.3,6
			c0.5,0.3,0.9,1.1,0.9,1.7v3.2C59.7,469.9,59.3,470.2,58.8,469.9z"/>
		<path id="XMLID_428_" class="st9" d="M73.1,478.1l-10.3-6c-0.5-0.3-0.9-1.1-0.9-1.7v-3.2c0-0.7,0.4-1,0.9-0.7l10.3,6
			c0.5,0.3,0.9,1.1,0.9,1.7v3.2C74,478.1,73.6,478.4,73.1,478.1z"/>
	</g>
	<path id="XMLID_444_" class="st5" d="M71.2,570.9l-55.8-32.2v-33.8c0-10.4,6.3-15.1,14.1-10.6l27.6,16c7.8,4.5,14.1,16.5,14.1,26.9
		V570.9z"/>
</g>
</svg>
