<?xml version="1.0" encoding="utf-8"?>
<!-- Generator: Adobe Illustrator 19.0.0, SVG Export Plug-In . SVG Version: 6.00 Build 0)  -->
<svg version="1.1" id="Layer_1" xmlns="http://www.w3.org/2000/svg" xmlns:xlink="http://www.w3.org/1999/xlink" x="0px" y="0px"
	 viewBox="0 0 1777 1490.6" style="enable-background:new 0 0 1777 1490.6;" xml:space="preserve">
<style type="text/css">
	.st0{fill:#B2ABDD;}
	.st1{fill:url(#XMLID_123_);stroke:#5D5D8C;stroke-width:8;stroke-miterlimit:10;}
	.st2{fill:url(#XMLID_124_);stroke:#5D5D8C;stroke-width:8;stroke-miterlimit:10;}
	.st3{fill:url(#XMLID_125_);stroke:#5D5D8C;stroke-width:8;stroke-miterlimit:10;}
	.st4{fill:#C6C3EA;}
	.st5{fill:#5D5D8C;}
	.st6{fill:url(#XMLID_126_);stroke:#5D5D8C;stroke-width:8;stroke-miterlimit:10;}
	.st7{fill:url(#XMLID_127_);stroke:#5D5D8C;stroke-width:8;stroke-miterlimit:10;}
	.st8{fill:#838391;}
	.st9{fill:#999999;}
	.st10{fill:#6E6E7C;}
	.st11{fill:#568B99;}
	.st12{fill:url(#XMLID_128_);stroke:#2A5C68;stroke-width:8;stroke-miterlimit:10;}
	.st13{fill:url(#XMLID_129_);stroke:#2A5C68;stroke-width:8;stroke-miterlimit:10;}
	.st14{fill:url(#XMLID_130_);stroke:#2A5C68;stroke-width:8;stroke-miterlimit:10;}
	.st15{fill:url(#XMLID_131_);stroke:#2A5C68;stroke-width:8;stroke-miterlimit:10;}
	.st16{fill:url(#XMLID_132_);stroke:#2A5C68;stroke-width:8;stroke-miterlimit:10;}
	.st17{fill:url(#XMLID_133_);stroke:#2A5C68;stroke-width:8;stroke-miterlimit:10;}
	.st18{fill:url(#XMLID_134_);stroke:#2A5C68;stroke-width:8;stroke-miterlimit:10;}
	.st19{fill:url(#XMLID_135_);stroke:#2A5C68;stroke-width:8;stroke-miterlimit:10;}
	.st20{fill:#2A5C68;}
	.st21{fill:#CBCBCB;}
	.st22{fill:#67A2B7;}
	.st23{fill:url(#XMLID_136_);stroke:url(#XMLID_137_);stroke-width:8;stroke-miterlimit:10;}
	.st24{fill:url(#XMLID_138_);stroke:url(#XMLID_139_);stroke-width:8;stroke-miterlimit:10;}
	.st25{fill:url(#XMLID_140_);stroke:url(#XMLID_141_);stroke-width:8;stroke-miterlimit:10;}
	.st26{fill:url(#XMLID_142_);stroke:url(#XMLID_143_);stroke-width:8;stroke-miterlimit:10;}
	.st27{fill:#3E7584;}
	.st28{fill:#A2D1DB;}
	.st29{fill:#C48D86;}
	.st30{fill:url(#XMLID_144_);stroke:#A06767;stroke-width:8;stroke-miterlimit:10;}
	.st31{fill:url(#XMLID_145_);stroke:#A06767;stroke-width:8;stroke-miterlimit:10;}
	.st32{fill:url(#XMLID_146_);stroke:#A06767;stroke-width:8;stroke-miterlimit:10;}
	.st33{fill:#D8ABA3;}
	.st34{fill:#A06767;}
	.st35{fill:url(#XMLID_147_);stroke:#A06767;stroke-width:8;stroke-miterlimit:10;}
	.st36{fill:#808080;}
	.st37{fill:#999999;stroke:#808080;stroke-miterlimit:10;}
	.st38{fill:#78A827;}
	.st39{fill:url(#XMLID_148_);}
	.st40{fill:#5E422A;}
	.st41{fill:#8CC42E;}
	.st42{fill:#8CB739;}
	.st43{fill-opacity:0.1;}
	.st44{fill:url(#XMLID_149_);}
	.st45{fill:#9EC6CC;}
	.st46{fill:#EDFBFF;}
	.st47{opacity:0.2;fill:#231F20;enable-background:new    ;}
	.st48{fill:#FBC20F;}
	.st49{fill:#B56868;}
	.st50{fill:#4F5D73;}
	.st51{fill:#4F4F4F;}
	.st52{fill:#775800;}
	.st53{fill:#AFAFAF;}
	.st54{fill:#2280FF;}
	.st55{fill:#FF4129;}
	.st56{fill:#49C93F;}
	.st57{fill:#757575;stroke:#757575;stroke-width:4;stroke-miterlimit:10;}
</style>
<polygon id="XMLID_203_" class="st0" points="992.8,759.3 524.6,1029.6 524.6,768.2 992.8,497.9 "/>
<linearGradient id="XMLID_123_" gradientUnits="userSpaceOnUse" x1="-2272.8508" y1="284.6921" x2="-2202.782" y2="354.761" gradientTransform="matrix(0.866 -0.5 0 1.1547 2566.927 -669.3035)">
	<stop  offset="7.389162e-002" style="stop-color:#C6C3EA"/>
	<stop  offset="0.4388" style="stop-color:#DEDCF3"/>
	<stop  offset="1" style="stop-color:#FFFFFF"/>
</linearGradient>
<polygon id="XMLID_202_" class="st1" points="656.9,846.3 601,878.6 601,791.3 656.9,759 "/>
<linearGradient id="XMLID_124_" gradientUnits="userSpaceOnUse" x1="-2010.4823" y1="286.1142" x2="-1940.4133" y2="356.1832" gradientTransform="matrix(0.866 -0.5 0 1.1547 2566.927 -669.3035)">
	<stop  offset="7.389162e-002" style="stop-color:#C6C3EA"/>
	<stop  offset="0.4388" style="stop-color:#DEDCF3"/>
	<stop  offset="1" style="stop-color:#FFFFFF"/>
</linearGradient>
<polygon id="XMLID_201_" class="st2" points="884.1,716.8 828.2,749 828.2,661.7 884.1,629.5 "/>
<linearGradient id="XMLID_125_" gradientUnits="userSpaceOnUse" x1="-1950.9886" y1="286.5129" x2="-1880.9197" y2="356.5818" gradientTransform="matrix(0.866 -0.5 0 1.1547 2566.927 -669.3035)">
	<stop  offset="7.389162e-002" style="stop-color:#C6C3EA"/>
	<stop  offset="0.4388" style="stop-color:#DEDCF3"/>
	<stop  offset="1" style="stop-color:#FFFFFF"/>
</linearGradient>
<polygon id="XMLID_200_" class="st3" points="935.6,687.5 879.7,719.8 879.7,632.4 935.6,600.2 "/>
<polygon id="XMLID_198_" class="st4" points="524.6,1029.6 223.3,855.6 223.3,594.2 524.6,768.2 "/>
<polygon id="XMLID_197_" class="st5" points="719.7,917.3 780.8,882 780.8,736.3 719.7,771.6 "/>
<linearGradient id="XMLID_126_" gradientUnits="userSpaceOnUse" x1="-2562.4502" y1="1545.2643" x2="-2492.3813" y2="1615.3333" gradientTransform="matrix(0.866 0.5 0 1.1547 2500.0532 192.431)">
	<stop  offset="0" style="stop-color:#FFFFFF"/>
	<stop  offset="1" style="stop-color:#C6C3EA"/>
</linearGradient>
<polygon id="XMLID_196_" class="st6" points="339.2,813.3 283.3,781 283.3,693.7 339.2,726 "/>
<linearGradient id="XMLID_127_" gradientUnits="userSpaceOnUse" x1="-2430.8008" y1="1544.8082" x2="-2360.7319" y2="1614.8772" gradientTransform="matrix(0.866 0.5 0 1.1547 2500.0532 192.431)">
	<stop  offset="0" style="stop-color:#FFFFFF"/>
	<stop  offset="1" style="stop-color:#C6C3EA"/>
</linearGradient>
<polygon id="XMLID_195_" class="st7" points="453.2,878.6 397.3,846.3 397.3,759 453.2,791.3 "/>
<polygon id="XMLID_194_" class="st8" points="223.3,594.2 524.6,768.2 373.9,538 "/>
<path id="XMLID_193_" class="st9" d="M842,309.7L373.9,584.1L842,309.7z"/>
<polygon id="XMLID_192_" class="st10" points="992.7,497.9 524.6,768.2 373.9,538 842,267.7 "/>
<polygon id="XMLID_191_" class="st8" points="373.9,538 223.3,594.2 691.4,323.9 842,267.7 "/>
<g id="XMLID_165_">
	<polygon id="XMLID_189_" class="st11" points="1657.6,807.7 1185.1,1080.5 1184.2,614.9 1656.7,342.1 	"/>
	
		<linearGradient id="XMLID_128_" gradientUnits="userSpaceOnUse" x1="-1838.073" y1="-667.8626" x2="-1768.996" y2="-598.7856" gradientTransform="matrix(0.866 -0.5 0 1.1547 2842.7612 510.5589)">
		<stop  offset="0" style="stop-color:#D4FCFF"/>
		<stop  offset="1" style="stop-color:#BDCCD4"/>
	</linearGradient>
	<polygon id="XMLID_188_" class="st12" points="1309.1,706.9 1252.6,739.5 1252.6,655.2 1309.1,622.6 	"/>
	
		<linearGradient id="XMLID_129_" gradientUnits="userSpaceOnUse" x1="-1732.2599" y1="-667.8626" x2="-1663.1829" y2="-598.7856" gradientTransform="matrix(0.866 -0.5 0 1.1547 2842.7612 510.5589)">
		<stop  offset="0" style="stop-color:#D4FCFF"/>
		<stop  offset="1" style="stop-color:#BDCCD4"/>
	</linearGradient>
	<polygon id="XMLID_187_" class="st13" points="1400.7,654 1344.3,686.6 1344.3,602.3 1400.7,569.7 	"/>
	
		<linearGradient id="XMLID_130_" gradientUnits="userSpaceOnUse" x1="-1838.073" y1="-506.066" x2="-1768.996" y2="-436.989" gradientTransform="matrix(0.866 -0.5 0 1.1547 2842.7612 510.5589)">
		<stop  offset="0" style="stop-color:#D4FCFF"/>
		<stop  offset="1" style="stop-color:#BDCCD4"/>
	</linearGradient>
	<polygon id="XMLID_186_" class="st14" points="1309.1,893.7 1252.6,926.3 1252.6,842 1309.1,809.4 	"/>
	
		<linearGradient id="XMLID_131_" gradientUnits="userSpaceOnUse" x1="-1732.2599" y1="-506.066" x2="-1663.1829" y2="-436.989" gradientTransform="matrix(0.866 -0.5 0 1.1547 2842.7612 510.5589)">
		<stop  offset="0" style="stop-color:#D4FCFF"/>
		<stop  offset="1" style="stop-color:#BDCCD4"/>
	</linearGradient>
	<polygon id="XMLID_185_" class="st15" points="1400.7,840.8 1344.3,873.4 1344.3,789.1 1400.7,756.5 	"/>
	
		<linearGradient id="XMLID_132_" gradientUnits="userSpaceOnUse" x1="-1628.6184" y1="-667.8626" x2="-1559.5414" y2="-598.7856" gradientTransform="matrix(0.866 -0.5 0 1.1547 2842.7612 510.5589)">
		<stop  offset="0" style="stop-color:#D4FCFF"/>
		<stop  offset="1" style="stop-color:#BDCCD4"/>
	</linearGradient>
	<polygon id="XMLID_184_" class="st16" points="1490.5,602.2 1434,634.7 1434,550.4 1490.5,517.9 	"/>
	
		<linearGradient id="XMLID_133_" gradientUnits="userSpaceOnUse" x1="-1522.8053" y1="-667.8626" x2="-1453.7283" y2="-598.7856" gradientTransform="matrix(0.866 -0.5 0 1.1547 2842.7612 510.5589)">
		<stop  offset="0" style="stop-color:#D4FCFF"/>
		<stop  offset="1" style="stop-color:#BDCCD4"/>
	</linearGradient>
	<polygon id="XMLID_183_" class="st17" points="1582.1,549.3 1525.7,581.8 1525.7,497.5 1582.1,465 	"/>
	
		<linearGradient id="XMLID_134_" gradientUnits="userSpaceOnUse" x1="-1628.6184" y1="-506.066" x2="-1559.5414" y2="-436.989" gradientTransform="matrix(0.866 -0.5 0 1.1547 2842.7612 510.5589)">
		<stop  offset="0" style="stop-color:#D4FCFF"/>
		<stop  offset="1" style="stop-color:#BDCCD4"/>
	</linearGradient>
	<polygon id="XMLID_182_" class="st18" points="1490.5,789 1434,821.6 1434,737.3 1490.5,704.7 	"/>
	
		<linearGradient id="XMLID_135_" gradientUnits="userSpaceOnUse" x1="-1522.8053" y1="-506.066" x2="-1453.7283" y2="-436.989" gradientTransform="matrix(0.866 -0.5 0 1.1547 2842.7612 510.5589)">
		<stop  offset="0" style="stop-color:#D4FCFF"/>
		<stop  offset="1" style="stop-color:#BDCCD4"/>
	</linearGradient>
	<polygon id="XMLID_181_" class="st19" points="1582.1,736.1 1525.7,768.7 1525.7,684.4 1582.1,651.8 	"/>
	<polygon id="XMLID_180_" class="st20" points="1656.7,375.9 1184.3,648.7 1184.3,643.4 1656.7,370.7 	"/>
	<polygon id="XMLID_179_" class="st21" points="1476.1,667 1185.1,835 1185.1,829.8 1476.1,661.7 	"/>
	<polygon id="XMLID_178_" class="st20" points="1656.6,562.8 1184.7,835.2 1184.7,830 1656.6,557.5 	"/>
	<polygon id="XMLID_177_" class="st20" points="1657,749.4 1185.1,1021.8 1185.1,1016.6 1657,744.1 	"/>
	<polygon id="XMLID_176_" class="st22" points="1185.1,1080.5 894.2,912.6 894.2,446.8 1185,614.7 	"/>
	
		<linearGradient id="XMLID_136_" gradientUnits="userSpaceOnUse" x1="555.9298" y1="2132.4587" x2="625.0068" y2="2201.5356" gradientTransform="matrix(0.866 0.5 0 1.1547 482.3825 -2171.1833)">
		<stop  offset="0" style="stop-color:#BDCCD4"/>
		<stop  offset="1" style="stop-color:#D4FCFF"/>
	</linearGradient>
	<linearGradient id="XMLID_137_" gradientUnits="userSpaceOnUse" x1="961.5363" y1="626.2836" x2="1025.95" y2="626.2836">
		<stop  offset="0" style="stop-color:#BDCCD4"/>
		<stop  offset="0" style="stop-color:#00617F"/>
	</linearGradient>
	<polygon id="XMLID_175_" class="st23" points="1021.9,684.7 965.5,652.2 965.5,567.8 1021.9,600.4 	"/>
	
		<linearGradient id="XMLID_138_" gradientUnits="userSpaceOnUse" x1="661.743" y1="2132.4587" x2="730.82" y2="2201.5356" gradientTransform="matrix(0.866 0.5 0 1.1547 482.3825 -2171.1833)">
		<stop  offset="0" style="stop-color:#BDCCD4"/>
		<stop  offset="1" style="stop-color:#D4FCFF"/>
	</linearGradient>
	<linearGradient id="XMLID_139_" gradientUnits="userSpaceOnUse" x1="1053.1732" y1="679.1902" x2="1117.5868" y2="679.1902">
		<stop  offset="0" style="stop-color:#BDCCD4"/>
		<stop  offset="0" style="stop-color:#00617F"/>
	</linearGradient>
	<polygon id="XMLID_174_" class="st24" points="1113.6,737.6 1057.2,705.1 1057.2,620.8 1113.6,653.3 	"/>
	
		<linearGradient id="XMLID_140_" gradientUnits="userSpaceOnUse" x1="555.9298" y1="2294.2554" x2="625.0068" y2="2363.3323" gradientTransform="matrix(0.866 0.5 0 1.1547 482.3825 -2171.1833)">
		<stop  offset="0" style="stop-color:#BDCCD4"/>
		<stop  offset="1" style="stop-color:#D4FCFF"/>
	</linearGradient>
	<linearGradient id="XMLID_141_" gradientUnits="userSpaceOnUse" x1="961.5363" y1="813.1102" x2="1025.95" y2="813.1102">
		<stop  offset="0" style="stop-color:#BDCCD4"/>
		<stop  offset="0" style="stop-color:#00617F"/>
	</linearGradient>
	<polygon id="XMLID_173_" class="st25" points="1021.9,871.5 965.5,839 965.5,754.7 1021.9,787.2 	"/>
	
		<linearGradient id="XMLID_142_" gradientUnits="userSpaceOnUse" x1="661.743" y1="2294.2554" x2="730.82" y2="2363.3323" gradientTransform="matrix(0.866 0.5 0 1.1547 482.3825 -2171.1833)">
		<stop  offset="0" style="stop-color:#BDCCD4"/>
		<stop  offset="1" style="stop-color:#D4FCFF"/>
	</linearGradient>
	<linearGradient id="XMLID_143_" gradientUnits="userSpaceOnUse" x1="1053.1732" y1="866.0168" x2="1117.5868" y2="866.0168">
		<stop  offset="0" style="stop-color:#BDCCD4"/>
		<stop  offset="0" style="stop-color:#00617F"/>
	</linearGradient>
	<polygon id="XMLID_172_" class="st26" points="1113.6,924.5 1057.2,891.9 1057.2,807.6 1113.6,840.1 	"/>
	<polygon id="XMLID_171_" class="st27" points="1185.1,835.4 894.1,667.4 894.1,662.2 1185.1,830.2 	"/>
	<polygon id="XMLID_170_" class="st27" points="1185.1,649 894.1,481 894.1,475.8 1185.1,643.8 	"/>
	<polygon id="XMLID_169_" class="st27" points="1185.1,1022.2 894.1,854.2 894.1,849 1185.1,1017 	"/>
	<polygon id="XMLID_168_" class="st28" points="1185.2,614.6 894.2,446.6 1365.8,174.3 1656.8,342.3 	"/>
	<polygon id="XMLID_167_" class="st27" points="1181.3,572.3 967,448.5 1369.4,216.2 1583.7,339.9 	"/>
	<polygon id="XMLID_166_" class="st22" points="1181.3,572.3 977.2,454.4 1369.5,228 1573.6,345.8 	"/>
</g>
<polygon id="XMLID_164_" class="st29" points="1144.9,1268.7 760.6,1490.6 760.6,1276 1144.9,1054.1 "/>
<linearGradient id="XMLID_144_" gradientUnits="userSpaceOnUse" x1="-2026.9368" y1="829.9275" x2="-1969.4236" y2="887.4407" gradientTransform="matrix(0.866 -0.5 0 1.1547 2566.927 -669.3035)">
	<stop  offset="0" style="stop-color:#D8ABA3"/>
	<stop  offset="1" style="stop-color:#FFFFFF"/>
</linearGradient>
<polygon id="XMLID_163_" class="st30" points="859.4,1343.9 813.5,1370.4 813.5,1298.7 859.4,1272.2 "/>
<linearGradient id="XMLID_145_" gradientUnits="userSpaceOnUse" x1="-1934.4266" y1="829.9275" x2="-1876.9133" y2="887.4407" gradientTransform="matrix(0.866 -0.5 0 1.1547 2566.927 -669.3035)">
	<stop  offset="0" style="stop-color:#D8ABA3"/>
	<stop  offset="1" style="stop-color:#FFFFFF"/>
</linearGradient>
<polygon id="XMLID_162_" class="st31" points="939.5,1297.6 893.6,1324.1 893.6,1252.5 939.5,1226 "/>
<linearGradient id="XMLID_146_" gradientUnits="userSpaceOnUse" x1="-1802.7789" y1="815.1198" x2="-1715.6504" y2="902.2484" gradientTransform="matrix(0.866 -0.5 0 1.1547 2566.927 -669.3035)">
	<stop  offset="0" style="stop-color:#D8ABA3"/>
	<stop  offset="1" style="stop-color:#FFFFFF"/>
</linearGradient>
<polygon id="XMLID_161_" class="st32" points="1092,1209.6 994.8,1265.7 994.8,1194 1092,1137.9 "/>
<polygon id="XMLID_160_" class="st33" points="760.6,1490.6 513.3,1347.8 513.3,1133.2 760.6,1276 "/>
<polygon id="XMLID_159_" class="st34" points="711.3,1462.1 650.6,1427 650.6,1282.2 711.3,1317.3 "/>
<linearGradient id="XMLID_147_" gradientUnits="userSpaceOnUse" x1="-2239.5134" y1="1856.5039" x2="-2182.0002" y2="1914.0172" gradientTransform="matrix(0.866 0.5 0 1.1547 2500.0532 192.431)">
	<stop  offset="0" style="stop-color:#FFFFFF"/>
	<stop  offset="1" style="stop-color:#D8ABA3"/>
</linearGradient>
<polygon id="XMLID_158_" class="st35" points="608.4,1313 562.5,1286.6 562.5,1214.9 608.4,1241.4 "/>
<polygon id="XMLID_157_" class="st9" points="513.3,1133.2 760.6,1276 636.9,1121.5 "/>
<polygon id="XMLID_156_" class="st9" points="897.5,911.3 1144.8,1054.1 1021.1,899.7 "/>
<path id="XMLID_155_" class="st9" d="M1021.1,899.7l-384.2,225.3L1021.1,899.7z"/>
<polygon id="XMLID_154_" class="st36" points="1144.8,1054.1 760.6,1276 636.9,1121.5 1021.1,899.7 "/>
<polygon id="XMLID_153_" class="st37" points="636.9,1121.5 513.3,1133.2 897.5,911.3 1021.1,899.7 "/>
<polygon id="XMLID_483_" class="st38" points="1777,1037.8 1762.9,1040.8 1612.5,946.3 1302.9,1140.9 1274,1147.2 1274,1159.1 
	1274.7,1159.7 1438.3,1262.5 1776.5,1050 1777,1049.7 "/>
<linearGradient id="XMLID_148_" gradientUnits="userSpaceOnUse" x1="1273.7212" y1="1092.5209" x2="1776.9878" y2="1092.5209">
	<stop  offset="0" style="stop-color:#8CCC37"/>
	<stop  offset="1" style="stop-color:#82BD33"/>
</linearGradient>
<polygon id="XMLID_478_" class="st39" points="1438.2,1250.6 1273.7,1147.3 1612.5,934.5 1777,1037.8 "/>
<g id="XMLID_479_">
	<path id="XMLID_10_" class="st40" d="M1576.5,943.5c-2.1,0-3.8,3.7-4,8.4c-0.6,19.8-1.3,39.4-1.9,59.2c-0.5,18.4-0.8,39.2-1.2,57.6
		c-0.2,8.5,3.5,7.7,7.3,7.8c0.6,0-0.6,0,0,0c0.8,0-0.8,0,0,0c3.9,0.2,10.5,0.4,10.2-8.4l-1.8-57.9l-3-58.9c-0.2-4.5-1.9-8-4-8
		H1576.5z"/>
	<path id="XMLID_11_" class="st40" d="M1594.4,993.6c-0.6-0.3-1.6,0.4-2.3,1.8c-3,5.6-6,11.2-8.9,16.8c-2.7,5.2-5.8,11.2-8.5,16.4
		c-1.2,2.4-0.8,5.4,0.2,6.1c0.2,0.1-0.2-0.1,0,0c0.2,0.1-0.2-0.1,0,0c1.1,0.7,3.7-0.8,4.9-3.4l7.7-17l7.4-17.5c0.6-1.4,0.6-2.6,0-3
		L1594.4,993.6z"/>
	<path id="XMLID_37_" class="st40" d="M1560.8,994c0.6-0.4,1.7,0.3,2.5,1.6c3.4,5.5,6.8,10.8,10.1,16.3c3.1,5.1,6.6,10.9,9.6,16
		c1.4,2.3,1.1,5.5,0,6.3c-0.2,0.1,0.2-0.1,0,0c-0.2,0.2,0.2-0.2,0,0c-1.1,0.8-4-0.4-5.3-2.9l-8.8-16.7l-8.6-17.2
		c-0.7-1.3-0.7-2.6-0.1-3L1560.8,994z"/>
	<g id="XMLID_416_">
		<ellipse id="XMLID_447_" class="st41" cx="1540.4" cy="945.6" rx="22.6" ry="25.1"/>
		<ellipse id="XMLID_445_" class="st41" cx="1575" cy="954.9" rx="28.3" ry="31.4"/>
		<ellipse id="XMLID_444_" class="st41" cx="1597.8" cy="941.3" rx="22.8" ry="25.3"/>
		<ellipse id="XMLID_443_" class="st41" cx="1614.6" cy="946.6" rx="22.8" ry="25.3"/>
		<ellipse id="XMLID_442_" class="st41" cx="1566.1" cy="926.4" rx="25.7" ry="28.5"/>
		<ellipse id="XMLID_441_" class="st41" cx="1589.9" cy="925.3" rx="18.3" ry="20.3"/>
		<ellipse id="XMLID_440_" class="st42" cx="1517.7" cy="955.8" rx="14.5" ry="16.1"/>
		<ellipse id="XMLID_439_" class="st42" cx="1538.2" cy="971.9" rx="12.4" ry="16.1"/>
		<ellipse id="XMLID_438_" class="st42" cx="1570.2" cy="971.9" rx="14.5" ry="16.1"/>
		<ellipse id="XMLID_437_" class="st42" cx="1605.2" cy="971.9" rx="14.5" ry="16.1"/>
		<ellipse id="XMLID_436_" class="st42" cx="1555.7" cy="961.4" rx="14.5" ry="16.1"/>
		<ellipse id="XMLID_435_" class="st42" cx="1592.4" cy="961.4" rx="14.5" ry="16.1"/>
		<ellipse id="XMLID_434_" class="st42" cx="1619.1" cy="950.5" rx="14.4" ry="15.9"/>
		<ellipse id="XMLID_433_" class="st42" cx="1635.6" cy="950.3" rx="14.4" ry="15.9"/>
		<ellipse id="XMLID_432_" class="st38" cx="1540.4" cy="985.6" rx="12.3" ry="13.7"/>
		<ellipse id="XMLID_431_" class="st38" cx="1584.7" cy="986.2" rx="12.3" ry="13.7"/>
		<ellipse id="XMLID_430_" class="st38" cx="1601.2" cy="988.6" rx="12.3" ry="13.7"/>
		<ellipse id="XMLID_429_" class="st38" cx="1559" cy="985.6" rx="12.3" ry="13.7"/>
		<ellipse id="XMLID_428_" class="st38" cx="1570.2" cy="988.6" rx="12.3" ry="13.7"/>
		<ellipse id="XMLID_427_" class="st38" cx="1546.7" cy="985.6" rx="12.3" ry="13.7"/>
		<ellipse id="XMLID_426_" class="st38" cx="1525.9" cy="971.9" rx="12.3" ry="13.7"/>
		<ellipse id="XMLID_425_" class="st38" cx="1555.7" cy="975" rx="12.3" ry="13.7"/>
		<ellipse id="XMLID_424_" class="st38" cx="1575" cy="980" rx="12.3" ry="13.7"/>
		<ellipse id="XMLID_423_" class="st38" cx="1588.8" cy="980" rx="12.3" ry="13.7"/>
		<ellipse id="XMLID_422_" class="st38" cx="1597.2" cy="975" rx="12.3" ry="13.7"/>
		<ellipse id="XMLID_420_" class="st38" cx="1614.6" cy="980" rx="12.3" ry="13.7"/>
		<ellipse id="XMLID_419_" class="st38" cx="1622.6" cy="966.3" rx="12.3" ry="13.7"/>
		<ellipse id="XMLID_418_" class="st38" cx="1632.3" cy="966.3" rx="12.3" ry="13.7"/>
		<ellipse id="XMLID_417_" class="st41" cx="1573.8" cy="942" rx="14.5" ry="16.1"/>
	</g>
</g>
<g id="XMLID_481_">
	<path id="XMLID_515_" class="st40" d="M1438.6,1030.9c-2.1,0-3.8,3.7-4,8.4c-0.6,19.8-1.3,39.4-1.9,59.2
		c-0.5,18.4-0.8,39.2-1.2,57.6c-0.2,8.5,3.5,7.7,7.3,7.8c0.6,0-0.6,0,0,0c0.8,0-0.8,0,0,0c3.9,0.2,10.5,0.4,10.2-8.4l-1.8-57.9
		l-3-58.9c-0.2-4.5-1.9-8-4-8H1438.6z"/>
	<path id="XMLID_514_" class="st40" d="M1456.6,1081c-0.6-0.3-1.6,0.4-2.3,1.8c-3,5.6-6,11.2-8.9,16.8c-2.7,5.2-5.8,11.2-8.5,16.4
		c-1.2,2.4-0.8,5.4,0.2,6.1c0.2,0.1-0.2-0.1,0,0c0.2,0.1-0.2-0.1,0,0c1.1,0.7,3.7-0.8,4.9-3.4l7.7-17l7.4-17.5c0.6-1.4,0.6-2.6,0-3
		L1456.6,1081z"/>
	<path id="XMLID_513_" class="st40" d="M1422.9,1081.4c0.6-0.4,1.7,0.3,2.5,1.6c3.4,5.5,6.8,10.8,10.1,16.3c3.1,5.1,6.6,10.9,9.6,16
		c1.4,2.3,1.1,5.5,0,6.3c-0.2,0.1,0.2-0.1,0,0c-0.2,0.2,0.2-0.2,0,0c-1.1,0.8-4-0.4-5.3-2.9l-8.8-16.7l-8.6-17.2
		c-0.7-1.3-0.7-2.6-0.1-3L1422.9,1081.4z"/>
	<g id="XMLID_482_">
		<ellipse id="XMLID_512_" class="st41" cx="1402.5" cy="1033" rx="22.6" ry="25.1"/>
		<ellipse id="XMLID_511_" class="st41" cx="1437.1" cy="1042.2" rx="28.3" ry="31.4"/>
		<ellipse id="XMLID_510_" class="st41" cx="1459.9" cy="1028.7" rx="22.8" ry="25.3"/>
		<ellipse id="XMLID_509_" class="st41" cx="1476.8" cy="1034" rx="22.8" ry="25.3"/>
		<ellipse id="XMLID_508_" class="st41" cx="1428.2" cy="1013.7" rx="25.7" ry="28.5"/>
		<ellipse id="XMLID_507_" class="st41" cx="1452" cy="1012.7" rx="18.3" ry="20.3"/>
		<ellipse id="XMLID_506_" class="st42" cx="1379.9" cy="1043.2" rx="14.5" ry="16.1"/>
		<ellipse id="XMLID_505_" class="st42" cx="1400.4" cy="1059.3" rx="12.4" ry="16.1"/>
		<ellipse id="XMLID_504_" class="st42" cx="1432.4" cy="1059.3" rx="14.5" ry="16.1"/>
		<ellipse id="XMLID_503_" class="st42" cx="1467.3" cy="1059.3" rx="14.5" ry="16.1"/>
		<ellipse id="XMLID_502_" class="st42" cx="1417.9" cy="1048.8" rx="14.5" ry="16.1"/>
		<ellipse id="XMLID_501_" class="st42" cx="1454.5" cy="1048.8" rx="14.5" ry="16.1"/>
		<ellipse id="XMLID_500_" class="st42" cx="1481.3" cy="1037.9" rx="14.4" ry="15.9"/>
		<ellipse id="XMLID_499_" class="st42" cx="1497.7" cy="1037.7" rx="14.4" ry="15.9"/>
		<ellipse id="XMLID_498_" class="st38" cx="1402.5" cy="1073" rx="12.3" ry="13.7"/>
		<ellipse id="XMLID_497_" class="st38" cx="1446.9" cy="1073.6" rx="12.3" ry="13.7"/>
		<ellipse id="XMLID_496_" class="st38" cx="1463.3" cy="1076" rx="12.3" ry="13.7"/>
		<ellipse id="XMLID_495_" class="st38" cx="1421.2" cy="1073" rx="12.3" ry="13.7"/>
		<ellipse id="XMLID_494_" class="st38" cx="1432.4" cy="1076" rx="12.3" ry="13.7"/>
		<ellipse id="XMLID_493_" class="st38" cx="1408.8" cy="1073" rx="12.3" ry="13.7"/>
		<ellipse id="XMLID_492_" class="st38" cx="1388" cy="1059.3" rx="12.3" ry="13.7"/>
		<ellipse id="XMLID_491_" class="st38" cx="1417.9" cy="1062.3" rx="12.3" ry="13.7"/>
		<ellipse id="XMLID_490_" class="st38" cx="1437.1" cy="1067.4" rx="12.3" ry="13.7"/>
		<ellipse id="XMLID_489_" class="st38" cx="1451" cy="1067.4" rx="12.3" ry="13.7"/>
		<ellipse id="XMLID_488_" class="st38" cx="1459.4" cy="1062.3" rx="12.3" ry="13.7"/>
		<ellipse id="XMLID_487_" class="st38" cx="1476.8" cy="1067.4" rx="12.3" ry="13.7"/>
		<ellipse id="XMLID_486_" class="st38" cx="1484.7" cy="1053.7" rx="12.3" ry="13.7"/>
		<ellipse id="XMLID_485_" class="st38" cx="1494.4" cy="1053.7" rx="12.3" ry="13.7"/>
		<ellipse id="XMLID_484_" class="st41" cx="1436" cy="1029.4" rx="14.5" ry="16.1"/>
	</g>
</g>
<path id="XMLID_519_" class="st43" d="M1662.3,1063c8.9-10.4,6.9-23.3-6.4-31.6c-16.4-10.3-43.8-9.8-61.1,1.1
	c-6,3.8-10.1,8.3-12.1,13.1c-8.8,1-17.4,3.7-24.3,8.1c-17.4,10.9-18.1,28.1-1.7,38.4c10.1,6.3,24.4,8.6,37.9,6.9
	c0.1,0.1,0.3,0.2,0.4,0.3c16.4,10.3,43.8,9.8,61.1-1.1C1671.8,1088.3,1674,1073.4,1662.3,1063z"/>
<path id="XMLID_480_" class="st43" d="M1525.3,1145.6c8.9-10.4,6.9-23.3-6.4-31.6c-16.4-10.3-43.8-9.8-61.1,1.1
	c-6,3.8-10.1,8.3-12.1,13.1c-8.8,1-17.4,3.7-24.3,8.1c-17.4,10.9-18.1,28.1-1.7,38.4c10.1,6.3,24.4,8.6,37.9,6.9
	c0.1,0.1,0.3,0.2,0.4,0.3c16.4,10.3,43.8,9.8,61.1-1.1C1534.7,1170.9,1536.9,1156,1525.3,1145.6z"/>
<polygon id="XMLID_668_" class="st38" points="0,1028.8 13.9,1031.8 164.3,937.3 474,1131.9 503,1138.2 503,1150.1 502.2,1150.7 
	338.5,1253.5 0.4,1041 0,1040.7 "/>
<linearGradient id="XMLID_149_" gradientUnits="userSpaceOnUse" x1="411.7212" y1="1083.5209" x2="914.9877" y2="1083.5209" gradientTransform="matrix(-1 0 0 1 914.7213 0)">
	<stop  offset="0" style="stop-color:#8CCC37"/>
	<stop  offset="1" style="stop-color:#82BD33"/>
</linearGradient>
<polygon id="XMLID_667_" class="st44" points="338.5,1241.6 503,1138.3 164.2,925.5 -0.3,1028.8 "/>
<g id="XMLID_633_">
	<path id="XMLID_666_" class="st40" d="M175.3,939.5c2.1,0,3.8,3.7,4,8.4c0.6,19.8,1.3,39.4,1.9,59.2c0.5,18.4,0.8,39.2,1.2,57.6
		c0.2,8.5-3.5,7.7-7.3,7.8c-0.6,0,0.6,0,0,0c-0.8,0,0.8,0,0,0c-3.9,0.2-10.5,0.4-10.2-8.4l1.8-57.9l3-58.9c0.2-4.5,1.9-8,4-8H175.3z
		"/>
	<path id="XMLID_665_" class="st40" d="M157.3,989.6c0.6-0.3,1.6,0.4,2.3,1.8c3,5.6,6,11.2,8.9,16.8c2.7,5.2,5.8,11.2,8.5,16.4
		c1.2,2.4,0.8,5.4-0.2,6.1c-0.2,0.1,0.2-0.1,0,0c-0.2,0.1,0.2-0.1,0,0c-1.1,0.7-3.7-0.8-4.9-3.4l-7.7-17l-7.4-17.5
		c-0.6-1.4-0.6-2.6,0-3L157.3,989.6z"/>
	<path id="XMLID_664_" class="st40" d="M190.9,990c-0.6-0.4-1.7,0.3-2.5,1.6c-3.4,5.5-6.8,10.8-10.1,16.3c-3.1,5.1-6.6,10.9-9.6,16
		c-1.4,2.3-1.1,5.5,0,6.3c0.2,0.1-0.2-0.1,0,0c0.2,0.2-0.2-0.2,0,0c1.1,0.8,4-0.4,5.3-2.9l8.8-16.7l8.6-17.2c0.7-1.3,0.7-2.6,0.1-3
		L190.9,990z"/>
	<g id="XMLID_634_">
		<ellipse id="XMLID_663_" class="st41" cx="211.4" cy="941.6" rx="22.6" ry="25.1"/>
		<ellipse id="XMLID_662_" class="st41" cx="176.7" cy="950.9" rx="28.3" ry="31.4"/>
		<ellipse id="XMLID_661_" class="st41" cx="154" cy="937.3" rx="22.8" ry="25.3"/>
		<ellipse id="XMLID_660_" class="st41" cx="137.1" cy="942.6" rx="22.8" ry="25.3"/>
		<ellipse id="XMLID_659_" class="st41" cx="185.6" cy="922.4" rx="25.7" ry="28.5"/>
		<ellipse id="XMLID_658_" class="st41" cx="161.9" cy="921.3" rx="18.3" ry="20.3"/>
		<ellipse id="XMLID_657_" class="st42" cx="234" cy="951.8" rx="14.5" ry="16.1"/>
		<ellipse id="XMLID_656_" class="st42" cx="213.5" cy="967.9" rx="12.4" ry="16.1"/>
		<ellipse id="XMLID_655_" class="st42" cx="181.5" cy="967.9" rx="14.5" ry="16.1"/>
		<ellipse id="XMLID_654_" class="st42" cx="146.5" cy="967.9" rx="14.5" ry="16.1"/>
		<ellipse id="XMLID_653_" class="st42" cx="196" cy="957.4" rx="14.5" ry="16.1"/>
		<ellipse id="XMLID_652_" class="st42" cx="159.3" cy="957.4" rx="14.5" ry="16.1"/>
		<ellipse id="XMLID_651_" class="st42" cx="132.6" cy="946.5" rx="14.4" ry="15.9"/>
		<ellipse id="XMLID_650_" class="st42" cx="116.1" cy="946.3" rx="14.4" ry="15.9"/>
		<ellipse id="XMLID_649_" class="st38" cx="211.4" cy="981.6" rx="12.3" ry="13.7"/>
		<ellipse id="XMLID_648_" class="st38" cx="167" cy="982.2" rx="12.3" ry="13.7"/>
		<ellipse id="XMLID_647_" class="st38" cx="150.6" cy="984.6" rx="12.3" ry="13.7"/>
		<ellipse id="XMLID_646_" class="st38" cx="192.7" cy="981.6" rx="12.3" ry="13.7"/>
		<ellipse id="XMLID_645_" class="st38" cx="181.5" cy="984.6" rx="12.3" ry="13.7"/>
		<ellipse id="XMLID_644_" class="st38" cx="205" cy="981.6" rx="12.3" ry="13.7"/>
		<ellipse id="XMLID_643_" class="st38" cx="225.9" cy="967.9" rx="12.3" ry="13.7"/>
		<ellipse id="XMLID_642_" class="st38" cx="196" cy="971" rx="12.3" ry="13.7"/>
		<ellipse id="XMLID_641_" class="st38" cx="176.8" cy="976" rx="12.3" ry="13.7"/>
		<ellipse id="XMLID_640_" class="st38" cx="162.9" cy="976" rx="12.3" ry="13.7"/>
		<ellipse id="XMLID_639_" class="st38" cx="154.5" cy="971" rx="12.3" ry="13.7"/>
		<ellipse id="XMLID_638_" class="st38" cx="137.1" cy="976" rx="12.3" ry="13.7"/>
		<ellipse id="XMLID_637_" class="st38" cx="129.1" cy="962.3" rx="12.3" ry="13.7"/>
		<ellipse id="XMLID_636_" class="st38" cx="119.4" cy="962.3" rx="12.3" ry="13.7"/>
		<ellipse id="XMLID_635_" class="st41" cx="177.9" cy="938" rx="14.5" ry="16.1"/>
	</g>
</g>
<g id="XMLID_526_">
	<path id="XMLID_632_" class="st40" d="M300.1,1011.9c2.1,0,3.8,3.7,4,8.4c0.6,19.8,1.3,39.4,1.9,59.2c0.5,18.4,0.8,39.2,1.2,57.6
		c0.2,8.5-3.5,7.7-7.3,7.8c-0.6,0,0.6,0,0,0c-0.8,0,0.8,0,0,0c-3.9,0.2-10.5,0.4-10.2-8.4l1.8-57.9l3-58.9c0.2-4.5,1.9-8,4-8H300.1z
		"/>
	<path id="XMLID_631_" class="st40" d="M282.1,1062c0.6-0.3,1.6,0.4,2.3,1.8c3,5.6,6,11.2,8.9,16.8c2.7,5.2,5.8,11.2,8.5,16.4
		c1.2,2.4,0.8,5.4-0.2,6.1c-0.2,0.1,0.2-0.1,0,0c-0.2,0.1,0.2-0.1,0,0c-1.1,0.7-3.7-0.8-4.9-3.4l-7.7-17l-7.4-17.5
		c-0.6-1.4-0.6-2.6,0-3L282.1,1062z"/>
	<path id="XMLID_630_" class="st40" d="M315.8,1062.4c-0.6-0.4-1.7,0.3-2.5,1.6c-3.4,5.5-6.8,10.8-10.1,16.3
		c-3.1,5.1-6.6,10.9-9.6,16c-1.4,2.3-1.1,5.5,0,6.3c0.2,0.1-0.2-0.1,0,0c0.2,0.2-0.2-0.2,0,0c1.1,0.8,4-0.4,5.3-2.9l8.8-16.7
		l8.6-17.2c0.7-1.3,0.7-2.6,0.1-3L315.8,1062.4z"/>
	<g id="XMLID_528_">
		<ellipse id="XMLID_629_" class="st41" cx="336.2" cy="1014" rx="22.6" ry="25.1"/>
		<ellipse id="XMLID_628_" class="st41" cx="301.6" cy="1023.2" rx="28.3" ry="31.4"/>
		<ellipse id="XMLID_627_" class="st41" cx="278.8" cy="1009.7" rx="22.8" ry="25.3"/>
		<ellipse id="XMLID_626_" class="st41" cx="261.9" cy="1015" rx="22.8" ry="25.3"/>
		<ellipse id="XMLID_625_" class="st41" cx="310.5" cy="994.7" rx="25.7" ry="28.5"/>
		<ellipse id="XMLID_624_" class="st41" cx="286.7" cy="993.7" rx="18.3" ry="20.3"/>
		<ellipse id="XMLID_623_" class="st42" cx="358.8" cy="1024.2" rx="14.5" ry="16.1"/>
		<ellipse id="XMLID_622_" class="st42" cx="338.3" cy="1040.3" rx="12.4" ry="16.1"/>
		<ellipse id="XMLID_621_" class="st42" cx="306.3" cy="1040.3" rx="14.5" ry="16.1"/>
		<ellipse id="XMLID_620_" class="st42" cx="271.4" cy="1040.3" rx="14.5" ry="16.1"/>
		<ellipse id="XMLID_619_" class="st42" cx="320.8" cy="1029.8" rx="14.5" ry="16.1"/>
		<ellipse id="XMLID_618_" class="st42" cx="284.2" cy="1029.8" rx="14.5" ry="16.1"/>
		<ellipse id="XMLID_617_" class="st42" cx="257.4" cy="1018.9" rx="14.4" ry="15.9"/>
		<ellipse id="XMLID_616_" class="st42" cx="241" cy="1018.7" rx="14.4" ry="15.9"/>
		<ellipse id="XMLID_615_" class="st38" cx="336.2" cy="1054" rx="12.3" ry="13.7"/>
		<ellipse id="XMLID_614_" class="st38" cx="291.9" cy="1054.6" rx="12.3" ry="13.7"/>
		<ellipse id="XMLID_613_" class="st38" cx="275.4" cy="1057" rx="12.3" ry="13.7"/>
		<ellipse id="XMLID_612_" class="st38" cx="317.5" cy="1054" rx="12.3" ry="13.7"/>
		<ellipse id="XMLID_611_" class="st38" cx="306.3" cy="1057" rx="12.3" ry="13.7"/>
		<ellipse id="XMLID_610_" class="st38" cx="329.9" cy="1054" rx="12.3" ry="13.7"/>
		<ellipse id="XMLID_609_" class="st38" cx="350.7" cy="1040.3" rx="12.3" ry="13.7"/>
		<ellipse id="XMLID_608_" class="st38" cx="320.8" cy="1043.3" rx="12.3" ry="13.7"/>
		<ellipse id="XMLID_607_" class="st38" cx="301.6" cy="1048.4" rx="12.3" ry="13.7"/>
		<ellipse id="XMLID_606_" class="st38" cx="287.7" cy="1048.4" rx="12.3" ry="13.7"/>
		<ellipse id="XMLID_605_" class="st38" cx="279.4" cy="1043.3" rx="12.3" ry="13.7"/>
		<ellipse id="XMLID_598_" class="st38" cx="261.9" cy="1048.4" rx="12.3" ry="13.7"/>
		<ellipse id="XMLID_595_" class="st38" cx="254" cy="1034.7" rx="12.3" ry="13.7"/>
		<ellipse id="XMLID_594_" class="st38" cx="244.3" cy="1034.7" rx="12.3" ry="13.7"/>
		<ellipse id="XMLID_593_" class="st41" cx="302.8" cy="1010.4" rx="14.5" ry="16.1"/>
	</g>
</g>
<path id="XMLID_525_" class="st43" d="M144.4,1063c-8.9-10.4-6.9-23.3,6.4-31.6c16.4-10.3,43.8-9.8,61.1,1.1
	c6,3.8,10.1,8.3,12.1,13.1c8.8,1,17.4,3.7,24.3,8.1c17.4,10.9,18.1,28.1,1.7,38.4c-10.1,6.3-24.4,8.6-37.9,6.9
	c-0.1,0.1-0.3,0.2-0.4,0.3c-16.4,10.3-43.8,9.8-61.1-1.1C134.9,1088.3,132.7,1073.4,144.4,1063z"/>
<path id="XMLID_523_" class="st43" d="M274.4,1135.6c-8.9-10.4-6.9-23.3,6.4-31.6c16.4-10.3,43.8-9.8,61.1,1.1
	c6,3.8,10.1,8.3,12.1,13.1c8.8,1,17.4,3.7,24.3,8.1c17.4,10.9,18.1,28.1,1.7,38.4c-10.1,6.3-24.4,8.6-37.9,6.9
	c-0.1,0.1-0.3,0.2-0.4,0.3c-16.4,10.3-43.8,9.8-61.1-1.1C265,1160.9,262.8,1146,274.4,1135.6z"/>
<g id="XMLID_602_">
	<g id="XMLID_597_">
		<path id="XMLID_105_" class="st45" d="M1447.4,265l-247,142.6c-12.1,7-21.9-0.4-21.9-16.5V187c0-16.1,9.8-34.8,21.9-41.8
			l247-142.6c12.1-7,21.9,0.4,21.9,16.5v204.1C1469.3,239.4,1459.5,258.1,1447.4,265z"/>
	</g>
	<polygon id="XMLID_599_" class="st45" points="1185,408.4 1199.8,417.6 1473.6,9.4 1459.6,0.5 1191.3,162.5 1185,176.2 	"/>
</g>
<path id="XMLID_596_" class="st46" d="M1460.5,273.5l-247,142.6c-12.1,7-21.9-0.4-21.9-16.5V195.4c0-16.1,9.8-34.8,21.9-41.8
	l247-142.6c12.1-7,21.9,0.4,21.9,16.5v204.1C1482.3,247.8,1472.6,266.5,1460.5,273.5z"/>
<path id="XMLID_103_" class="st47" d="M1393.4,116.4c-5.7-4.3-38.9,46.5-59.6,86c-10.2,19.5-15.3,32-17.1,40.6
	c-6.3,2.8-13.2,10-17.7,18.6c-3,5.7-4.5,10.6-5.7,16.1c-2.4,10.2-4.5,22.6-13.5,35.7c6.6,5,33-7.4,45.5-31.9
	c1.2-2.3,2.4-5.4,3.3-7.9c2.1-6.4,3.3-13.5,2.7-19.1c5.7-5.7,12.9-16.6,23.1-36.1C1375.1,179.3,1399,121.1,1393.4,116.4z"/>
<path id="XMLID_102_" class="st48" d="M1333.7,194.4c-20.4,38.9-20.4,51.3-14.7,56c5.7,4.3,15-0.7,35.7-40.2
	c20.4-38.9,44.3-97.1,38.6-101.8S1354.1,155.5,1333.7,194.4z"/>
<path id="XMLID_100_" class="st49" d="M1279.8,305.4c6.6,5,33-7.4,45.5-31.9c1.2-2.3,2.4-5.4,3.3-7.9c-19.8,10.6-30.3,7.9-35.7,4.2
	C1290.9,279.8,1288.8,292.2,1279.8,305.4z"/>
<path id="XMLID_99_" class="st50" d="M1327.1,234.9c-7.2-5.4-20.7,4.3-28.2,18.3c-3,5.7-4.5,10.6-5.7,16.1
	c5.1,3.9,15.3,18.7,35.7-4.2C1333.1,253.1,1332.8,239.6,1327.1,234.9z"/>
<path id="XMLID_97_" class="st49" d="M1293.3,269.7c0,0,12-10.1,17.7-1.8c5.7,7.9,17.7-2.2,17.7-2.2l-15.3,20.4l-15.6-6.2
	L1293.3,269.7z"/>
<g id="XMLID_670_">
	<g id="XMLID_700_">
		<g id="XMLID_702_">
			<path id="XMLID_703_" class="st45" d="M423.5,527.1l-197,113.8c-9.6,5.6-17.4-0.3-17.4-13.2V464.8c0-12.8,7.8-27.8,17.4-33.3
				l197-113.8c9.6-5.6,17.4,0.3,17.4,13.2v162.9C440.9,506.6,433.1,521.5,423.5,527.1z"/>
		</g>
		<polygon id="XMLID_701_" class="st45" points="214,641.5 225.9,648.8 444.4,323.1 433.2,316 219.1,445.2 214,456.2 		"/>
	</g>
	<path id="XMLID_699_" class="st46" d="M433.9,533.8l-197,113.8c-9.6,5.6-17.4-0.3-17.4-13.2V471.5c0-12.8,7.8-27.8,17.4-33.3
		l197-113.8c9.6-5.6,17.4,0.3,17.4,13.2v162.9C451.3,513.3,443.5,528.2,433.9,533.8z"/>
</g>
<path id="XMLID_682_" class="st51" d="M346.7,527.2l-23,13.3c-1.3,0.7-2.3,2.7-2.3,4.4c0,1.7,1,2.5,2.3,1.7l23-13.3
	c1.3-0.7,2.3-2.7,2.3-4.4C349,527.2,348,526.4,346.7,527.2z"/>
<path id="XMLID_681_" class="st51" d="M346.7,535l-23,13.3c-1.3,0.7-2.3,2.7-2.3,4.4c0,1.7,1,2.5,2.3,1.7l23-13.3
	c1.3-0.7,2.3-2.7,2.3-4.4C349,535.1,348,534.3,346.7,535z"/>
<path id="XMLID_677_" class="st51" d="M330.6,558.8l9.2-5.3c2.5-1.5,4.6-5.4,4.6-8.8L326,555.3C326,558.7,328.1,560.3,330.6,558.8z"
	/>
<path id="XMLID_684_" class="st48" d="M335.2,449.4c-14,8.1-25.3,30.5-25.3,50.2c0,14.5,5.6,15.9,8.6,24.6c1,2.9,0.8,7.5,1.2,12.6
	c0,2,1.1,3,2.5,2.2l13-7.5l12.9-7.4c1.4-0.8,2.5-3.1,2.5-5.1c0.4-5.5,0.2-9.9,1.2-13.9c3-12.2,8.6-20,8.6-34.6
	C360.5,450.8,349.2,441.3,335.2,449.4z"/>
<path id="XMLID_687_" class="st52" d="M335.3,444L335.3,444c-0.4,0.3-0.8,0-0.8-0.6v-11.4c0-0.6,0.4-1.2,0.8-1.5l0,0
	c0.4-0.3,0.8,0,0.8,0.6v11.4C336.1,443.1,335.7,443.8,335.3,444z"/>
<path id="XMLID_688_" class="st52" d="M361,491.4L361,491.4c0.2-0.6,0.7-1.1,1.1-1l7.4,1.4c0.4,0.1,0.5,0.6,0.3,1.3l0,0
	c-0.2,0.6-0.7,1.1-1.1,1l-7.4-1.4C360.9,492.5,360.8,492,361,491.4z"/>
<path id="XMLID_689_" class="st52" d="M365.1,468L365.1,468c0-0.6,0.4-1.2,0.8-1.5l8.5-4.9c0.4-0.3,0.8,0,0.8,0.6v0
	c0,0.6-0.4,1.2-0.8,1.5l-8.5,4.9C365.5,468.8,365.1,468.6,365.1,468z"/>
<path id="XMLID_690_" class="st52" d="M361,449.7L361,449.7c-0.2-0.4-0.1-1.1,0.3-1.6l7.4-9.9c0.4-0.5,0.9-0.6,1.1-0.2l0,0
	c0.2,0.4,0.1,1.1-0.3,1.6l-7.4,9.9C361.7,450,361.2,450.1,361,449.7z"/>
<path id="XMLID_691_" class="st52" d="M349.7,440.9L349.7,440.9c-0.4-0.1-0.5-0.6-0.3-1.3l4.3-12.3c0.2-0.6,0.7-1.1,1.1-1l0,0
	c0.4,0.1,0.5,0.6,0.3,1.3l-4.3,12.3C350.5,440.6,350,441,349.7,440.9z"/>
<path id="XMLID_686_" class="st52" d="M309.6,521.1L309.6,521.1c-0.2-0.4-0.7-0.3-1.1,0.2l-7.4,9.9c-0.4,0.5-0.5,1.2-0.3,1.6v0
	c0.2,0.4,0.7,0.3,1.1-0.2l7.4-9.9C309.6,522.2,309.8,521.4,309.6,521.1z"/>
<path id="XMLID_685_" class="st52" d="M305.5,502.5L305.5,502.5c0-0.6-0.4-0.8-0.8-0.6l-8.5,4.9c-0.4,0.3-0.8,0.9-0.8,1.5l0,0
	c0,0.6,0.4,0.8,0.8,0.6l8.5-4.9C305.1,503.7,305.5,503,305.5,502.5z"/>
<path id="XMLID_683_" class="st52" d="M309.6,479.4L309.6,479.4c0.2-0.6,0.1-1.2-0.3-1.3l-7.4-1.4c-0.4-0.1-0.9,0.4-1.1,1l0,0
	c-0.2,0.6-0.1,1.2,0.3,1.3l7.4,1.4C308.9,480.4,309.4,480,309.6,479.4z"/>
<path id="XMLID_671_" class="st52" d="M320.9,457.5L320.9,457.5c0.4-0.5,0.5-1.2,0.3-1.6l-4.3-7.4c-0.2-0.4-0.7-0.3-1.1,0.2l0,0
	c-0.4,0.5-0.5,1.2-0.3,1.6l4.3,7.4C320.1,458.1,320.5,458,320.9,457.5z"/>
<g id="XMLID_880_">
	<g id="XMLID_819_">
		<g id="XMLID_705_">
			<g id="XMLID_707_">
				<path id="XMLID_708_" class="st45" d="M1000.1,625L666.4,817.7c-16.3,9.4-29.5-0.6-29.5-22.3V519.5c0-21.8,13.2-47,29.5-56.4
					l333.7-192.7c16.3-9.4,29.5,0.6,29.5,22.3v275.8C1029.7,590.3,1016.4,615.6,1000.1,625z"/>
			</g>
			<polygon id="XMLID_706_" class="st45" points="645,818.9 665.3,831.3 1035.4,279.6 1016.5,267.6 653.8,486.5 645,505.2 			"/>
		</g>
		<path id="XMLID_704_" class="st46" d="M1017.7,636.4L684,829.1c-16.3,9.4-29.5-0.6-29.5-22.3V530.9c0-21.8,13.2-47,29.5-56.4
			l333.7-192.7c16.3-9.4,29.5,0.6,29.5,22.3v275.8C1047.3,601.7,1034.1,627,1017.7,636.4z"/>
	</g>
	<path id="XMLID_815_" class="st53" d="M690.2,533.1l-5.9,3.4c-1,0.6-1.8,0-1.8-1.4v-3c0-1.4,0.8-2.9,1.8-3.5l5.9-3.4
		c1-0.6,1.8,0,1.8,1.4v3C692.1,530.9,691.2,532.5,690.2,533.1z"/>
	<path id="XMLID_811_" class="st53" d="M846.7,466.2L763.9,514c-1,0.6-1.8,0-1.8-1.4v-3c0-1.4,0.8-2.9,1.8-3.5l82.8-47.8
		c1-0.6,1.8,0,1.8,1.4v3C848.5,464,847.7,465.6,846.7,466.2z"/>
	<path id="XMLID_809_" class="st53" d="M900,447.1l-54.4,31.4c-1,0.6-1.8,0-1.8-1.4v-3c0-1.4,0.8-2.9,1.8-3.5l54.4-31.4
		c1-0.6,1.8,0,1.8,1.4v3C901.8,444.9,901,446.5,900,447.1z"/>
	<path id="XMLID_808_" class="st53" d="M822.6,503.5l-76.9,44.4c-1,0.6-1.8,0-1.8-1.4v-3c0-1.4,0.8-2.9,1.8-3.5l76.9-44.4
		c1-0.6,1.8,0,1.8,1.4v3C824.4,501.3,823.6,502.9,822.6,503.5z"/>
	<path id="XMLID_806_" class="st53" d="M774.6,542.9l-14.5,8.4c-1,0.6-1.8,0-1.8-1.4v-3c0-1.4,0.8-2.9,1.8-3.5l14.5-8.4
		c1-0.6,1.8,0,1.8,1.4v3C776.4,540.7,775.6,542.3,774.6,542.9z"/>
	<path id="XMLID_804_" class="st53" d="M969.6,430.3L840.2,505c-1,0.6-1.8,0-1.8-1.4v-3c0-1.4,0.8-2.9,1.8-3.5l129.4-74.7
		c1-0.6,1.8,0,1.8,1.4v3C971.5,428.1,970.6,429.7,969.6,430.3z"/>
	<path id="XMLID_803_" class="st53" d="M801.1,539.2l-55.5,32c-1,0.6-1.8,0-1.8-1.4v-3c0-1.4,0.8-2.9,1.8-3.5l55.5-32
		c1-0.6,1.8,0,1.8,1.4v3C803,537.1,802.2,538.6,801.1,539.2z"/>
	<path id="XMLID_802_" class="st53" d="M863.1,503.4l-55.5,32c-1,0.6-1.8,0-1.8-1.4v-3c0-1.4,0.8-2.9,1.8-3.5l55.5-32
		c1-0.6,1.8,0,1.8,1.4v3C865,501.3,864.2,502.9,863.1,503.4z"/>
	<path id="XMLID_800_" class="st53" d="M1003.1,422.6l-32.5,18.7c-1,0.6-1.8,0-1.8-1.4v-3c0-1.4,0.8-2.9,1.8-3.5l32.5-18.7
		c1-0.6,1.8,0,1.8,1.4v3C1004.9,420.5,1004.1,422,1003.1,422.6z"/>
	<path id="XMLID_799_" class="st53" d="M946.9,466.9L760,574.8c-1,0.6-1.8,0-1.8-1.4v-3c0-1.4,0.8-2.9,1.8-3.5L946.9,459
		c1-0.6,1.8,0,1.8,1.4v3C948.8,464.7,947.9,466.3,946.9,466.9z"/>
	<path id="XMLID_797_" class="st53" d="M861.4,527.8l-80.6,46.6c-1,0.6-1.8,0-1.8-1.4v-3c0-1.4,0.8-2.9,1.8-3.5l80.6-46.6
		c1-0.6,1.8,0,1.8,1.4v3C863.2,525.7,862.4,527.3,861.4,527.8z"/>
	<g id="XMLID_816_">
		<path id="XMLID_813_" class="st54" d="M740.7,515.7L717,529.4c-1,0.6-1.8,0-1.8-1.4v-3c0-1.4,0.8-2.9,1.8-3.5l23.8-13.7
			c1-0.6,1.8,0,1.8,1.4v3C742.6,513.5,741.7,515.1,740.7,515.7z"/>
		<path id="XMLID_810_" class="st54" d="M836.6,483.7l-90.9,52.5c-1,0.6-1.8,0-1.8-1.4v-3c0-1.4,0.8-2.9,1.8-3.5l90.9-52.5
			c1-0.6,1.8,0,1.8,1.4v3C838.4,481.5,837.6,483.1,836.6,483.7z"/>
		<path id="XMLID_805_" class="st54" d="M833.6,508.8l-52.8,30.5c-1,0.6-1.8,0-1.8-1.4v-3c0-1.4,0.8-2.9,1.8-3.5l52.8-30.5
			c1-0.6,1.8,0,1.8,1.4v3C835.4,506.7,834.6,508.2,833.6,508.8z"/>
		<path id="XMLID_798_" class="st54" d="M774.6,578.1l-28.9,16.7c-1,0.6-1.8,0-1.8-1.4v-3c0-1.4,0.8-2.9,1.8-3.5l28.9-16.7
			c1-0.6,1.8,0,1.8,1.4v3C776.4,575.9,775.6,577.5,774.6,578.1z"/>
		<path id="XMLID_795_" class="st54" d="M742.9,643l-27,15.6c-1,0.6-1.8,0-1.8-1.4v-3c0-1.4,0.8-2.9,1.8-3.5l27-15.6
			c1-0.6,1.8,0,1.8,1.4v3C744.8,640.8,744,642.4,742.9,643z"/>
		<path id="XMLID_794_" class="st54" d="M822.6,608.7l-77.9,45c-1,0.6-1.8,0-1.8-1.4v-3c0-1.4,0.8-2.9,1.8-3.5l77.9-45
			c1-0.6,1.8,0,1.8,1.4v3C824.4,606.5,823.6,608.1,822.6,608.7z"/>
		<path id="XMLID_791_" class="st54" d="M783.7,666.3L716,705.3c-1,0.6-1.8,0-1.8-1.4v-3c0-1.4,0.8-2.9,1.8-3.5l67.7-39.1
			c1-0.6,1.8,0,1.8,1.4v3C785.5,664.1,784.7,665.7,783.7,666.3z"/>
		<path id="XMLID_790_" class="st54" d="M804,677.9L746.6,711c-1,0.6-1.8,0-1.8-1.4v-3c0-1.4,0.8-2.9,1.8-3.5L804,670
			c1-0.6,1.8,0,1.8,1.4v3C805.8,675.7,805,677.3,804,677.9z"/>
	</g>
	<g id="XMLID_693_">
		<path id="XMLID_814_" class="st55" d="M740.7,504L717,517.7c-1,0.6-1.8,0-1.8-1.4v-3c0-1.4,0.8-2.9,1.8-3.5l23.8-13.7
			c1-0.6,1.8,0,1.8,1.4v3C742.6,501.8,741.7,503.4,740.7,504z"/>
		<path id="XMLID_812_" class="st55" d="M756.3,518.3l-25,14.4c-1,0.6-1.8,0-1.8-1.4v-3c0-1.4,0.8-2.9,1.8-3.5l25-14.4
			c1-0.6,1.8,0,1.8,1.4v3C758.2,516.2,757.3,517.7,756.3,518.3z"/>
		<path id="XMLID_796_" class="st55" d="M756.3,611.9l-25,14.4c-1,0.6-1.8,0-1.8-1.4v-3c0-1.4,0.8-2.9,1.8-3.5l25-14.4
			c1-0.6,1.8,0,1.8,1.4v3C758.2,609.7,757.3,611.3,756.3,611.9z"/>
		<path id="XMLID_793_" class="st55" d="M781.8,643.9l-49.5,28.6c-1,0.6-1.8,0-1.8-1.4v-3c0-1.4,0.8-2.9,1.8-3.5l49.5-28.6
			c1-0.6,1.8,0,1.8,1.4v3C783.6,641.8,782.8,643.4,781.8,643.9z"/>
		<path id="XMLID_789_" class="st55" d="M785.5,700.3L732.3,731c-1,0.6-1.8,0-1.8-1.4v-3c0-1.4,0.8-2.9,1.8-3.5l53.2-30.7
			c1-0.6,1.8,0,1.8,1.4v3C787.3,698.1,786.5,699.7,785.5,700.3z"/>
		<path id="XMLID_787_" class="st55" d="M755.2,729.5L716,752.1c-1,0.6-1.8,0-1.8-1.4v-3c0-1.4,0.8-2.9,1.8-3.5l39.2-22.6
			c1-0.6,1.8,0,1.8,1.4v3C757,727.3,756.2,728.9,755.2,729.5z"/>
	</g>
	<path id="XMLID_786_" class="st53" d="M760.2,597.9l-14.5,8.4c-1,0.6-1.8,0-1.8-1.4v-3c0-1.4,0.8-2.9,1.8-3.5l14.5-8.4
		c1-0.6,1.8,0,1.8,1.4v3C762,595.8,761.2,597.4,760.2,597.9z"/>
	<path id="XMLID_785_" class="st53" d="M838.7,552.6l-69.5,40.1c-1,0.6-1.8,0-1.8-1.4v-3c0-1.4,0.8-2.9,1.8-3.5l69.5-40.1
		c1-0.6,1.8,0,1.8,1.4v3C840.5,550.5,839.7,552.1,838.7,552.6z"/>
	<g id="XMLID_817_">
		<path id="XMLID_807_" class="st56" d="M926.6,443.4l-94.8,54.7c-1,0.6-1.8,0-1.8-1.4v-3c0-1.4,0.8-2.9,1.8-3.5l94.8-54.7
			c1-0.6,1.8,0,1.8,1.4v3C928.4,441.3,927.6,442.8,926.6,443.4z"/>
		<path id="XMLID_801_" class="st56" d="M963.8,445.3l-92.7,53.5c-1,0.6-1.8,0-1.8-1.4v-3c0-1.4,0.8-2.9,1.8-3.5l92.7-53.5
			c1-0.6,1.8,0,1.8,1.4v3C965.6,443.2,964.8,444.7,963.8,445.3z"/>
		<path id="XMLID_792_" class="st56" d="M857.1,600.5l-67.9,39.2c-1,0.6-1.8,0-1.8-1.4v-3c0-1.4,0.8-2.9,1.8-3.5l67.9-39.2
			c1-0.6,1.8,0,1.8,1.4v3C858.9,598.3,858.1,599.9,857.1,600.5z"/>
		<path id="XMLID_788_" class="st56" d="M847.7,664.4l-53.2,30.7c-1,0.6-1.8,0-1.8-1.4v-3c0-1.4,0.8-2.9,1.8-3.5l53.2-30.7
			c1-0.6,1.8,0,1.8,1.4v3C849.5,662.2,848.7,663.8,847.7,664.4z"/>
		<path id="XMLID_784_" class="st56" d="M917.6,507.1L848,547.2c-1,0.6-1.8,0-1.8-1.4v-3c0-1.4,0.8-2.9,1.8-3.5l69.5-40.1
			c1-0.6,1.8,0,1.8,1.4v3C919.4,504.9,918.6,506.5,917.6,507.1z"/>
	</g>
	<path id="XMLID_783_" class="st53" d="M690.2,544.8l-5.9,3.4c-1,0.6-1.8,0-1.8-1.4v-3c0-1.4,0.8-2.9,1.8-3.5l5.9-3.4
		c1-0.6,1.8,0,1.8,1.4v3C692.1,542.6,691.2,544.2,690.2,544.8z"/>
	<path id="XMLID_782_" class="st53" d="M690.2,556.5l-5.9,3.4c-1,0.6-1.8,0-1.8-1.4v-3c0-1.4,0.8-2.9,1.8-3.5l5.9-3.4
		c1-0.6,1.8,0,1.8,1.4v3C692.1,554.3,691.2,555.9,690.2,556.5z"/>
	<path id="XMLID_781_" class="st53" d="M690.2,568.2l-5.9,3.4c-1,0.6-1.8,0-1.8-1.4v-3c0-1.4,0.8-2.9,1.8-3.5l5.9-3.4
		c1-0.6,1.8,0,1.8,1.4v3C692.1,566,691.2,567.6,690.2,568.2z"/>
	<path id="XMLID_780_" class="st53" d="M690.2,579.9l-5.9,3.4c-1,0.6-1.8,0-1.8-1.4v-3c0-1.4,0.8-2.9,1.8-3.5l5.9-3.4
		c1-0.6,1.8,0,1.8,1.4v3C692.1,577.7,691.2,579.3,690.2,579.9z"/>
	<path id="XMLID_779_" class="st53" d="M690.2,591.6l-5.9,3.4c-1,0.6-1.8,0-1.8-1.4v-3c0-1.4,0.8-2.9,1.8-3.5l5.9-3.4
		c1-0.6,1.8,0,1.8,1.4v3C692.1,589.4,691.2,591,690.2,591.6z"/>
	<path id="XMLID_778_" class="st53" d="M690.2,603.3l-5.9,3.4c-1,0.6-1.8,0-1.8-1.4v-3c0-1.4,0.8-2.9,1.8-3.5l5.9-3.4
		c1-0.6,1.8,0,1.8,1.4v3C692.1,601.1,691.2,602.7,690.2,603.3z"/>
	<path id="XMLID_777_" class="st53" d="M690.2,615l-5.9,3.4c-1,0.6-1.8,0-1.8-1.4v-3c0-1.4,0.8-2.9,1.8-3.5l5.9-3.4
		c1-0.6,1.8,0,1.8,1.4v3C692.1,612.8,691.2,614.4,690.2,615z"/>
	<path id="XMLID_776_" class="st53" d="M690.2,626.7l-5.9,3.4c-1,0.6-1.8,0-1.8-1.4v-3c0-1.4,0.8-2.9,1.8-3.5l5.9-3.4
		c1-0.6,1.8,0,1.8,1.4v3C692.1,624.5,691.2,626.1,690.2,626.7z"/>
	<path id="XMLID_775_" class="st53" d="M690.2,638.3l-5.9,3.4c-1,0.6-1.8,0-1.8-1.4v-3c0-1.4,0.8-2.9,1.8-3.5l5.9-3.4
		c1-0.6,1.8,0,1.8,1.4v3C692.1,636.2,691.2,637.8,690.2,638.3z"/>
	<path id="XMLID_774_" class="st53" d="M690.2,650l-5.9,3.4c-1,0.6-1.8,0-1.8-1.4v-3c0-1.4,0.8-2.9,1.8-3.5l5.9-3.4
		c1-0.6,1.8,0,1.8,1.4v3C692.1,647.9,691.2,649.5,690.2,650z"/>
	<path id="XMLID_773_" class="st53" d="M690.2,661.7l-5.9,3.4c-1,0.6-1.8,0-1.8-1.4v-3c0-1.4,0.8-2.9,1.8-3.5l5.9-3.4
		c1-0.6,1.8,0,1.8,1.4v3C692.1,659.6,691.2,661.1,690.2,661.7z"/>
	<path id="XMLID_772_" class="st53" d="M690.2,673.4l-5.9,3.4c-1,0.6-1.8,0-1.8-1.4v-3c0-1.4,0.8-2.9,1.8-3.5l5.9-3.4
		c1-0.6,1.8,0,1.8,1.4v3C692.1,671.3,691.2,672.8,690.2,673.4z"/>
	<path id="XMLID_771_" class="st53" d="M690.2,685.1l-5.9,3.4c-1,0.6-1.8,0-1.8-1.4v-3c0-1.4,0.8-2.9,1.8-3.5l5.9-3.4
		c1-0.6,1.8,0,1.8,1.4v3C692.1,683,691.2,684.5,690.2,685.1z"/>
	<path id="XMLID_770_" class="st53" d="M690.2,696.8l-5.9,3.4c-1,0.6-1.8,0-1.8-1.4v-3c0-1.4,0.8-2.9,1.8-3.5l5.9-3.4
		c1-0.6,1.8,0,1.8,1.4v3C692.1,694.6,691.2,696.2,690.2,696.8z"/>
	<path id="XMLID_769_" class="st53" d="M690.2,708.5l-5.9,3.4c-1,0.6-1.8,0-1.8-1.4v-3c0-1.4,0.8-2.9,1.8-3.5l5.9-3.4
		c1-0.6,1.8,0,1.8,1.4v3C692.1,706.3,691.2,707.9,690.2,708.5z"/>
	<path id="XMLID_768_" class="st53" d="M690.2,720.2l-5.9,3.4c-1,0.6-1.8,0-1.8-1.4v-3c0-1.4,0.8-2.9,1.8-3.5l5.9-3.4
		c1-0.6,1.8,0,1.8,1.4v3C692.1,718,691.2,719.6,690.2,720.2z"/>
	<path id="XMLID_767_" class="st53" d="M690.2,731.9l-5.9,3.4c-1,0.6-1.8,0-1.8-1.4v-3c0-1.4,0.8-2.9,1.8-3.5l5.9-3.4
		c1-0.6,1.8,0,1.8,1.4v3C692.1,729.7,691.2,731.3,690.2,731.9z"/>
	<path id="XMLID_766_" class="st53" d="M690.2,743.6l-5.9,3.4c-1,0.6-1.8,0-1.8-1.4v-3c0-1.4,0.8-2.9,1.8-3.5l5.9-3.4
		c1-0.6,1.8,0,1.8,1.4v3C692.1,741.4,691.2,743,690.2,743.6z"/>
	<path id="XMLID_765_" class="st53" d="M690.2,755.3l-5.9,3.4c-1,0.6-1.8,0-1.8-1.4v-3c0-1.4,0.8-2.9,1.8-3.5l5.9-3.4
		c1-0.6,1.8,0,1.8,1.4v3C692.1,753.1,691.2,754.7,690.2,755.3z"/>
	<path id="XMLID_764_" class="st53" d="M690.2,767l-5.9,3.4c-1,0.6-1.8,0-1.8-1.4v-3c0-1.4,0.8-2.9,1.8-3.5l5.9-3.4
		c1-0.6,1.8,0,1.8,1.4v3C692.1,764.8,691.2,766.4,690.2,767z"/>
	<path id="XMLID_763_" class="st53" d="M690.2,778.7l-5.9,3.4c-1,0.6-1.8,0-1.8-1.4v-3c0-1.4,0.8-2.9,1.8-3.5l5.9-3.4
		c1-0.6,1.8,0,1.8,1.4v3C692.1,776.5,691.2,778.1,690.2,778.7z"/>
	<path id="XMLID_762_" class="st53" d="M690.2,790.4l-5.9,3.4c-1,0.6-1.8,0-1.8-1.4v-3c0-1.4,0.8-2.9,1.8-3.5l5.9-3.4
		c1-0.6,1.8,0,1.8,1.4v3C692.1,788.2,691.2,789.8,690.2,790.4z"/>
	<g id="XMLID_818_">
		<line id="XMLID_761_" class="st57" x1="701" y1="500.3" x2="701" y2="799.3"/>
		<line id="XMLID_760_" class="st57" x1="699.5" y1="500.1" x2="1018.2" y2="316.1"/>
	</g>
</g>
</svg>
