<?xml version="1.0" encoding="utf-8"?>
<!-- Generator: Adobe Illustrator 19.0.0, SVG Export Plug-In . SVG Version: 6.00 Build 0)  -->
<svg version="1.1" id="Layer_1" xmlns="http://www.w3.org/2000/svg" xmlns:xlink="http://www.w3.org/1999/xlink" x="0px" y="0px"
	 viewBox="0 0 3634.2 921" style="enable-background:new 0 0 3634.2 921;" xml:space="preserve">
<style type="text/css">
	.st0{clip-path:url(#XMLID_158_);fill:url(#XMLID_159_);}
	.st1{clip-path:url(#XMLID_158_);fill:#FFFFFF;fill-opacity:3.000000e-002;}
</style>
<g id="XMLID_81_">
	<defs>
		<rect id="XMLID_105_" x="-10.8" width="3667" height="921"/>
	</defs>
	<clipPath id="XMLID_158_">
		<use xlink:href="#XMLID_105_"  style="overflow:visible;"/>
	</clipPath>
	
		<linearGradient id="XMLID_159_" gradientUnits="userSpaceOnUse" x1="1848.728" y1="84.5186" x2="4070.9216" y2="841.1673" gradientTransform="matrix(1 0 0 -1 0 921.9935)">
		<stop  offset="0" style="stop-color:#1D5781"/>
		<stop  offset="0.9998" style="stop-color:#3E7EAB"/>
	</linearGradient>
	<path id="XMLID_104_" class="st0" d="M4542,0l5.9,1385.4H1980.4H0L0,0h1616.2H4115H4542z"/>
	<path id="XMLID_101_" class="st1" d="M1269,856.2V679.8v-28.2l263.1-147v201.1L1269,856.2z"/>
	<path id="XMLID_98_" class="st1" d="M1141.1,777V662.7v-18.3l170.4-95.2v130.3L1141.1,777z"/>
	<path id="XMLID_197_" class="st1" d="M2498.7,812V635.7v-28.2l263.1-147v201.1L2498.7,812z"/>
	<path id="XMLID_82_" class="st1" d="M2370.9,732.8V618.5v-18.3l170.4-95.2v130.3L2370.9,732.8z"/>
	<path id="XMLID_95_" class="st1" d="M2423.3,0l-91.8,51.2v22.3v139.1l208-118.7V0H2423.3z"/>
	<path id="XMLID_92_" class="st1" d="M1900.3,0l-77.5,43.3v17.4v108.9l162.4-92.9V0H1900.3z"/>
	<path id="XMLID_89_" class="st1" d="M1373.5,0l-147.2,82.2v28.2v176.4l263.1-150.5V0H1373.5z"/>
	<path id="XMLID_86_" class="st1" d="M1310.9,0l-262.4,146.6v28.2v176.4l263.1-150.5V0H1310.9z"/>
	<path id="XMLID_83_" class="st1" d="M488,361.9L420,312.4v-12.6L560.7,221v107.9L488,361.9z"/>
</g>
</svg>
