<?xml version="1.0" encoding="UTF-8"?>
<svg width="157px" height="107px" viewBox="0 0 157 107" version="1.1" xmlns="http://www.w3.org/2000/svg" xmlns:xlink="http://www.w3.org/1999/xlink">
    <!-- Generator: Sketch 60.1 (88133) - https://sketch.com -->
    <title>icon1</title>
    <desc>Created with Sketch.</desc>
    <g id="icon1" stroke="none" stroke-width="1" fill="none" fill-rule="evenodd">
        <rect fill="#FFFFFF" opacity="0" x="0" y="0" width="157" height="107"></rect>
        <path d="M78.8170062,95.525 C75.9880062,95.525 73.1560062,94.904 71.0030062,93.661 L19.2450062,63.778 C17.0790062,62.527 15.9970062,60.875 16,59.226 L16.0270062,50.267 L16.0270062,50.231 L16.0280062,50.244 C16.0270062,48.611 17.0890062,46.98 19.2200062,45.742 L70.6330062,15.866 C72.7710062,14.622 75.5960062,14 78.4250062,14 C81.2540062,14 84.0860062,14.622 86.2400062,15.866 L137.997006,45.747 C140.283006,47.067 141.349006,48.831 141.219006,50.57 L141.241006,50.3 L141.216006,59.295 C141.210006,60.921 140.148006,62.547 138.022006,63.784 L86.6090062,93.661 C84.4700062,94.904 81.6450062,95.525 78.8170062,95.525 M138.797006,54.306 C138.564006,54.472 138.315006,54.633 138.048006,54.788 C138.315006,54.633 138.564006,54.472 138.797006,54.306 M139.447006,53.79 C139.314006,53.909 139.162006,54.021 139.013006,54.135 C139.162006,54.021 139.314006,53.909 139.447006,53.79 M139.996006,53.248 C139.890006,53.367 139.765006,53.481 139.645006,53.596 C139.765006,53.481 139.890006,53.367 139.996006,53.248 M140.445006,52.683 C140.363006,52.801 140.263006,52.916 140.168006,53.032 C140.263006,52.916 140.363006,52.801 140.445006,52.683 M140.794006,52.099 C140.735006,52.215 140.660006,52.327 140.590006,52.442 C140.660006,52.327 140.735006,52.215 140.794006,52.099 M141.043006,51.501 C141.005006,51.616 140.951006,51.728 140.902006,51.84 C140.951006,51.728 141.005006,51.616 141.043006,51.501 M141.191006,50.896 C141.173006,51.005 141.140006,51.114 141.112006,51.222 C141.140006,51.114 141.173006,51.005 141.191006,50.896" id="Fill-12" fill="#BBBBB6"></path>
        <path d="M19.2710062,52.783 L19.2450062,61.778 C17.0790062,60.527 15.9970062,58.875 16,57.226 L16.0270062,48.231 C16.0200062,49.88 17.1040062,51.533 19.2710062,52.783" id="Fill-422" fill="#E8E8E5"></path>
        <polyline id="Fill-423" fill="#EEEEEB" points="138.048006 52.788 138.021006 61.784 86.6090062 91.661 86.6360062 82.665 138.048006 52.788"></polyline>
        <polyline id="Fill-424" fill="#E8E8E5" points="71.0290062 82.665 71.0030062 91.661 19.2450062 61.778 19.2710062 52.783 71.0290062 82.665"></polyline>
        <path d="M137.997006,43.747 C142.304006,46.235 142.326006,50.301 138.048006,52.788 L86.6360062,82.665 C82.3570062,85.153 75.3350062,85.153 71.0290062,82.665 L19.2710062,52.783 C14.9660062,50.298 14.9410062,46.229 19.2200062,43.742 L70.6330062,13.866 C74.9100062,11.378 81.9330062,11.378 86.2400062,13.866 L137.997006,43.747" id="Fill-425" fill="#FFFFFE"></path>
        <path d="M86.6360062,82.665 L86.6090062,91.661 C82.3320062,94.147 75.3090062,94.147 71.0030062,91.661 L71.0290062,82.665 C75.3350062,85.153 82.3570062,85.153 86.6360062,82.665" id="Fill-426" fill="#EBEBE8"></path>
        <polyline id="Fill-427" fill="#50B796" points="103.889006 27.824 94.5760062 48.196 68.7450062 33.281 103.889006 27.824"></polyline>
        <polyline id="Fill-428" fill="#3BA989" points="103.889006 27.824 103.862006 36.957 94.5510062 57.328 94.5760062 48.196 103.889006 27.824"></polyline>
        <polyline id="Fill-429" fill="#3A9E81" points="94.5760062 48.196 94.5510062 57.328 68.7200062 42.413 68.7450062 33.281 94.5760062 48.196"></polyline>
        <polyline id="Fill-430" fill="#CA5A45" points="68.7450062 33.281 68.7200062 42.413 59.4160062 62.788 59.4410062 53.654 68.7450062 33.281"></polyline>
        <polyline id="Fill-431" fill="#EAB42A" points="94.5760062 48.196 59.4410062 53.654 68.7450062 33.281 94.5760062 48.196"></polyline>
        <polyline id="Fill-432" fill="#D3A42F" points="94.5760062 48.196 94.5510062 57.328 59.4160062 62.788 59.4410062 53.654 94.5760062 48.196"></polyline>
        <polyline id="Fill-433" fill="#E1634C" points="68.7450062 33.281 59.4410062 53.654 33.6030062 38.736 68.7450062 33.281"></polyline>
        <polyline id="Fill-434" fill="#BD5442" points="59.4410062 53.654 59.4160062 62.788 33.5780062 47.871 33.6030062 38.736 59.4410062 53.654"></polyline>
        <polyline id="Fill-435" fill="#847872" points="94.5760062 48.196 85.2730062 68.569 59.4410062 53.654 94.5760062 48.196"></polyline>
        <polyline id="Fill-436" fill="#776D67" points="94.5760062 48.196 94.5510062 57.328 85.2470062 77.702 85.2730062 68.569 94.5760062 48.196"></polyline>
        <polyline id="Fill-437" fill="#6E6560" points="85.2730062 68.569 85.2470062 77.702 59.4160062 62.788 59.4410062 53.654 85.2730062 68.569"></polyline>
        <path d="M141.241939,57.1978454 C141.236939,58.8248454 140.102734,60.5678383 137.977734,61.8038383 L137.922506,52.8575 C140.048506,51.6225 141.216,49.627 141.221,48 L141.241939,57.1978454 Z" id="Fill-247" fill="#EEEEEB"></path>
    </g>
</svg>