<?xml version="1.0" encoding="UTF-8"?>
<svg width="157px" height="107px" viewBox="0 0 157 107" version="1.1" xmlns="http://www.w3.org/2000/svg" xmlns:xlink="http://www.w3.org/1999/xlink">
    <!-- Generator: Sketch 60.1 (88133) - https://sketch.com -->
    <title>icon6</title>
    <desc>Created with Sketch.</desc>
    <g id="icon6" stroke="none" stroke-width="1" fill="none" fill-rule="evenodd">
        <rect fill="#FFFFFF" opacity="0" x="0" y="0" width="157" height="107"></rect>
        <path d="M78.816011,95.52525 C75.987011,95.52525 73.155011,94.90425 71.002011,93.66025 L19.244011,63.77825 C17.078011,62.52525 15.996011,60.87625 16,59.22525 L16.025011,50.26325 L16.025011,50.23125 L16.026011,50.24625 C16.024011,48.61325 17.087011,46.98125 19.219011,45.74225 L70.632011,15.86525 C72.770011,14.62125 75.595011,13.99925 78.424011,13.99925 C81.253011,13.99925 84.085011,14.62125 86.239011,15.86525 L137.997011,45.74625 C140.272011,47.06025 141.339011,48.81525 141.220011,50.54625 L141.240011,50.29825 L141.216011,59.29625 C141.210011,60.92225 140.147011,62.54825 138.021011,63.78225 L86.609011,93.66025 C84.470011,94.90425 81.644011,95.52525 78.816011,95.52525 M139.992011,53.25125 L139.843011,53.39825 L139.992011,53.25125 M140.442011,52.68525 L140.281011,52.88825 L140.442011,52.68525 M140.792011,52.10025 L140.644011,52.34825 L140.792011,52.10025 M141.041011,51.50325 C141.010011,51.59725 140.963011,51.69025 140.925011,51.78425 C140.963011,51.69025 141.010011,51.59725 141.041011,51.50325 M141.190011,50.89625 C141.174011,50.99325 141.144011,51.08925 141.120011,51.18425 C141.144011,51.08925 141.174011,50.99325 141.190011,50.89625" id="Fill-9" fill="#BBBBB6"></path>
        <path d="M141.240011,48.29925 L141.216011,57.29625 C141.210011,58.92325 140.147011,60.54825 138.020011,61.78225 L138.047011,52.78825 C140.172011,51.55125 141.237011,49.92625 141.240011,48.29925" id="Fill-146" fill="#EEEEEB"></path>
        <path d="M19.269011,52.78225 L19.244011,61.77825 C17.078011,60.52525 15.996011,58.87625 16,57.22525 L16.025011,48.23125 C16.020011,49.88025 17.103011,51.53025 19.269011,52.78225" id="Fill-147" fill="#E8E8E5"></path>
        <polyline id="Fill-148" fill="#EEEEEB" points="138.047011 52.78825 138.020011 61.78225 86.609011 91.66025 86.636011 82.66525 138.047011 52.78825"></polyline>
        <polyline id="Fill-149" fill="#E8E8E5" points="71.027011 82.66525 71.002011 91.66025 19.244011 61.77825 19.269011 52.78225 71.027011 82.66525"></polyline>
        <path d="M137.997011,43.74625 C142.303011,46.23325 142.325011,50.30125 138.047011,52.78825 L86.636011,82.66525 C82.356011,85.15225 75.334011,85.15225 71.027011,82.66525 L19.269011,52.78225 C14.963011,50.29825 14.940011,46.22925 19.219011,43.74225 L70.632011,13.86525 C74.909011,11.37825 81.932011,11.37825 86.239011,13.86525 L137.997011,43.74625" id="Fill-150" fill="#FFFFFE"></path>
        <path d="M86.636011,82.66525 L86.609011,91.66025 C82.331011,94.14725 75.308011,94.14725 71.002011,91.66025 L71.027011,82.66525 C75.334011,85.15225 82.356011,85.15225 86.636011,82.66525" id="Fill-151" fill="#EBEBE8"></path>
        <path d="M60.8220179,27.11725 L60.797011,35.68425 C60.800011,34.75725 60.361011,33.82825 59.485011,33.00925 L59.509011,24.44125 C60.386011,25.25825 60.824011,26.18925 60.8220179,27.11725" id="Fill-152" fill="#BC5442"></path>
        <polyline id="Fill-153" fill="#3CAA8A" points="98.346011 24.63425 98.323011 33.20425 98.104011 33.41425 98.127011 24.84525 98.346011 24.63425"></polyline>
        <path d="M98.127011,24.84525 L98.104011,33.41425 C97.876011,33.64425 97.685011,33.88325 97.525011,34.13025 L97.549011,25.56125 C97.709011,25.31525 97.901011,25.07725 98.127011,24.84525" id="Fill-154" fill="#3BA989"></path>
        <path d="M97.549011,25.56125 L97.525011,34.13025 C97.400011,34.32225 97.295011,34.52025 97.212011,34.71925 L97.237011,26.15125 C97.319011,25.95225 97.424011,25.75525 97.549011,25.56125" id="Fill-155" fill="#3BA888"></path>
        <path d="M97.237011,26.15125 L97.212011,34.71925 C97.137011,34.89925 97.080011,35.08025 97.040011,35.26225 L97.063011,26.69525 C97.104011,26.51225 97.162011,26.33125 97.237011,26.15125" id="Fill-156" fill="#3BA686"></path>
        <path d="M97.063011,26.69525 L97.040011,35.26225 C97.001011,35.43825 96.978011,35.61325 96.970011,35.79025 L96.994011,27.22125 C97.002011,27.04625 97.024011,26.87025 97.063011,26.69525" id="Fill-157" fill="#3AA586"></path>
        <polyline id="Fill-158" fill="#3BA385" points="96.994011 27.22125 96.970011 35.79025 96.967011 35.90325 96.992011 27.33525 96.994011 27.22125"></polyline>
        <polyline id="Fill-159" fill="#3A9C7F" points="78.793011 38.68025 78.769011 47.24925 78.690011 34.35025 78.714011 25.78225 78.793011 38.68025"></polyline>
        <path d="M78.793011,38.68025 L78.769011,47.24925 C78.561011,47.24925 78.359011,47.25325 78.156011,47.26325 L78.181011,38.69625 C78.384011,38.68325 78.585011,38.68025 78.793011,38.68025" id="Fill-160" fill="#C45744"></path>
        <polyline id="Fill-161" fill="#C65845" points="78.181011 38.69625 78.156011 47.26325 77.906011 47.28425 77.931011 38.71525 78.181011 38.69625"></polyline>
        <path d="M114.509011,37.90625 L114.484011,46.47325 C114.153011,46.51525 113.830011,46.56925 113.513011,46.63225 L113.538011,38.06425 C113.853011,38.00225 114.178011,37.94825 114.509011,37.90625" id="Fill-162" fill="#3BA888"></path>
        <path d="M113.538011,38.06425 L113.513011,46.63225 C113.083011,46.71825 112.668011,46.82525 112.270011,46.94625 L112.294011,38.37925 C112.691011,38.25625 113.107011,38.15125 113.538011,38.06425" id="Fill-163" fill="#3BA989"></path>
        <path d="M112.294011,38.37925 L112.270011,46.94625 C110.819011,47.39525 109.614011,48.07525 108.804011,48.90225 L108.829011,40.33525 C109.639011,39.50725 110.843011,38.82825 112.294011,38.37925" id="Fill-164" fill="#3CAA8A"></path>
        <path d="M108.829011,40.33525 L108.804011,48.90225 C108.585011,49.12625 108.396011,49.36125 108.237011,49.60425 L108.261011,41.03625 C108.421011,40.79325 108.610011,40.55825 108.829011,40.33525" id="Fill-165" fill="#3BA989"></path>
        <path d="M108.261011,41.03625 L108.237011,49.60425 C108.115011,49.79425 108.010011,49.98925 107.927011,50.18925 L107.951011,41.62225 C108.035011,41.42225 108.138011,41.22625 108.261011,41.03625" id="Fill-166" fill="#3BA888"></path>
        <path d="M107.951011,41.62225 L107.927011,50.18925 C107.853011,50.36625 107.796011,50.54625 107.755011,50.72825 L107.780011,42.16125 C107.820011,41.97625 107.878011,41.79725 107.951011,41.62225" id="Fill-167" fill="#3BA686"></path>
        <path d="M107.780011,42.16125 L107.755011,50.72825 C107.727011,50.85925 107.706011,50.99225 107.694011,51.12725 L107.719011,42.55825 C107.730011,42.42425 107.751011,42.29225 107.780011,42.16125" id="Fill-168" fill="#3AA586"></path>
        <polyline id="Fill-169" fill="#3BA989" points="107.719011 42.55825 107.694011 51.12725 85.479011 51.12425 85.504011 42.55425 107.719011 42.55825"></polyline>
        <path d="M85.504011,42.55425 L85.479011,51.12425 C85.479011,50.96025 85.466011,50.79825 85.424011,50.62725 C85.223011,49.74425 84.525011,48.97125 83.514011,48.38625 C83.019011,48.10125 82.448011,47.86125 81.826011,47.67625 L81.850011,39.10825 C82.473011,39.29325 83.043011,39.53325 83.538011,39.81925 C84.550011,40.40225 85.248011,41.17625 85.449011,42.05825 C85.489011,42.22925 85.503011,42.39225 85.504011,42.55425" id="Fill-170" fill="#3A9E81"></path>
        <path d="M81.850011,39.10825 L81.826011,47.67625 C81.540011,47.59125 81.244011,47.51825 80.938011,47.45825 L80.962011,38.88925 C81.269011,38.95125 81.564011,39.02325 81.850011,39.10825" id="Fill-171" fill="#3B9F82"></path>
        <path d="M80.962011,38.88925 L80.938011,47.45825 C80.691011,47.40825 80.437011,47.36825 80.180011,47.33625 L80.204011,38.76725 C80.461011,38.79925 80.715011,38.84025 80.962011,38.88925" id="Fill-172" fill="#3AA183"></path>
        <path d="M80.204011,38.76725 L80.180011,47.33625 C79.948011,47.30525 79.712011,47.28525 79.474011,47.27025 L79.499011,38.70125 C79.736011,38.71625 79.973011,38.73825 80.204011,38.76725" id="Fill-173" fill="#3BA284"></path>
        <path d="M79.499011,38.70125 L79.474011,47.27025 C79.246011,47.25625 79.017011,47.24925 78.784011,47.24925 L78.808011,38.68025 C79.041011,38.68025 79.271011,38.68825 79.499011,38.70125" id="Fill-174" fill="#3BA385"></path>
        <polyline id="Fill-175" fill="#3AA586" points="78.808011 38.68025 78.784011 47.24925 78.769011 47.24925 78.793011 38.68025 78.808011 38.68025"></polyline>
        <path d="M98.346011,24.63425 C96.231011,26.56425 96.587011,29.15725 99.465011,30.87325 L99.552011,30.92425 C102.446011,32.59525 106.855011,32.85225 110.206011,31.68225 C113.741011,34.62025 114.470011,37.74025 114.509011,37.90625 C110.752011,38.38525 107.913011,40.26125 107.719011,42.55825 L85.504011,42.55425 C85.503011,42.39225 85.489011,42.22925 85.449011,42.05825 C85.248011,41.17625 84.550011,40.40225 83.538011,39.81925 C82.309011,39.10925 80.615011,38.68025 78.793011,38.68025 L78.714011,25.78225 C82.829011,25.77025 86.243011,24.11225 87.140011,21.88725 C87.431011,21.91025 92.950011,22.33725 98.346011,24.63425" id="Fill-176" fill="#50B796"></path>
        <path d="M49.8190179,42.46525 L49.794011,51.03425 C49.798011,49.63625 48.816011,48.37025 47.228011,47.45525 C46.586011,47.08425 45.845011,46.77025 45.030011,46.52825 L45.054011,37.96125 C45.870011,38.20325 46.611011,38.51525 47.252011,38.88625 C48.839011,39.80225 49.822011,41.06825 49.8190179,42.46525" id="Fill-177" fill="#BC5442"></path>
        <path d="M45.054011,37.96125 L45.030011,46.52825 C44.661011,46.41825 44.274011,46.32225 43.876011,46.24325 L43.899011,37.67625 C44.299011,37.75525 44.684011,37.85025 45.054011,37.96125" id="Fill-178" fill="#BE5442"></path>
        <path d="M43.899011,37.67625 L43.876011,46.24325 C43.623011,46.19325 43.366011,46.15025 43.104011,46.11325 L43.128011,37.54625 C43.390011,37.58225 43.648011,37.62625 43.899011,37.67625" id="Fill-179" fill="#C05542"></path>
        <path d="M77.931011,38.71525 L77.906011,47.28425 C77.719011,47.29725 77.535011,47.31525 77.355011,47.33825 L77.378011,38.76925 C77.560011,38.74825 77.743011,38.72925 77.931011,38.71525" id="Fill-180" fill="#C65845"></path>
        <path d="M77.378011,38.76925 L77.355011,47.33825 C77.084011,47.37225 76.820011,47.41425 76.565011,47.46525 L76.589011,38.89725 C76.844011,38.84625 77.108011,38.80325 77.378011,38.76925" id="Fill-181" fill="#C85945"></path>
        <path d="M76.589011,38.89725 L76.565011,47.46525 C76.236011,47.53225 75.918011,47.61225 75.617011,47.70525 L75.642011,39.13725 C75.943011,39.04425 76.259011,38.96425 76.589011,38.89725" id="Fill-182" fill="#CA5A45"></path>
        <path d="M75.642011,39.13725 L75.617011,47.70525 C74.496011,48.05225 73.577011,48.57625 72.960011,49.20525 L72.985011,40.63725 C73.602011,40.00725 74.519011,39.48325 75.642011,39.13725" id="Fill-183" fill="#CB5945"></path>
        <path d="M72.985011,40.63725 L72.960011,49.20525 C72.788011,49.38125 72.639011,49.56425 72.516011,49.75525 L72.541011,41.18625 C72.664011,40.99525 72.812011,40.81225 72.985011,40.63725" id="Fill-184" fill="#CA5A45"></path>
        <path d="M72.541011,41.18625 L72.516011,49.75525 C72.423011,49.89825 72.344011,50.04825 72.280011,50.20025 L72.305011,41.63225 C72.368011,41.47925 72.446011,41.33225 72.541011,41.18625" id="Fill-185" fill="#C85945"></path>
        <path d="M72.305011,41.63225 L72.280011,50.20025 C72.224011,50.33425 72.179011,50.47125 72.149011,50.61025 L72.173011,42.04325 C72.204011,41.90325 72.248011,41.76625 72.305011,41.63225" id="Fill-186" fill="#C65845"></path>
        <path d="M72.173011,42.04325 L72.149011,50.61025 C72.120011,50.74025 72.103011,50.87325 72.097011,51.00625 L72.121011,42.43725 C72.126011,42.30425 72.144011,42.17325 72.173011,42.04325" id="Fill-187" fill="#C45744"></path>
        <polyline id="Fill-188" fill="#C25743" points="72.121011 42.43725 72.097011 51.00625 72.095011 51.12725 72.119011 42.55825 72.121011 42.43725"></polyline>
        <path d="M78.681011,25.77825 L78.793011,38.68025 C78.499011,38.68025 78.218011,38.68825 77.931011,38.71525 C74.554011,38.96725 72.095011,40.63725 72.119011,42.55825 L49.819011,42.55825 L49.819011,42.46525 C49.822011,41.06825 48.839011,39.80225 47.252011,38.88625 C46.134011,38.24025 44.714011,37.76825 43.128011,37.54625 C43.184011,37.35425 44.251011,33.73625 47.541011,31.37425 C50.907011,32.58225 55.366011,32.34525 58.281011,30.66025 C61.193011,28.97525 61.600011,26.39025 59.509011,24.44125 C65.102011,22.23325 69.924011,21.90525 70.177011,21.88725 C70.562011,22.81925 71.388011,23.65125 72.520011,24.30425 C74.100011,25.21625 76.275011,25.78025 78.681011,25.77825" id="Fill-189" fill="#E1634C"></path>
        <polyline id="Fill-190" fill="#C95945" points="72.119011 42.55825 72.095011 51.12725 49.794011 51.12725 49.819011 42.55825 72.119011 42.55825"></polyline>
        <polyline id="Fill-191" fill="#BB5442" points="49.819011 42.55825 49.794011 51.12725 49.794011 51.03425 49.819011 42.46525 49.819011 42.55825"></polyline>
        <polyline id="Fill-192" fill="#C99B32" points="107.719011 42.55825 107.694011 51.12725 107.683011 51.33625 107.706011 42.76725 107.719011 42.55825"></polyline>
        <path d="M47.506011,53.55125 L47.481011,62.11925 C47.319011,61.98925 44.230011,59.53825 43.099011,55.92625 L43.123011,47.35925 C44.254011,50.97025 47.344011,53.42225 47.506011,53.55125" id="Fill-193" fill="#6E6560"></path>
        <path d="M114.336011,47.72425 L114.312011,56.29225 C114.299011,56.34025 114.223011,56.65525 114.016011,57.15325 L114.040011,48.58525 C114.247011,48.08725 114.324011,47.77225 114.336011,47.72425" id="Fill-194" fill="#CC9D31"></path>
        <path d="M114.040011,48.58525 L114.016011,57.15325 C113.830011,57.59825 113.539011,58.19225 113.098011,58.87325 L113.123011,50.30525 C113.564011,49.62525 113.854011,49.03125 114.040011,48.58525" id="Fill-195" fill="#CE9F31"></path>
        <path d="M113.123011,50.30525 L113.098011,58.87325 C112.672011,59.53125 112.105011,60.26925 111.354011,61.03725 L111.378011,52.46925 C112.129011,51.70225 112.697011,50.96325 113.123011,50.30525" id="Fill-196" fill="#CFA130"></path>
        <path d="M111.378011,52.46925 L111.354011,61.03725 C110.903011,61.49925 110.385011,61.97025 109.792011,62.43925 L109.815011,53.87225 C110.410011,53.40225 110.927011,52.93025 111.378011,52.46925" id="Fill-197" fill="#D1A130"></path>
        <path d="M60.7490252,57.88725 L60.726011,66.45625 C60.729011,65.16825 59.887011,63.88025 58.196011,62.88925 C57.525011,62.50325 56.777011,62.19025 55.983011,61.95425 L56.008011,53.38625 C56.802011,53.62325 57.548011,53.93525 58.219011,54.32225 C59.911011,55.31225 60.753011,56.60025 60.7490252,57.88725" id="Fill-198" fill="#6E6560"></path>
        <path d="M56.008011,53.38625 L55.983011,61.95425 C55.605011,61.84125 55.218011,61.74625 54.822011,61.66825 L54.847011,53.10025 C55.242011,53.17825 55.630011,53.27325 56.008011,53.38625" id="Fill-199" fill="#706661"></path>
        <path d="M54.847011,53.10025 L54.822011,61.66825 C54.497011,61.60325 54.166011,61.54925 53.831011,61.50725 L53.855011,52.94025 C54.189011,52.98125 54.521011,53.03525 54.847011,53.10025" id="Fill-200" fill="#716762"></path>
        <path d="M53.855011,52.94025 L53.831011,61.50725 C53.524011,61.46925 53.214011,61.44125 52.904011,61.42225 L52.928011,52.85425 C53.239011,52.87325 53.548011,52.90125 53.855011,52.94025" id="Fill-201" fill="#726862"></path>
        <path d="M52.928011,52.85425 L52.904011,61.42225 C52.604011,61.40325 52.304011,61.39325 52.003011,61.39325 L52.028011,52.82625 C52.328011,52.82625 52.629011,52.83625 52.928011,52.85425" id="Fill-202" fill="#726963"></path>
        <path d="M52.028011,52.8261813 L52.003011,61.39325 C51.701011,61.39325 51.397011,61.40225 51.095011,61.42025 L51.120011,52.85125 C51.421011,52.83525 51.724011,52.82525 52.028011,52.8261813" id="Fill-203" fill="#736A64"></path>
        <path d="M51.120011,52.85125 L51.095011,61.42025 C50.781011,61.43825 50.468011,61.46625 50.158011,61.50625 L50.182011,52.93725 C50.491011,52.89925 50.806011,52.87025 51.120011,52.85125" id="Fill-204" fill="#746B65"></path>
        <path d="M50.182011,52.93725 L50.158011,61.50625 C49.810011,61.54825 49.467011,61.60325 49.129011,61.67125 L49.153011,53.10325 C49.492011,53.03625 49.835011,52.98025 50.182011,52.93725" id="Fill-205" fill="#756B66"></path>
        <path d="M49.153011,53.10325 L49.129011,61.67125 C48.703011,61.75725 48.285011,61.86225 47.882011,61.98725 L47.907011,53.41925 C48.310011,53.29525 48.727011,53.18825 49.153011,53.10325" id="Fill-206" fill="#766C67"></path>
        <path d="M47.907011,53.41925 L47.882011,61.98725 C47.747011,62.02825 47.613011,62.07225 47.481011,62.11925 L47.506011,53.55125 C47.638011,53.50525 47.772011,53.46125 47.907011,53.41925" id="Fill-207" fill="#776D68"></path>
        <path d="M109.815011,53.87225 L109.792011,62.43925 C109.574011,62.36125 109.351011,62.28725 109.124011,62.21925 L109.149011,53.65125 C109.375011,53.71925 109.597011,53.79225 109.815011,53.87225" id="Fill-208" fill="#C19633"></path>
        <path d="M109.149011,53.65125 L109.124011,62.21925 C108.749011,62.10825 108.363011,62.01225 107.968011,61.93425 L107.993011,53.36625 C108.386011,53.44525 108.772011,53.54025 109.149011,53.65125" id="Fill-209" fill="#C39733"></path>
        <path d="M107.993011,53.36625 L107.968011,61.93425 C107.641011,61.86925 107.308011,61.81625 106.972011,61.77325 L106.996011,53.20725 C107.332011,53.24825 107.664011,53.30125 107.993011,53.36625" id="Fill-210" fill="#C49832"></path>
        <path d="M106.996011,53.20725 L106.972011,61.77325 C106.666011,61.73625 106.355011,61.70725 106.043011,61.68825 L106.068011,53.12025 C106.379011,53.13825 106.688011,53.16725 106.996011,53.20725" id="Fill-211" fill="#C79A32"></path>
        <path d="M106.068011,53.12025 L106.043011,61.68825 C105.743011,61.66925 105.442011,61.66025 105.141011,61.66025 L105.165011,53.09025 C105.466011,53.09225 105.768011,53.10125 106.068011,53.12025" id="Fill-212" fill="#C99B32"></path>
        <path d="M105.165011,53.09025 L105.141011,61.66025 C104.838011,61.65925 104.536011,61.66825 104.235011,61.68525 L104.259011,53.11825 C104.560011,53.09925 104.863011,53.09025 105.165011,53.09025" id="Fill-213" fill="#CA9C31"></path>
        <path d="M104.259011,53.11825 L104.235011,61.68525 C103.918011,61.70425 103.604011,61.73325 103.293011,61.77225 L103.317011,53.20325 C103.629011,53.16525 103.943011,53.13625 104.259011,53.11825" id="Fill-214" fill="#CC9D31"></path>
        <path d="M103.317011,53.20325 L103.293011,61.77225 C102.947011,61.81325 102.604011,61.86925 102.268011,61.93725 L102.292011,53.36925 C102.629011,53.30125 102.972011,53.24625 103.317011,53.20325" id="Fill-215" fill="#CE9F31"></path>
        <path d="M102.292011,53.36925 L102.268011,61.93725 C101.847011,62.02125 101.435011,62.12525 101.036011,62.24925 L101.061011,53.68025 C101.458011,53.55725 101.872011,53.45425 102.292011,53.36925" id="Fill-216" fill="#CFA130"></path>
        <path d="M101.061011,53.68025 L101.036011,62.24925 C100.322011,62.46825 99.652011,62.75125 99.046011,63.09425 C98.456011,63.43125 97.966011,63.80525 97.577011,64.20325 L97.602011,55.63425 C97.990011,55.23725 98.480011,54.86425 99.071011,54.52725 C99.677011,54.18325 100.347011,53.90125 101.061011,53.68025" id="Fill-217" fill="#D1A130"></path>
        <path d="M97.602011,55.63425 L97.577011,64.20325 C97.353011,64.43025 97.164011,64.66725 97.008011,64.90725 L97.032011,56.33925 C97.189011,56.09725 97.378011,55.86325 97.602011,55.63425" id="Fill-218" fill="#CFA130"></path>
        <path d="M97.032011,56.33925 L97.008011,64.90725 C96.882011,65.10025 96.778011,65.29725 96.695011,65.49725 L96.719011,56.92825 C96.803011,56.73025 96.906011,56.53325 97.032011,56.33925" id="Fill-219" fill="#CE9F31"></path>
        <path d="M96.719011,56.92825 L96.695011,65.49725 C96.620011,65.67625 96.562011,65.85725 96.522011,66.04025 L96.547011,57.47025 C96.587011,57.28925 96.645011,57.10925 96.719011,56.92825" id="Fill-220" fill="#CC9D31"></path>
        <path d="M96.547011,57.47025 L96.522011,66.04025 C96.484011,66.21425 96.461011,66.38825 96.454011,66.56425 L96.478011,57.99625 C96.485011,57.82025 96.508011,57.64525 96.547011,57.47025" id="Fill-221" fill="#CA9C31"></path>
        <polyline id="Fill-222" fill="#C99B32" points="96.478011 57.99625 96.454011 66.56425 96.452011 66.67625 96.475011 58.10925 96.478011 57.99625"></polyline>
        <polyline id="Fill-223" fill="#BF9433" points="78.909011 59.31725 78.886011 67.88425 78.813011 55.00625 78.837011 46.43725 78.909011 59.31725"></polyline>
        <polyline id="Fill-224" fill="#766C66" points="78.909011 59.31725 78.886011 67.88425 78.571011 67.88025 78.595011 59.31225 78.909011 59.31725"></polyline>
        <path d="M78.837011,46.43725 L78.909011,59.31725 L78.595011,59.31225 C74.480011,59.29325 71.033011,60.92425 70.096011,63.13925 C64.092011,62.58725 59.684011,60.63525 59.452011,60.53325 C61.522011,58.59125 61.119011,56.01925 58.219011,54.32225 C55.276011,52.62225 50.854011,52.37925 47.506011,53.55125 C47.344011,53.42225 44.254011,50.97025 43.123011,47.35925 C46.907011,46.84825 49.732011,44.90325 49.819011,42.55825 L72.119011,42.55825 C72.120011,42.72125 72.135011,42.89225 72.169011,43.05825 C72.374011,43.93925 73.074011,44.71425 74.086011,45.29925 C75.318011,46.00925 77.012011,46.44025 78.837011,46.43725" id="Fill-225" fill="#847872"></path>
        <polyline id="Fill-226" fill="#726963" points="78.595011 59.31225 78.571011 67.88025 78.519011 67.88025 78.542011 59.31225 78.595011 59.31225"></polyline>
        <path d="M78.542011,59.3121749 L78.519011,67.88025 C78.210011,67.87925 77.905011,67.88825 77.604011,67.90625 L77.628011,59.33825 C77.930011,59.32025 78.234011,59.31125 78.542011,59.3121749" id="Fill-227" fill="#736A64"></path>
        <path d="M77.628011,59.33825 L77.604011,67.90625 C77.287011,67.92525 76.975011,67.95425 76.669011,67.99125 L76.694011,59.42425 C76.999011,59.38525 77.312011,59.35625 77.628011,59.33825" id="Fill-228" fill="#746B65"></path>
        <path d="M76.694011,59.42425 L76.669011,67.99125 C76.324011,68.03425 75.986011,68.09025 75.657011,68.15625 L75.680011,59.58825 C76.009011,59.52025 76.347011,59.46625 76.694011,59.42425" id="Fill-229" fill="#756B66"></path>
        <path d="M75.680011,59.58825 L75.657011,68.15625 C75.225011,68.24125 74.809011,68.34625 74.412011,68.47025 L74.436011,59.90125 C74.833011,59.78025 75.249011,59.67425 75.680011,59.58825" id="Fill-230" fill="#766C67"></path>
        <path d="M74.436011,59.90125 L74.412011,68.47025 C72.963011,68.91825 71.762011,69.59825 70.951011,70.42425 L70.976011,61.85725 C71.787011,61.03025 72.988011,60.34925 74.436011,59.90125" id="Fill-231" fill="#776D68"></path>
        <path d="M70.976011,61.85725 L70.951011,70.42425 C70.730011,70.65125 70.538011,70.88825 70.377011,71.13425 L70.402011,62.56725 C70.562011,62.32125 70.754011,62.08425 70.976011,61.85725" id="Fill-232" fill="#766C67"></path>
        <path d="M70.402011,62.56725 L70.377011,71.13425 C70.256011,71.32125 70.154011,71.51325 70.071011,71.70825 L70.096011,63.13925 C70.178011,62.94425 70.280011,62.75325 70.402011,62.56725" id="Fill-233" fill="#756B66"></path>
        <path d="M70.096011,63.13925 L70.071011,71.70825 C69.677011,71.67325 69.291011,71.63025 68.912011,71.58325 L68.936011,63.01425 C69.316011,63.06225 69.702011,63.10425 70.096011,63.13925" id="Fill-234" fill="#726862"></path>
        <path d="M68.936011,63.01425 L68.912011,71.58325 C67.975011,71.46525 67.084011,71.31725 66.251011,71.15125 L66.274011,62.58225 C67.108011,62.74925 67.999011,62.89625 68.936011,63.01425" id="Fill-235" fill="#716762"></path>
        <path d="M66.274011,62.58225 L66.251011,71.15125 C64.936011,70.88925 63.763011,70.58725 62.775011,70.29225 L62.800011,61.72425 C63.787011,62.01825 64.960011,62.32225 66.274011,62.58225" id="Fill-236" fill="#706661"></path>
        <path d="M62.800011,61.72425 L62.775011,70.29225 C60.782011,69.70025 59.547011,69.15425 59.427011,69.10025 L59.452011,60.53325 C59.572011,60.58525 60.807011,61.13225 62.800011,61.72425" id="Fill-237" fill="#6E6560"></path>
        <path d="M107.719011,42.55825 L107.706011,42.76725 C107.683011,44.18125 108.668011,45.46525 110.273011,46.39125 C111.377011,47.02925 112.773011,47.49825 114.336011,47.72425 C114.296011,47.88225 113.552011,50.91625 109.815011,53.87225 C106.465011,52.64725 102.003011,52.86125 99.071011,54.52725 C96.136011,56.20125 95.690011,58.77825 97.734011,60.73825 C95.932011,61.36525 94.016011,61.90425 92.024011,62.34525 C90.414011,62.70625 88.751011,63.00525 87.040011,63.22925 C86.661011,62.28825 85.830011,61.44725 84.688011,60.78825 C83.193011,59.92425 81.163011,59.37325 78.909011,59.31725 L78.837011,46.43725 C79.119011,46.43625 79.405011,46.42625 79.693011,46.40625 C83.070011,46.15425 85.522011,44.48025 85.504011,42.55425 L107.719011,42.55825" id="Fill-238" fill="#EAB42A"></path>
        <path d="M87.040011,63.22925 L87.015011,71.79825 C86.636011,70.85625 85.806011,70.01525 84.665011,69.35625 C84.025011,68.98725 83.288011,68.67425 82.477011,68.43325 L82.501011,59.86525 C83.312011,60.10725 84.050011,60.41925 84.688011,60.78825 C85.830011,61.44725 86.661011,62.28825 87.040011,63.22925" id="Fill-239" fill="#C19633"></path>
        <path d="M82.501011,59.86525 L82.477011,68.43325 C82.109011,68.32525 81.726011,68.23025 81.330011,68.15125 L81.354011,59.58325 C81.750011,59.66225 82.133011,59.75725 82.501011,59.86525" id="Fill-240" fill="#C39733"></path>
        <path d="M81.354011,59.58325 L81.330011,68.15125 C81.010011,68.08825 80.682011,68.03525 80.347011,67.99325 L80.371011,59.42425 C80.706011,59.46625 81.035011,59.51925 81.354011,59.58325" id="Fill-241" fill="#C49832"></path>
        <path d="M80.371011,59.42425 L80.347011,67.99325 C80.044011,67.95525 79.738011,67.92625 79.426011,67.90725 L79.450011,59.33925 C79.762011,59.35925 80.069011,59.38725 80.371011,59.42425" id="Fill-242" fill="#C79A32"></path>
        <path d="M79.450011,59.33925 L79.426011,67.90725 C79.247011,67.89625 79.067011,67.88825 78.886011,67.88425 L78.909011,59.31725 C79.092011,59.32025 79.272011,59.32925 79.450011,59.33925" id="Fill-243" fill="#C99B32"></path>
        <path d="M97.734011,60.73825 L97.710011,69.30525 C97.187011,69.48725 96.657011,69.66325 96.116011,69.82925 L96.140011,61.26025 C96.680011,61.09425 97.212011,60.92025 97.734011,60.73825" id="Fill-244" fill="#D1A130"></path>
        <path d="M96.140011,61.26025 L96.116011,69.82925 C94.791011,70.23725 93.414011,70.60025 92.000011,70.91525 C91.588011,71.00625 91.174011,71.09425 90.757011,71.17625 L90.782011,62.60925 C91.199011,62.52625 91.613011,62.43725 92.024011,62.34525 C93.439011,62.03225 94.816011,61.66925 96.140011,61.26025" id="Fill-245" fill="#CFA130"></path>
        <path d="M90.782011,62.60925 L90.757011,71.17625 C89.537011,71.42125 88.290011,71.63025 87.015011,71.79825 L87.040011,63.22925 C88.313011,63.06225 89.562011,62.85325 90.782011,62.60925" id="Fill-246" fill="#CE9F31"></path>
    </g>
</svg>