<?xml version="1.0" encoding="UTF-8"?>
<svg width="157px" height="107px" viewBox="0 0 157 107" version="1.1" xmlns="http://www.w3.org/2000/svg" xmlns:xlink="http://www.w3.org/1999/xlink">
    <!-- Generator: Sketch 60.1 (88133) - https://sketch.com -->
    <title>icon4</title>
    <desc>Created with Sketch.</desc>
    <g id="icon4" stroke="none" stroke-width="1" fill="none" fill-rule="evenodd">
        <rect fill="#FFFFFF" opacity="0" x="0" y="0" width="157" height="107"></rect>
        <path d="M78.8160111,95.526 C75.9870111,95.526 73.1550111,94.905 71.0030111,93.662 L19.2420111,63.78 C17.0770111,62.528 15.9960111,60.877 16,59.227 L16.0240111,50.271 L16.0240111,50.232 L16.0250111,50.244 C16.0250111,48.612 17.0880111,46.982 19.2180111,45.742 L70.6300111,15.866 C72.7690111,14.622 75.5940111,14 78.4230111,14 C81.2520111,14 84.0850111,14.622 86.2380111,15.866 L137.996011,45.748 C140.368011,47.118 141.433011,48.969 141.202011,50.77 C141.221011,50.614 141.241011,50.458 141.241011,50.302 L141.214011,59.297 C141.210011,60.924 140.145011,62.549 138.020011,63.784 L86.6080111,93.662 C84.4690111,94.905 81.6440111,95.526 78.8160111,95.526 M138.797011,54.306 C138.563011,54.472 138.313011,54.633 138.047011,54.788 C138.313011,54.633 138.563011,54.472 138.797011,54.306 M139.999011,53.245 C139.848011,53.412 139.680011,53.574 139.503011,53.735 C139.680011,53.574 139.848011,53.412 139.999011,53.245 M140.448011,52.678 C140.323011,52.859 140.180011,53.036 140.026011,53.211 C140.180011,53.036 140.323011,52.859 140.448011,52.678 M140.797011,52.092 C140.703011,52.279 140.591011,52.465 140.467011,52.648 C140.591011,52.465 140.703011,52.279 140.797011,52.092 M141.045011,51.493 C140.982011,51.683 140.903011,51.871 140.811011,52.058 C140.903011,51.871 140.982011,51.683 141.045011,51.493 M141.192011,50.888 C141.163011,51.071 141.116011,51.252 141.059011,51.434 C141.116011,51.252 141.163011,51.071 141.192011,50.888" id="Fill-4" fill="#BBBBB6"></path>
        <path d="M141.241011,48.302 L141.214011,57.297 C141.210011,58.924 140.145011,60.549 138.020011,61.784 L138.047011,52.788 C140.172011,51.554 141.237011,49.93 141.241011,48.302" id="Fill-13" fill="#EEEEEB"></path>
        <path d="M19.2680111,52.784 L19.2420111,61.78 C17.0770111,60.528 15.9960111,58.877 16,57.227 L16.0240111,48.232 C16.0180111,49.881 17.1020111,51.532 19.2680111,52.784" id="Fill-14" fill="#E8E8E5"></path>
        <polyline id="Fill-15" fill="#EEEEEB" points="138.047011 52.788 138.020011 61.784 86.6080111 91.662 86.6360111 82.667 138.047011 52.788"></polyline>
        <polyline id="Fill-16" fill="#E8E8E5" points="71.0270111 82.667 71.0030111 91.662 19.2420111 61.78 19.2680111 52.784 71.0270111 82.667"></polyline>
        <path d="M137.996011,43.748 C142.301011,46.234 142.325011,50.303 138.047011,52.788 L86.6360111,82.667 C82.3540111,85.153 75.3340111,85.153 71.0270111,82.667 L19.2680111,52.784 C14.9610111,50.3 14.9400111,46.231 19.2180111,43.742 L70.6300111,13.866 C74.9080111,11.378 81.9310111,11.378 86.2380111,13.866 L137.996011,43.748" id="Fill-17" fill="#FFFFFE"></path>
        <path d="M86.6360111,82.667 L86.6080111,91.662 C82.3310111,94.148 75.3070111,94.148 71.0030111,91.662 L71.0270111,82.667 C75.3340111,85.153 82.3540111,85.153 86.6360111,82.667" id="Fill-18" fill="#EBEBE8"></path>
        <polyline id="Fill-19" fill="#E1634C" points="54.7000111 35.262 54.6960111 39.813 42.5440111 46.875 34.6990111 42.344 46.8490111 35.282 54.7000111 35.262"></polyline>
        <polyline id="Fill-20" fill="#D15C47" points="54.6960111 39.813 54.6730111 47.645 42.5220111 54.705 42.5440111 46.875 54.6960111 39.813"></polyline>
        <polyline id="Fill-21" fill="#BD5442" points="42.5440111 46.875 42.5220111 54.705 34.6770111 50.176 34.6990111 42.344 42.5440111 46.875"></polyline>
        <polyline id="Fill-22" fill="#847872" points="82.4980111 32.699 82.4870111 37.249 54.2710111 53.646 46.4340111 49.121 74.6480111 32.722 82.4980111 32.699"></polyline>
        <polyline id="Fill-23" fill="#7B706A" points="82.4870111 37.249 82.4650111 45.08 54.2490111 61.477 54.2710111 53.646 82.4870111 37.249"></polyline>
        <polyline id="Fill-24" fill="#6E6560" points="54.2710111 53.646 54.2490111 61.477 46.4110111 56.952 46.4340111 49.121 54.2710111 53.646"></polyline>
        <polyline id="Fill-25" fill="#50B796" points="99.8930111 36.178 99.8810111 40.734 66.0060111 60.42 58.1610111 55.892 92.0370111 36.204 99.8930111 36.178"></polyline>
        <polyline id="Fill-26" fill="#3EAF8E" points="99.8810111 40.734 99.8590111 48.565 65.9830111 68.253 66.0060111 60.42 99.8810111 40.734"></polyline>
        <polyline id="Fill-27" fill="#3A9E81" points="66.0060111 60.42 65.9830111 68.253 58.1380111 63.723 58.1610111 55.892 66.0060111 60.42"></polyline>
        <polyline id="Fill-28" fill="#C89B32" points="122.565011 36.597 122.543011 44.429 122.526011 48.979 122.549011 41.147 122.565011 36.597"></polyline>
        <polyline id="Fill-29" fill="#EAB42A" points="122.565011 36.597 122.549011 41.147 77.7330111 67.193 69.8940111 62.666 114.710011 36.621 122.565011 36.597"></polyline>
        <polyline id="Fill-30" fill="#D7A62F" points="122.549011 41.147 122.526011 48.979 77.7110111 75.025 77.7330111 67.193 122.549011 41.147"></polyline>
        <polyline id="Fill-31" fill="#C19633" points="77.7330111 67.193 77.7110111 75.025 69.8720111 70.497 69.8940111 62.666 77.7330111 67.193"></polyline>
    </g>
</svg>