<?xml version="1.0" encoding="UTF-8"?>
<svg width="157px" height="107px" viewBox="0 0 157 107" version="1.1" xmlns="http://www.w3.org/2000/svg" xmlns:xlink="http://www.w3.org/1999/xlink">
    <!-- Generator: Sketch 60.1 (88133) - https://sketch.com -->
    <title>icon3</title>
    <desc>Created with Sketch.</desc>
    <g id="icon3" stroke="none" stroke-width="1" fill="none" fill-rule="evenodd">
        <rect fill="#FFFFFF" opacity="0" x="0" y="0" width="157" height="107"></rect>
        <path d="M78.8160249,95.527 C75.9870249,95.527 73.1550249,94.905 71.0030249,93.661 L19.2420249,63.779 C17.0740249,62.527 15.9940249,60.877 16,59.227 L16.0240249,50.27 L16.0240249,50.231 L16.0250249,50.242 C16.0250249,48.61 17.0880249,46.98 19.2180249,45.742 L70.6300249,15.866 C72.7690249,14.622 75.5940249,14 78.4230249,14 C81.2520249,14 84.0850249,14.622 86.2380249,15.866 L137.996025,45.746 C140.342025,47.101 141.406025,48.926 141.206025,50.709 C141.221025,50.572 141.241025,50.436 141.241025,50.299 L141.213025,59.297 C141.209025,60.923 140.145025,62.549 138.020025,63.783 L86.6070249,93.661 C84.4690249,94.905 81.6440249,95.527 78.8160249,95.527 M140.790025,52.103 L140.689025,52.272 L140.790025,52.103 M141.041025,51.502 C141.010025,51.593 140.966025,51.683 140.928025,51.773 C140.966025,51.683 141.010025,51.593 141.041025,51.502 M141.190025,50.891 C141.171025,51.012 141.134025,51.132 141.103025,51.253 C141.134025,51.132 141.171025,51.012 141.190025,50.891" id="Fill-7" fill="#BBBBB6"></path>
        <path d="M141.241025,48.3 L141.213025,57.297 C141.209025,58.924 140.145025,60.549 138.020025,61.783 L138.046025,52.788 C140.170025,51.552 141.235025,49.926 141.241025,48.3" id="Fill-95" fill="#EEEEEB"></path>
        <path d="M19.2670249,52.783 L19.2420249,61.779 C17.0740249,60.527 15.9940249,58.877 16,57.227 L16.0240249,48.231 C16.0180249,49.88 17.1020249,51.531 19.2670249,52.783" id="Fill-96" fill="#E8E8E5"></path>
        <polyline id="Fill-97" fill="#EEEEEB" points="138.046025 52.788 138.020025 61.783 86.6070249 91.661 86.6360249 82.666 138.046025 52.788"></polyline>
        <polyline id="Fill-98" fill="#E8E8E5" points="71.0270249 82.666 71.0030249 91.661 19.2420249 61.779 19.2670249 52.783 71.0270249 82.666"></polyline>
        <path d="M137.996025,43.746 C142.301025,46.234 142.325025,50.302 138.046025,52.788 L86.6360249,82.666 C82.3540249,85.153 75.3340249,85.153 71.0270249,82.666 L19.2670249,52.783 C14.9610249,50.298 14.9400249,46.229 19.2180249,43.742 L70.6300249,13.866 C74.9080249,11.378 81.9310249,11.378 86.2380249,13.866 L137.996025,43.746" id="Fill-99" fill="#FFFFFE"></path>
        <path d="M86.6360249,82.666 L86.6070249,91.661 C82.3310249,94.149 75.3070249,94.149 71.0030249,91.661 L71.0270249,82.666 C75.3340249,85.153 82.3540249,85.153 86.6360249,82.666" id="Fill-100" fill="#EBEBE8"></path>
        <polyline id="Fill-101" fill="#D15C47" points="101.112025 28.25 101.090025 36.238 77.2930249 50.066 77.3170249 42.079 101.112025 28.25"></polyline>
        <path d="M101.112025,28.25 L77.3170249,42.079 L43.6109509,42.083 C43.5930249,37.083 46.8610249,32.091 53.4170249,28.28 C66.5450249,20.651 87.8860249,20.643 101.112025,28.25" id="Fill-102" fill="#E1634C"></path>
        <polyline id="Fill-103" fill="#C95945" points="77.3170249 42.079 77.2930249 50.066 43.5870249 50.07 43.6110249 42.083 77.3170249 42.079"></polyline>
        <path d="M113.970025,43.857 L113.946025,51.844 C113.944025,51.991 113.942025,52.137 113.938025,52.284 L113.961025,44.296 C113.965025,44.15 113.970025,44.003 113.970025,43.857" id="Fill-104" fill="#C99B32"></path>
        <path d="M113.961025,44.296 L113.938025,52.284 C113.909025,52.964 113.821025,53.642 113.671025,54.315 L113.693025,46.328 C113.843025,45.651 113.930025,44.975 113.961025,44.296" id="Fill-105" fill="#CA9C31"></path>
        <path d="M113.693025,46.328 L113.671025,54.315 C113.513025,55.021 113.291025,55.72 113.001025,56.414 L113.026025,48.425 C113.313025,47.731 113.538025,47.031 113.693025,46.328" id="Fill-106" fill="#CC9D31"></path>
        <path d="M113.026025,48.425 L113.001025,56.414 C112.680025,57.186 112.276025,57.95 111.792025,58.697 L111.813025,50.71 C112.298025,49.961 112.704025,49.197 113.026025,48.425" id="Fill-107" fill="#CE9F31"></path>
        <path d="M111.813025,50.71 L111.792025,58.697 C111.178025,59.64 110.434025,60.56 109.562025,61.449 L109.583025,53.461 C110.458025,52.572 111.200025,51.651 111.813025,50.71" id="Fill-108" fill="#CFA130"></path>
        <path d="M109.583025,53.461 L109.562025,61.449 C108.113025,62.924 106.306025,64.309 104.140025,65.567 C101.722025,66.974 99.0220249,68.121 96.1470249,69.008 L96.1690249,61.021 C99.0460249,60.132 101.745025,58.984 104.166025,57.58 C106.330025,56.322 108.136025,54.934 109.583025,53.461" id="Fill-109" fill="#D1A130"></path>
        <path d="M96.1690249,61.021 L96.1470249,69.008 C94.5900249,69.489 92.9830249,69.893 91.3390249,70.221 L91.3640249,62.234 C93.0060249,61.905 94.6120249,61.501 96.1690249,61.021" id="Fill-110" fill="#CFA130"></path>
        <path d="M91.3640249,62.234 L91.3390249,70.221 C90.0370249,70.484 88.7120249,70.697 87.3680249,70.862 L87.3930249,62.875 C88.7320249,62.709 90.0590249,62.495 91.3640249,62.234" id="Fill-111" fill="#CE9F31"></path>
        <path d="M87.3930249,62.875 L87.3680249,70.862 C86.1610249,71.012 84.9410249,71.124 83.7150249,71.196 L83.7360249,63.207 C84.9620249,63.135 86.1830249,63.024 87.3930249,62.875" id="Fill-112" fill="#CC9D31"></path>
        <polyline id="Fill-113" fill="#CA9C31" points="83.7360249 63.207 83.7150249 71.196 83.5250249 71.206 83.5500249 63.218 83.7360249 63.207"></polyline>
        <path d="M103.966025,29.898 C117.235025,37.56 117.305025,49.942 104.166025,57.58 C98.4150249,60.922 91.0780249,62.8 83.5500249,63.218 L79.9700249,43.726 L80.1700249,43.726 L103.966025,29.898" id="Fill-114" fill="#EAB42A"></path>
        <polyline id="Fill-115" fill="#BF9433" points="83.5500249 63.218 83.5250249 71.206 79.9490249 51.716 79.9700249 43.726 83.5500249 63.218"></polyline>
        <path d="M76.8130249,44.416 L80.3840249,63.911 C70.7100249,64.446 60.7010249,62.565 53.2620249,58.269 C46.6420249,54.446 43.3140249,49.429 43.2950249,44.42 L76.8130249,44.416" id="Fill-116" fill="#50B796"></path>
        <path d="M80.3840249,63.911 L80.3610249,71.901 C79.2640249,71.962 78.1670249,71.989 77.0660249,71.989 L77.0890249,64.001 C78.1890249,64.003 79.2900249,63.971 80.3840249,63.911" id="Fill-117" fill="#3AA586"></path>
        <path d="M77.0890249,64.001 L77.0660249,71.989 C75.9010249,71.987 74.7380249,71.951 73.5770249,71.882 L73.6010249,63.892 C74.7610249,63.963 75.9250249,63.999 77.0890249,64.001" id="Fill-118" fill="#3BA385"></path>
        <path d="M73.6010249,63.892 L73.5770249,71.882 C72.3770249,71.805 71.1820249,71.696 69.9980249,71.548 L70.0200249,63.559 C71.2040249,63.709 72.4000249,63.818 73.6010249,63.892" id="Fill-119" fill="#3BA284"></path>
        <path d="M70.0200249,63.559 L69.9980249,71.548 C68.7070249,71.387 67.4270249,71.181 66.1670249,70.931 L66.1920249,62.943 C67.4490249,63.194 68.7280249,63.399 70.0200249,63.559" id="Fill-120" fill="#3AA183"></path>
        <path d="M66.1920249,62.943 L66.1670249,70.931 C64.6510249,70.631 63.1650249,70.265 61.7190249,69.836 L61.7410249,61.847 C63.1870249,62.277 64.6730249,62.642 66.1920249,62.943" id="Fill-121" fill="#3B9F82"></path>
        <path d="M61.7410249,61.847 L61.7190249,69.836 C58.6670249,68.929 55.8020249,67.737 53.2400249,66.258 C46.6200249,62.434 43.2930249,57.419 43.2700249,52.408 L43.2950249,44.42 C43.3140249,49.429 46.6420249,54.446 53.2620249,58.269 C55.8250249,59.749 58.6900249,60.941 61.7410249,61.847" id="Fill-122" fill="#3A9E81"></path>
    </g>
</svg>