<?xml version="1.0" encoding="utf-8"?>
<!-- Generator: Adobe Illustrator 19.0.0, SVG Export Plug-In . SVG Version: 6.00 Build 0)  -->
<svg version="1.1" id="Layer_1" xmlns="http://www.w3.org/2000/svg" xmlns:xlink="http://www.w3.org/1999/xlink" x="0px" y="0px"
	 viewBox="0 0 1207.3 969.2" style="enable-background:new 0 0 1207.3 969.2;" xml:space="preserve">
<style type="text/css">
	.st0{fill:#E6E6E6;}
	.st1{fill:#FFFFFF;}
	.st2{fill:#BDCBE0;}
	.st3{fill:#A2B9CC;}
	.st4{fill:#8080C1;}
	.st5{fill:#7272AA;}
	.st6{fill:#DDD7F4;}
	.st7{fill:#745FAF;}
	.st8{fill:#67A2B7;}
	.st9{fill:#A2D1DB;}
	.st10{fill:#EBF2FF;}
	.st11{fill:#B56868;}
	.st12{fill:#D8ABA3;}
	.st13{fill:#FFEEEE;}
	.st14{fill:#68B59B;}
	.st15{fill:#A3D8C9;}
	.st16{fill:#EEFFFF;}
	.st17{fill:#E8B115;}
	.st18{fill:#FBC20F;}
	.st19{fill:#E29E00;}
	.st20{fill:#ACABD8;}
	.st21{fill:#93C1B8;}
	.st22{fill:#A3D8D0;}
	.st23{fill:#B56161;}
	.st24{fill:#D37979;}
	.st25{fill:#286A75;}
	.st26{fill:#3F7D8E;}
</style>
<path id="XMLID_267_" class="st0" d="M1113.2,522C1113.2,522,1113.2,522,1113.2,522l-0.5-39.9c0,0-19.7,1.3-49.7,3.3l-263.4-152
	c-12.9-7.5-33.9-7.5-46.9,0L102.1,708.9C39.9,728.2-0.8,740.7-0.8,740.7v37.9l1.1,0.4c1.1,3.8,4.2,7.3,9.3,10.2l302,174.3
	c12.9,7.5,33.9,7.6,46.8,0.1l744.5-428.2c6.1-3.5,9.7-8.1,10-12.7l0.4-0.1L1113.2,522z"/>
<path id="XMLID_266_" class="st1" d="M752.8,295.3L9.7,724.2c-12.9,7.5-12.9,19.5,0,27l301.9,174.3c12.9,7.5,33.8,7.7,46.7,0.2
	L1103,497.3c12.9-7.4,13-19.6,0.1-27.1L799.7,295.1C786.8,287.6,765.7,287.8,752.8,295.3z"/>
<polygon id="XMLID_265_" class="st2" points="457.6,844.9 147.7,666 722.2,334.4 1032.1,513.3 "/>
<path id="XMLID_264_" class="st0" d="M268.2,818.2c-23.6,13.6-59.2,15.1-79.6,3.3c-20.4-11.8-17.8-32.3,5.7-45.9
	c23.6-13.6,59.2-15.1,79.6-3.3C294.3,784.1,291.8,804.6,268.2,818.2z"/>
<path id="XMLID_263_" class="st0" d="M917.2,420.3l-65.9-38.1c-7.6-4.4-6.6-12.1,2.1-17.2l0,0c8.8-5.1,22.1-5.6,29.7-1.2l65.9,38.1
	c7.6,4.4,6.6,12.1-2.1,17.2l0,0C938.2,424.2,924.8,424.7,917.2,420.3z"/>
<path id="XMLID_262_" class="st3" d="M462.8,817.4L198.8,665c-4.8-2.8-4.8-7.2,0-10l63.9-36.9c4.8-2.8,12.5-2.8,17.3,0l264,152.4
	c4.8,2.8,4.8,7.2,0,10l-63.9,36.9C475.4,820.2,467.6,820.2,462.8,817.4z"/>
<path id="XMLID_261_" class="st3" d="M559.7,761.1l-264-152.4c-4.8-2.8-4.8-7.2,0-10l63.9-36.9c4.8-2.8,12.5-2.8,17.3,0l264,152.4
	c4.8,2.8,4.8,7.2,0,10L577,761.1C572.3,763.8,564.5,763.8,559.7,761.1z"/>
<path id="XMLID_260_" class="st3" d="M656.3,705.3l-264-152.4c-4.8-2.8-4.8-7.2,0-10l63.9-36.9c4.8-2.8,12.5-2.8,17.3,0l264,152.4
	c4.8,2.8,4.8,7.2,0,10l-63.9,36.9C668.9,708.1,661.1,708.1,656.3,705.3z"/>
<polygon id="XMLID_259_" class="st3" points="711.6,358.8 992,520.7 758,655.7 477.6,493.9 "/>
<polygon id="XMLID_258_" class="st4" points="753.8,616.7 472.5,454.3 706.4,319.2 987.7,481.7 "/>
<path id="XMLID_257_" class="st5" d="M788.7,478.6c-23.9,13.8-60.1,15.3-80.8,3.3c-20.7-12-18.1-32.8,5.8-46.6
	c23.9-13.8,60.1-15.3,80.8-3.3C815.2,443.9,812.6,464.8,788.7,478.6z"/>
<g id="XMLID_254_">
	<path id="XMLID_256_" class="st6" d="M788.7,466.6c-23.9,13.8-60.1,15.3-80.8,3.3c-20.7-12-18.1-32.8,5.8-46.6
		c23.9-13.8,60.1-15.3,80.8-3.3C815.2,431.9,812.6,452.8,788.7,466.6z"/>
	<path id="XMLID_255_" class="st7" d="M759.8,426.1l-41.3,23.8c-1.6,0.9-1.1,2.4,0.9,2.7l51.2,5.8c2,0.2,4.1-0.9,3.7-2.1l-9.9-29.6
		C764.1,425.5,761.5,425.1,759.8,426.1z"/>
</g>
<path id="XMLID_253_" class="st6" d="M760.7,578.7L538.3,450.3c-0.7-0.4-0.6-1.1,0.2-1.5l5.8-3.4c0.8-0.4,1.9-0.5,2.6-0.1
	l222.4,128.4c0.7,0.4,0.6,1.1-0.2,1.5l-5.8,3.4C762.5,579.1,761.4,579.1,760.7,578.7z"/>
<path id="XMLID_252_" class="st7" d="M680.1,532.2l-141.8-81.9c-0.7-0.4-0.6-1.1,0.2-1.5l5.8-3.4c0.8-0.4,1.9-0.5,2.6-0.1
	l141.9,81.9l-8.6,4.9C680.2,532.2,680.1,532.2,680.1,532.2z"/>
<g id="XMLID_243_">
	<path id="XMLID_251_" class="st6" d="M538.7,460.7l-12.5,7.2c-0.5,0.3-0.3,0.7,0.3,0.8l15.5,1.8c0.6,0.1,1.2-0.3,1.1-0.6l-3-9
		C539.9,460.5,539.2,460.4,538.7,460.7z"/>
	<path id="XMLID_250_" class="st6" d="M553.5,484.5l-3.8-2.2c-0.2-0.1-0.2-0.4,0.1-0.5l12.9-7.4c0.3-0.1,0.6-0.2,0.9,0l3.8,2.2
		c0.2,0.1,0.2,0.4-0.1,0.5l-12.9,7.4C554.1,484.6,553.7,484.6,553.5,484.5z"/>
	<path id="XMLID_249_" class="st6" d="M559.6,488l-3.8-2.2c-0.2-0.1-0.2-0.4,0.1-0.5l12.9-7.4c0.3-0.1,0.6-0.2,0.9,0l3.8,2.2
		c0.2,0.1,0.2,0.4-0.1,0.5l-12.9,7.4C560.2,488.1,559.8,488.1,559.6,488z"/>
	<path id="XMLID_248_" class="st6" d="M748.5,587.2l-1.7,1c-0.3,0.1-0.6,0.2-0.9,0l-21.8-12.6c-0.2-0.1-0.2-0.4,0.1-0.5l1.7-1
		c0.3-0.1,0.6-0.2,0.9,0l21.8,12.6C748.8,586.8,748.7,587,748.5,587.2z"/>
	<g id="XMLID_244_">
		<path id="XMLID_247_" class="st6" d="M722.1,566.1l-12.1,7c-0.5,0.3-1.2,0.2-1.2-0.1l-1.6-7.9c-0.1-0.3,0.5-0.7,1.1-0.6l13.7,0.9
			C722.5,565.4,722.5,565.8,722.1,566.1z"/>
		<path id="XMLID_246_" class="st6" d="M715.6,567.4l-3.4,2c-0.3,0.1-0.6,0.2-0.9,0l-6.9-4c-0.2-0.1-0.2-0.4,0.1-0.5l3.4-2
			c0.3-0.1,0.6-0.2,0.9,0l6.9,4C715.9,567,715.9,567.2,715.6,567.4z"/>
		<path id="XMLID_245_" class="st6" d="M718.9,567.6l-6.2,3.6c2,0.8,4,0.7,5.4-0.1l0.5-0.3C720.1,569.9,720.4,568.7,718.9,567.6z"/>
	</g>
</g>
<path id="XMLID_242_" class="st8" d="M652.4,665.7l-264-152.4c-4.8-2.8-4.8-7.2,0-10l63.9-36.9c4.8-2.8,12.5-2.8,17.3,0l264,152.4
	c4.8,2.8,4.8,7.2,0,10l-63.9,36.9C664.9,668.5,657.1,668.5,652.4,665.7z"/>
<path id="XMLID_241_" class="st9" d="M442.7,496.2c15.7-8.4,38.5-8.7,50.9-0.7c12.4,8,9.6,21.2-6.1,29.6
	c-15.7,8.4-38.5,8.7-50.9,0.7C424.2,517.8,426.9,504.6,442.7,496.2z"/>
<path id="XMLID_240_" class="st10" d="M470,524.6l0-3.3c0-0.8-1.2-1.2-2.8-1c-6.1,0.9-12,0.3-15.8-1.9c-3.8-2.2-4.8-5.6-3.2-9.1
	c0.4-0.9-0.3-1.6-1.7-1.6l-5.7,0c-1.4,0-2.6,0-2.6-0.1c0,0-0.4,0.7-0.8,1.5c-2.2,5.5-0.6,10.7,5.4,14.2c6.1,3.5,15.2,4.4,24.6,3.1
	c1.5-0.2,2.7-0.4,2.7-0.4S470,525.5,470,524.6z"/>
<path id="XMLID_239_" class="st10" d="M477.5,514.5c-6.1,3.5-15.3,3.9-20.6,0.9c-5.3-3-4.6-8.4,1.5-11.9c6.1-3.5,15.3-3.9,20.6-0.9
	C484.2,505.7,483.6,511,477.5,514.5z"/>
<g id="XMLID_234_">
	<path id="XMLID_238_" class="st11" d="M458.6,778.4L194.6,626c-4.8-2.8-4.8-7.2,0-10l63.9-36.9c4.8-2.8,12.5-2.8,17.3,0l264,152.4
		c4.8,2.8,4.8,7.2,0,10l-63.9,36.9C471.1,781.1,463.4,781.1,458.6,778.4z"/>
	<path id="XMLID_237_" class="st12" d="M245.5,607.1c15.7-8.4,38.5-8.7,50.9-0.7c12.4,8,9.6,21.2-6.1,29.6
		c-15.7,8.4-38.5,8.7-50.9,0.7C227,628.7,229.7,615.5,245.5,607.1z"/>
	<path id="XMLID_236_" class="st13" d="M272.8,632.2c0-0.5-0.4-0.8-1.1-1c-0.9-0.2-5.2,0.7-9.7,0.3c-3-0.3-5.7-1-7.7-2.2
		c-3.8-2.2-4.8-5.6-3.2-9.1c0.4-0.9-0.3-1.6-1.7-1.6l-5.7,0c-1.4,0-2.6,0-2.6-0.1c0,0-0.4,0.7-0.8,1.5c-2.2,5.5-0.6,10.7,5.4,14.2
		c6.1,3.5,15.2,4.4,24.6,3.1c1.5-0.2,2.7-0.4,2.7-0.4c0,0-0.1-0.7-0.1-1.5L272.8,632.2z"/>
	<path id="XMLID_235_" class="st13" d="M280.3,625.4c-6.1,3.5-15.3,3.9-20.6,0.9c-5.3-3-4.6-8.4,1.5-11.9c6.1-3.5,15.3-3.9,20.6-0.9
		C287,616.6,286.4,621.9,280.3,625.4z"/>
</g>
<g id="XMLID_229_">
	<path id="XMLID_233_" class="st14" d="M555.5,722l-264-152.4c-4.8-2.8-4.8-7.2,0-10l63.9-36.9c4.8-2.8,12.5-2.8,17.3,0l264,152.4
		c4.8,2.8,4.8,7.2,0,10L572.8,722C568,724.8,560.3,724.8,555.5,722z"/>
	<path id="XMLID_232_" class="st15" d="M344.1,551.7c15.7-8.4,38.5-8.7,50.9-0.7c12.4,8,9.6,21.2-6.1,29.6s-38.5,8.7-50.9,0.7
		C325.6,573.3,328.3,560,344.1,551.7z"/>
	<path id="XMLID_231_" class="st16" d="M371.4,580.1l0-3.3c0-0.8-1.2-1.2-2.8-1c-6.1,0.9-12,0.3-15.8-1.9c-3.8-2.2-4.8-5.6-3.2-9.1
		c0.4-0.9-0.3-1.6-1.7-1.6l-5.7,0c-1.4,0-2.6,0-2.6-0.1c0,0-0.4,0.7-0.8,1.5c-2.2,5.5-0.6,10.7,5.4,14.2c6.1,3.5,15.2,4.4,24.6,3.1
		c1.5-0.2,2.7-0.4,2.7-0.4S371.4,580.9,371.4,580.1z"/>
	<path id="XMLID_230_" class="st16" d="M378.9,570c-6.1,3.5-15.3,3.9-20.6,0.9c-5.3-3-4.6-8.4,1.5-11.9c6.1-3.5,15.3-3.9,20.6-0.9
		C385.6,561.1,385,566.5,378.9,570z"/>
</g>
<g id="XMLID_222_">
	<g id="XMLID_226_">
		<path id="XMLID_228_" class="st17" d="M1078,570.4L889.8,457.5c-2.9-1.7-2.5-4.7,0.8-6.7l115.4-69.2c3.3-2,8.3-2.2,11.2-0.5
			L1205.4,494c2.9,1.7,2.5,4.7-0.8,6.7l-115.4,69.2C1085.9,571.9,1080.9,572.1,1078,570.4z"/>
		<polygon id="XMLID_227_" class="st17" points="887.9,442.1 887.9,454.5 1084.4,566.3 1207.3,496.5 1207.3,484.2 		"/>
	</g>
	<g id="XMLID_223_">
		<path id="XMLID_225_" class="st18" d="M1078,557.8L889.8,444.9c-2.9-1.7-2.5-4.7,0.8-6.7L1006,369c3.3-2,8.3-2.2,11.2-0.5
			l188.2,112.9c2.9,1.7,2.5,4.7-0.8,6.7l-115.4,69.2C1085.9,559.3,1080.9,559.5,1078,557.8z"/>
		<polygon id="XMLID_224_" class="st19" points="1011.6,367.4 1031.7,472.7 1207.3,484.7 1050.1,461.7 		"/>
	</g>
</g>
<g id="XMLID_199_">
	<g id="XMLID_219_">
		<path id="XMLID_221_" class="st20" d="M810,157.5L520,324.9c-7.8,4.5-14.1-2.2-14.1-14.8V199.9c0-12.7,6.3-26.6,14.1-31.1L810,1.4
			c7.8-4.5,14.1,2.2,14.1,14.8v110.2C824.1,139.1,817.8,153,810,157.5z"/>
		<polygon id="XMLID_220_" class="st20" points="572.2,272.1 572.2,340.1 650.5,203.4 572.2,248.6 		"/>
	</g>
	<polygon id="XMLID_218_" class="st20" points="572.2,340 581.2,345.3 581.2,300 572.2,305.5 	"/>
	<polygon id="XMLID_217_" class="st20" points="513.2,325.8 521.5,330.6 827.9,6.3 817.4,0.4 513.2,183.1 	"/>
	<g id="XMLID_214_">
		<path id="XMLID_216_" class="st6" d="M819.5,162.8l-290,167.4c-7.8,4.5-14.1-2.2-14.1-14.8V205.2c0-12.7,6.3-26.6,14.1-31.1
			l290-167.4c7.8-4.5,14.1,2.2,14.1,14.8v110.2C833.5,144.4,827.3,158.3,819.5,162.8z"/>
		<polygon id="XMLID_215_" class="st6" points="581.2,277.3 581.2,345.3 659.5,208.7 581.2,253.9 		"/>
	</g>
	<g id="XMLID_200_">
		<path id="XMLID_213_" class="st20" d="M596.5,186l-50.4,29.1c-2.9,1.7-5.2-0.1-5.2-3.9v-9.9c0-3.8,2.3-8.3,5.2-10l50.4-29.1
			c2.9-1.7,5.2,0.1,5.2,3.9v9.9C601.8,179.8,599.4,184.3,596.5,186z"/>
		<path id="XMLID_212_" class="st20" d="M635.9,163.2l-22,12.7c-2.9,1.7-5.2-0.1-5.2-3.9v-9.9c0-3.8,2.3-8.3,5.2-10l22-12.7
			c2.9-1.7,5.2,0.1,5.2,3.9v9.9C641.2,157.1,638.8,161.6,635.9,163.2z"/>
		<path id="XMLID_211_" class="st20" d="M674.8,140.8l-22,12.7c-2.9,1.7-5.2-0.1-5.2-3.9v-9.9c0-3.8,2.3-8.3,5.2-10l22-12.7
			c2.9-1.7,5.2,0.1,5.2,3.9v9.9C680,134.6,677.7,139.1,674.8,140.8z"/>
		<path id="XMLID_210_" class="st20" d="M785.8,76.7l-22,12.7c-2.9,1.7-5.2-0.1-5.2-3.9v-9.9c0-3.8,2.3-8.3,5.2-10l22-12.7
			c2.9-1.7,5.2,0.1,5.2,3.9v9.9C791.1,70.5,788.7,75,785.8,76.7z"/>
		<path id="XMLID_209_" class="st20" d="M745.4,100l-53.7,31c-2.9,1.7-5.2-0.1-5.2-3.9v-9.9c0-3.8,2.3-8.3,5.2-10l53.7-31
			c2.9-1.7,5.2,0.1,5.2,3.9v9.9C750.6,93.9,748.2,98.4,745.4,100z"/>
		<path id="XMLID_208_" class="st20" d="M568.2,282.2l-22,12.7c-2.9,1.7-5.2-0.1-5.2-3.9v-9.9c0-3.8,2.3-8.3,5.2-10l22-12.7
			c2.9-1.7,5.2,0.1,5.2,3.9v9.9C573.4,276.1,571.1,280.6,568.2,282.2z"/>
		<path id="XMLID_207_" class="st20" d="M638.7,241.5l-53.7,31c-2.9,1.7-5.2-0.1-5.2-3.9v-9.9c0-3.8,2.3-8.3,5.2-10l53.7-31
			c2.9-1.7,5.2,0.1,5.2,3.9v9.9C644,235.4,641.6,239.8,638.7,241.5z"/>
		<path id="XMLID_206_" class="st20" d="M689.5,212.2l-34,19.6c-2.9,1.7-5.2-0.1-5.2-3.9V218c0-3.8,2.3-8.3,5.2-10l34-19.6
			c2.9-1.7,5.2,0.1,5.2,3.9v9.9C694.8,206,692.4,210.5,689.5,212.2z"/>
		<path id="XMLID_205_" class="st20" d="M709.2,160.3l98.8-57c2.9-1.7,5.2-6.1,5.2-10v-9.9c0-3.8-2.3-5.6-5.2-3.9l-98.8,57
			c-2.9,1.7-5.2,6.1-5.2,10v9.9C703.9,160.2,706.3,161.9,709.2,160.3z"/>
		<path id="XMLID_204_" class="st20" d="M667.5,184.3l22-12.7c2.9-1.7,5.2-6.1,5.2-10v-9.9c0-3.8-2.3-5.6-5.2-3.9l-22,12.7
			c-2.9,1.7-5.2,6.1-5.2,10v9.9C662.3,184.2,664.6,186,667.5,184.3z"/>
		<path id="XMLID_203_" class="st20" d="M708.2,201.4l22-12.7c2.9-1.7,5.2-6.1,5.2-10v-9.9c0-3.8-2.3-5.6-5.2-3.9l-22,12.7
			c-2.9,1.7-5.2,6.1-5.2,10v9.9C703,201.3,705.3,203,708.2,201.4z"/>
		<path id="XMLID_202_" class="st20" d="M597,225l53.7-31c2.9-1.7,5.2-6.1,5.2-10v-9.9c0-3.8-2.3-5.6-5.2-3.9l-53.7,31
			c-2.9,1.7-5.2,6.1-5.2,10v9.9C591.7,224.9,594.1,226.7,597,225z"/>
		<path id="XMLID_201_" class="st20" d="M546.1,254.4l34-19.6c2.9-1.7,5.2-6.1,5.2-10v-9.9c0-3.8-2.3-5.6-5.2-3.9l-34,19.6
			c-2.9,1.7-5.2,6.1-5.2,10v9.9C540.9,254.3,543.3,256,546.1,254.4z"/>
	</g>
</g>
<g id="XMLID_181_">
	<g id="XMLID_196_">
		<path id="XMLID_198_" class="st21" d="M350.5,466L189,559.3c-4.3,2.5-7.8-3.1-7.8-12.5V465c0-9.4,3.5-19,7.8-21.5l161.5-93.2
			c4.3-2.5,7.8,3.1,7.8,12.5v81.8C358.3,453.9,354.8,463.5,350.5,466z"/>
		<polygon id="XMLID_197_" class="st21" points="185.2,559.3 191.8,563.8 361.5,354.2 353.5,349.8 187.4,451.4 		"/>
	</g>
	<path id="XMLID_195_" class="st22" d="M357.5,470l-162.2,93.6c-4.3,2.5-7.9-3.1-7.9-12.5v-81.8c0-9.4,3.5-19.1,7.9-21.6l162.2-93.6
		c4.3-2.5,7.9,3.1,7.9,12.5v81.8C365.3,457.8,361.8,467.5,357.5,470z"/>
	<polygon id="XMLID_194_" class="st21" points="314.3,528.5 282.9,513 290.6,508.4 	"/>
	<polygon id="XMLID_193_" class="st22" points="314.3,477.9 314.3,528.5 256.2,494.2 314.3,460.7 	"/>
	<g id="XMLID_182_">
		<path id="XMLID_192_" class="st21" d="M218.7,471.8l-16.4,9.4c-2.1,1.2-3.9-0.1-3.9-2.9V471c0-2.9,1.7-6.2,3.9-7.4l16.4-9.4
			c2.1-1.2,3.9,0.1,3.9,2.9v7.3C222.5,467.2,220.8,470.5,218.7,471.8z"/>
		<path id="XMLID_191_" class="st21" d="M247.5,455.1l-16.4,9.4c-2.1,1.2-3.9-0.1-3.9-2.9v-7.3c0-2.9,1.7-6.2,3.9-7.4l16.4-9.4
			c2.1-1.2,3.9,0.1,3.9,2.9v7.3C251.4,450.6,249.7,453.9,247.5,455.1z"/>
		<path id="XMLID_190_" class="st21" d="M329.9,407.6l-16.4,9.4c-2.1,1.2-3.9-0.1-3.9-2.9v-7.3c0-2.9,1.7-6.2,3.9-7.4l16.4-9.4
			c2.1-1.2,3.9,0.1,3.9,2.9v7.3C333.8,403,332.1,406.3,329.9,407.6z"/>
		<path id="XMLID_189_" class="st21" d="M299.9,424.9l-39.9,23c-2.1,1.2-3.9-0.1-3.9-2.9v-7.3c0-2.9,1.7-6.2,3.9-7.4l39.9-23
			c2.1-1.2,3.9,0.1,3.9,2.9v7.3C303.8,420.3,302,423.7,299.9,424.9z"/>
		<path id="XMLID_188_" class="st21" d="M242.5,517.3l-39.9,23c-2.1,1.2-3.9-0.1-3.9-2.9v-7.3c0-2.9,1.7-6.2,3.9-7.4l39.9-23
			c2.1-1.2,3.9,0.1,3.9,2.9v7.3C246.3,512.8,244.6,516.1,242.5,517.3z"/>
		<path id="XMLID_187_" class="st21" d="M280.5,495.4l-25.2,14.6c-2.1,1.2-3.9-0.1-3.9-2.9v-7.3c0-2.9,1.7-6.2,3.9-7.4l25.2-14.6
			c2.1-1.2,3.9,0.1,3.9,2.9v7.3C284.4,490.8,282.7,494.1,280.5,495.4z"/>
		<path id="XMLID_186_" class="st21" d="M283,463.9l57.9-33.4c1.7-1,3.1-4.1,3.1-6.9v-7.3c0-2.9-1.4-4.4-3.1-3.4L283,446.2
			c-1.7,1-3.1,4.1-3.1,6.9v7.3C280,463.3,281.3,464.8,283,463.9z"/>
		<path id="XMLID_185_" class="st21" d="M255.3,479.9l16.4-9.4c2.1-1.2,3.9-4.6,3.9-7.4v-7.3c0-2.9-1.7-4.2-3.9-2.9l-16.4,9.4
			c-2.1,1.2-3.9,4.6-3.9,7.4v7.3C251.4,479.8,253.1,481.1,255.3,479.9z"/>
		<path id="XMLID_184_" class="st21" d="M294.1,487.6l16.4-9.4c2.1-1.2,3.9-4.6,3.9-7.4v-7.3c0-2.9-1.7-4.2-3.9-2.9l-16.4,9.4
			c-2.1,1.2-3.9,4.6-3.9,7.4v7.3C290.2,487.5,291.9,488.8,294.1,487.6z"/>
		<path id="XMLID_183_" class="st21" d="M202.6,510.2l39.9-23c2.1-1.2,3.9-4.6,3.9-7.4v-7.3c0-2.9-1.7-4.2-3.9-2.9l-39.9,23
			c-2.1,1.2-3.9,4.6-3.9,7.4v7.3C198.7,510.1,200.5,511.5,202.6,510.2z"/>
	</g>
</g>
<g id="XMLID_64_">
	<g id="XMLID_176_">
		<path id="XMLID_180_" class="st23" d="M62.3,590.9c2.7,1.4,6,0.7,9.6-1.3s6.9-5.2,9.6-9.7l18-10.4l-27.6,78.7l-27.6-46.9
			L62.3,590.9z"/>
		<path id="XMLID_177_" class="st23" d="M41.3,585.8c0,22.5,13.7,32.9,30.6,23.1s30.6-35.9,30.6-58.4c0-22.5-13.7-32.9-30.6-23.1
			S41.3,563.3,41.3,585.8z M55.7,577.5c0-11.9,7.3-25.8,16.2-31c8.9-5.2,16.2,0.3,16.2,12.2s-7.3,25.8-16.2,31
			C62.9,594.9,55.7,589.4,55.7,577.5z"/>
	</g>
	<path id="XMLID_175_" class="st23" d="M95.9,526.7l-8.1-2.5c0,0,3.6,5.3,4,5.2S95.9,526.7,95.9,526.7z"/>
	<polygon id="XMLID_174_" class="st23" points="71.9,648.1 78.1,650.1 74.2,638.8 	"/>
	<g id="XMLID_66_">
		<path id="XMLID_139_" class="st24" d="M68.5,592.8c2.7,1.4,6,0.7,9.6-1.3s6.9-5.2,9.6-9.7l18-10.4l-27.6,78.7l-27.6-46.9
			L68.5,592.8z"/>
		<path id="XMLID_67_" class="st24" d="M47.5,587.7c0,22.5,13.7,32.9,30.6,23.1s30.6-35.9,30.6-58.4c0-22.5-13.7-32.9-30.6-23.1
			S47.5,565.2,47.5,587.7z M61.9,579.5c0-11.9,7.3-25.8,16.2-31c8.9-5.2,16.2,0.3,16.2,12.2s-7.3,25.8-16.2,31
			C69.1,596.9,61.9,591.4,61.9,579.5z"/>
	</g>
</g>
<path id="XMLID_20_" class="st25" d="M451.1,191.7l-2.6-3c-0.2-0.3-0.4-0.3-0.8-0.2l-7.7,2.9c-0.4-1.6-1-3.1-1.7-4.5
	c0.5-1.2,1.3-3,2.3-5.3s1.7-4,2.2-5c0.1-0.1,0.1-0.3,0.1-0.4l2.8,0.8l-2.7-2.8l0,0c0-0.1-0.1-0.1-0.1-0.1c-1-1.3-3.3-3.2-7-5.5
	c-0.3-0.2-0.7-0.2-1.1,0c-0.4,0.2-0.8,0.6-1,1.1l-6,9.5c-1.2-0.1-2.4-0.1-3.8,0.1l-0.8-6.2l2.2-1.2l-2.8-3c0,0-0.2-0.1-0.2-0.1
	l-0.1,0v0c0,0,0-0.1,0-0.1c-0.3-0.1-0.6-0.1-1,0.1l-9.3,5.4c-0.8,0.5-1.3,1.3-1.5,2.5c-0.4,2.1-0.8,5.8-1.2,11.2
	c-1.3,1.3-2.6,2.8-3.8,4.4l-5.8-2.7c-0.4-0.2-0.7-0.1-1.1,0.1c-0.6,0.4-1.9,2.5-4,6.3c-2,3.9-3.4,6.7-4.2,8.5
	c-0.3,0.6-0.4,1.1-0.4,1.5c0,0.5,0.1,0.8,0.4,1.1c1.9,2,3.4,3.7,4.5,5.2c-0.7,2.1-1.3,4.2-1.6,6.1l-7.9,6.1
	c-0.3,0.3-1.1,0.7-1.3,1.2c-0.2,0.5-0.8,1-0.8,1.5v12.5c0,0.5,0.6,0.9,0.8,1.1l3.1,3l1.2-4l4.7-1.8c0.4,1.6,1,3.1,1.8,4.6
	c-0.5,1.2-1.3,3-2.3,5.3c-1,2.3-1.7,4-2.1,5c-0.2,0.5-0.3,1-0.3,1.5c0,0.5,0.1,0.9,0.3,1.1c0.3,0.4,0.6,0.7,1.1,1.1l2,2.1l0-0.5
	c1.1,0.8,2.3,1.7,3.9,2.6c0.3,0.2,0.7,0.2,1.1,0c0.4-0.2,0.8-0.6,1.1-1.1l6-9.5c1.2,0.1,2.4,0.1,3.8-0.1l1.2,9.7
	c0,0.5,0.2,0.8,0.5,0.9l2.8,3l0.2-4.2l7.4-4.3c0.8-0.5,1.3-1.3,1.5-2.5c0.4-2.1,0.8-5.8,1.2-11.2c1.3-1.3,2.6-2.8,3.8-4.4l5.8,2.7
	c0.4,0.1,0.8,0.1,1.1-0.1c0.6-0.4,1.9-2.5,4-6.3c2-3.8,3.4-6.7,4.2-8.5c0.3-0.5,0.4-1,0.4-1.5c0-0.5-0.1-0.9-0.4-1.2
	c-2-2.1-3.5-3.9-4.5-5.2c0.6-1.7,1.1-3.7,1.6-6.1l7.8-6.1c0.3-0.3,0.2-0.7,0.5-1.2c0.2-0.5-0.1-1-0.1-1.5v-7.9L451.1,191.7z
	 M424.2,220.5c-2.1,4-4.7,6.9-7.6,8.6s-5.5,1.8-7.6,0.2c-2.1-1.6-3.2-4.4-3.2-8.4c0-4,1.1-8,3.2-12c2.1-4,4.7-6.9,7.6-8.6
	s5.5-1.8,7.6-0.2c2.1,1.6,3.2,4.4,3.2,8.4S426.3,216.5,424.2,220.5z"/>
<path id="XMLID_19_" class="st26" d="M451.2,191.7c-0.2-0.3-0.4-0.3-0.7-0.2l-7.6,2.9c-0.4-1.6-1-3.1-1.7-4.5c0.5-1.2,1.3-3,2.3-5.3
	c1-2.3,1.7-4,2.2-5c0.2-0.5,0.3-1,0.3-1.5c0-0.5-0.1-0.9-0.3-1.1c-1-1.3-3.3-3.2-7-5.5c-0.3-0.2-0.7-0.2-1.1,0
	c-0.4,0.2-0.8,0.6-1,1.1l-6,9.5c-1.2-0.1-2.4-0.1-3.8,0.1l-1.2-9.7c0-0.5-0.2-0.8-0.5-0.9s-0.6-0.1-1,0.1l-9.4,5.4
	c-0.8,0.5-1.3,1.3-1.5,2.5c-0.4,2.1-0.8,5.8-1.2,11.2c-1.3,1.3-2.6,2.8-3.8,4.4l-5.8-2.7c-0.4-0.2-0.7-0.1-1.1,0.1
	c-0.6,0.4-1.9,2.5-4,6.3c-2,3.9-3.4,6.7-4.2,8.5c-0.3,0.6-0.4,1.1-0.4,1.5c0,0.5,0.1,0.8,0.4,1.1c1.9,2,3.4,3.7,4.5,5.2
	c-0.7,2.1-1.3,4.2-1.6,6.1l-7.9,6.1c-0.3,0.3-1,0.7-1.2,1.2c-0.2,0.5-0.7,1-0.7,1.5v12.5c0,0.5,0.5,0.9,0.7,1.1
	c0.2,0.3,0.7,0.3,1.1,0.2l7.8-2.9c0.4,1.6,1,3.1,1.8,4.6c-0.5,1.2-1.2,3-2.3,5.3c-1,2.3-1.7,4-2.1,5c-0.2,0.5-0.3,1-0.3,1.5
	c0,0.5,0.1,0.9,0.3,1.1c1.1,1.4,3.4,3.2,7,5.4c0.3,0.2,0.7,0.2,1.1,0c0.4-0.2,0.8-0.6,1.1-1.1l6-9.5c1.2,0.1,2.4,0.1,3.8-0.1
	l1.2,9.7c0,0.5,0.2,0.8,0.5,0.9s0.6,0.1,1-0.1l9.4-5.4c0.8-0.5,1.3-1.3,1.5-2.5c0.4-2.1,0.8-5.8,1.2-11.2c1.3-1.3,2.6-2.8,3.8-4.4
	l5.8,2.7c0.4,0.1,0.8,0.1,1.1-0.1c0.6-0.4,1.9-2.5,4-6.3c2-3.8,3.4-6.7,4.2-8.5c0.3-0.5,0.4-1,0.4-1.5c0-0.5-0.1-0.9-0.4-1.2
	c-2-2.1-3.5-3.9-4.5-5.2c0.6-1.7,1.1-3.7,1.6-6.1l7.8-6.1c0.3-0.3,0.3-0.7,0.5-1.2c0.2-0.5,0-1,0-1.5v-12.5
	C451.2,192.4,451.4,192,451.2,191.7z M427.1,223.5c-2.1,4-4.7,6.9-7.6,8.6c-3,1.7-5.5,1.8-7.6,0.2c-2.1-1.6-3.2-4.4-3.2-8.4
	s1.1-8,3.2-12s4.7-6.9,7.6-8.6c3-1.7,5.5-1.8,7.6-0.2c2.1,1.6,3.2,4.4,3.2,8.4S429.2,219.5,427.1,223.5z"/>
<path id="XMLID_11_" class="st25" d="M480.1,257.8l-2.6-3c-0.2-0.3-0.4-0.3-0.8-0.2l-7.7,2.9c-0.4-1.6-1-3.1-1.7-4.5
	c0.5-1.2,1.3-3,2.3-5.3s1.7-4,2.2-5c0.1-0.1,0.1-0.3,0.1-0.4l2.8,0.8l-2.7-2.8l0,0c0-0.1-0.1-0.1-0.1-0.1c-1-1.3-3.3-3.2-7-5.5
	c-0.3-0.2-0.7-0.2-1.1,0c-0.4,0.2-0.8,0.6-1,1.1l-6,9.5c-1.2-0.1-2.4-0.1-3.8,0.1l-0.8-6.2l2.2-1.2l-2.8-3c0,0-0.2-0.1-0.2-0.1
	l-0.1,0v0c0,0,0-0.1,0-0.1c-0.3-0.1-0.6-0.1-1,0.1l-9.3,5.4c-0.8,0.5-1.3,1.3-1.5,2.5c-0.4,2.1-0.8,5.8-1.2,11.2
	c-1.3,1.3-2.6,2.8-3.8,4.4l-5.8-2.7c-0.4-0.2-0.7-0.1-1.1,0.1c-0.6,0.4-1.9,2.5-4,6.3c-2,3.9-3.4,6.7-4.2,8.5
	c-0.3,0.6-0.4,1.1-0.4,1.5c0,0.5,0.1,0.8,0.4,1.1c1.9,2,3.4,3.7,4.5,5.2c-0.7,2.1-1.3,4.2-1.6,6.1l-7.9,6.1
	c-0.3,0.3-1.1,0.7-1.3,1.2c-0.2,0.5-0.8,1-0.8,1.5v12.5c0,0.5,0.6,0.9,0.8,1.1l3.1,3l1.2-4l4.7-1.8c0.4,1.6,1,3.1,1.8,4.6
	c-0.5,1.2-1.3,3-2.3,5.3c-1,2.3-1.7,4-2.1,5c-0.2,0.5-0.3,1-0.3,1.5c0,0.5,0.1,0.9,0.3,1.1c0.3,0.4,0.6,0.7,1.1,1.1l2,2.1l0-0.5
	c1.1,0.8,2.3,1.7,3.9,2.6c0.3,0.2,0.7,0.2,1.1,0c0.4-0.2,0.8-0.6,1.1-1.1l6-9.5c1.2,0.1,2.4,0.1,3.8-0.1l1.2,9.7
	c0,0.5,0.2,0.8,0.5,0.9l2.8,3l0.2-4.2l7.4-4.3c0.8-0.5,1.3-1.3,1.5-2.5c0.4-2.1,0.8-5.8,1.2-11.2c1.3-1.3,2.6-2.8,3.8-4.4l5.8,2.7
	c0.4,0.1,0.8,0.1,1.1-0.1c0.6-0.4,1.9-2.5,4-6.3c2-3.8,3.4-6.7,4.2-8.5c0.3-0.5,0.4-1,0.4-1.5c0-0.5-0.1-0.9-0.4-1.2
	c-2-2.1-3.5-3.9-4.5-5.2c0.6-1.7,1.1-3.7,1.6-6.1l7.8-6.1c0.3-0.3,0.2-0.7,0.5-1.2c0.2-0.5-0.1-1-0.1-1.5v-7.9L480.1,257.8z
	 M453.2,286.6c-2.1,4-4.7,6.9-7.6,8.6s-5.5,1.8-7.6,0.2c-2.1-1.6-3.2-4.4-3.2-8.4c0-4,1.1-8,3.2-12c2.1-4,4.7-6.9,7.6-8.6
	s5.5-1.8,7.6-0.2c2.1,1.6,3.2,4.4,3.2,8.4S455.3,282.6,453.2,286.6z"/>
<path id="XMLID_8_" class="st26" d="M480.2,257.8c-0.2-0.3-0.4-0.3-0.7-0.2l-7.6,2.9c-0.4-1.6-1-3.1-1.7-4.5c0.5-1.2,1.3-3,2.3-5.3
	c1-2.3,1.7-4,2.2-5c0.2-0.5,0.3-1,0.3-1.5c0-0.5-0.1-0.9-0.3-1.1c-1-1.3-3.3-3.2-7-5.5c-0.3-0.2-0.7-0.2-1.1,0
	c-0.4,0.2-0.8,0.6-1,1.1l-6,9.5c-1.2-0.1-2.4-0.1-3.8,0.1l-1.2-9.7c0-0.5-0.2-0.8-0.5-0.9s-0.6-0.1-1,0.1l-9.4,5.4
	c-0.8,0.5-1.3,1.3-1.5,2.5c-0.4,2.1-0.8,5.8-1.2,11.2c-1.3,1.3-2.6,2.8-3.8,4.4l-5.8-2.7c-0.4-0.2-0.7-0.1-1.1,0.1
	c-0.6,0.4-1.9,2.5-4,6.3c-2,3.9-3.4,6.7-4.2,8.5c-0.3,0.6-0.4,1.1-0.4,1.5c0,0.5,0.1,0.8,0.4,1.1c1.9,2,3.4,3.7,4.5,5.2
	c-0.7,2.1-1.3,4.2-1.6,6.1l-7.9,6.1c-0.3,0.3-1,0.7-1.2,1.2c-0.2,0.5-0.7,1-0.7,1.5v12.5c0,0.5,0.5,0.9,0.7,1.1
	c0.2,0.3,0.7,0.3,1.1,0.2l7.8-2.9c0.4,1.6,1,3.1,1.8,4.6c-0.5,1.2-1.2,3-2.3,5.3c-1,2.3-1.7,4-2.1,5c-0.2,0.5-0.3,1-0.3,1.5
	c0,0.5,0.1,0.9,0.3,1.1c1.1,1.4,3.4,3.2,7,5.4c0.3,0.2,0.7,0.2,1.1,0c0.4-0.2,0.8-0.6,1.1-1.1l6-9.5c1.2,0.1,2.4,0.1,3.8-0.1
	l1.2,9.7c0,0.5,0.2,0.8,0.5,0.9s0.6,0.1,1-0.1l9.4-5.4c0.8-0.5,1.3-1.3,1.5-2.5c0.4-2.1,0.8-5.8,1.2-11.2c1.3-1.3,2.6-2.8,3.8-4.4
	l5.8,2.7c0.4,0.1,0.8,0.1,1.1-0.1c0.6-0.4,1.9-2.5,4-6.3c2-3.8,3.4-6.7,4.2-8.5c0.3-0.5,0.4-1,0.4-1.5c0-0.5-0.1-0.9-0.4-1.2
	c-2-2.1-3.5-3.9-4.5-5.2c0.6-1.7,1.1-3.7,1.6-6.1l7.8-6.1c0.3-0.3,0.3-0.7,0.5-1.2c0.2-0.5,0-1,0-1.5V259
	C480.2,258.5,480.4,258.1,480.2,257.8z M456.1,289.6c-2.1,4-4.7,6.9-7.6,8.6c-3,1.7-5.5,1.8-7.6,0.2c-2.1-1.6-3.2-4.4-3.2-8.4
	s1.1-8,3.2-12s4.7-6.9,7.6-8.6c3-1.7,5.5-1.8,7.6-0.2c2.1,1.6,3.2,4.4,3.2,8.4S458.2,285.6,456.1,289.6z"/>
<path id="XMLID_5_" class="st25" d="M420.8,259.3l-2.8-3c-0.2-0.3-0.5-0.3-0.9-0.2l-7.7,2.9c-0.4-1.6-1-3.1-1.7-4.5
	c0.5-1.2,1.3-3,2.3-5.3s1.7-4,2.2-5c0.1-0.1,0.1-0.3,0.1-0.4l2.8,0.8l-2.7-2.8l0,0c0-0.1-0.1-0.1-0.1-0.1c-1-1.3-3.3-3.2-7-5.5
	c-0.3-0.2-0.7-0.2-1.1,0c-0.4,0.2-0.8,0.6-1,1.1l-6,9.5c-1.2-0.1-2.4-0.1-3.8,0.1l-0.8-6.2l2.2-1.2l-2.7-3c0,0,0.1-0.1,0.1-0.1v0v0
	c0,0-0.2-0.1-0.3-0.1c-0.3-0.1-0.7-0.1-1.1,0.1l-9.4,5.4c-0.8,0.5-1.3,1.3-1.5,2.5c-0.4,2.1-0.8,5.8-1.2,11.2
	c-1.3,1.3-2.6,2.8-3.8,4.4l-5.8-2.7c-0.4-0.2-0.7-0.1-1.1,0.1c-0.6,0.4-1.9,2.5-4,6.3c-2,3.9-3.4,6.7-4.2,8.5
	c-0.3,0.6-0.4,1.1-0.4,1.5c0,0.5,0.1,0.8,0.4,1.1c1.9,2,3.4,3.7,4.5,5.2c-0.7,2.1-1.3,4.2-1.6,6.1l-7.9,6.1c-0.3,0.3-0.8,0.7-1,1.2
	c-0.2,0.5-0.5,1-0.5,1.5v12.5c0,0.5,0.3,0.9,0.5,1.1l2.9,3l1.2-4l4.7-1.8c0.4,1.6,1,3.1,1.7,4.6c-0.5,1.2-1.3,3-2.3,5.3
	c-1,2.3-1.7,4-2.1,5c-0.2,0.5-0.3,1-0.3,1.5c0,0.5,0.1,0.9,0.3,1.1c0.3,0.4,0.6,0.7,1.1,1.1l2,2.1l0-0.5c1.1,0.8,2.3,1.7,3.9,2.6
	c0.3,0.2,0.7,0.2,1.1,0c0.4-0.2,0.8-0.6,1.1-1.1l6-9.5c1.2,0.1,2.4,0.1,3.8-0.1l1.2,9.7c0,0.5,0.2,0.8,0.5,0.9l2.8,3l0.2-4.2
	l7.4-4.3c0.8-0.5,1.3-1.3,1.5-2.5c0.4-2.1,0.8-5.8,1.2-11.2c1.3-1.3,2.6-2.8,3.8-4.4l5.8,2.7c0.4,0.1,0.8,0.1,1.1-0.1
	c0.6-0.4,1.9-2.5,4-6.3c2-3.8,3.4-6.7,4.2-8.5c0.3-0.5,0.4-1,0.4-1.5c0-0.5-0.1-0.9-0.4-1.2c-2-2.1-3.5-3.9-4.5-5.2
	c0.6-1.7,1.1-3.7,1.6-6.1l7.8-6.1c0.3-0.3,0.5-0.7,0.7-1.2c0.2-0.5,0.2-1,0.2-1.5V262L420.8,259.3z M393.7,288.1
	c-2.1,4-4.7,6.9-7.6,8.6s-5.5,1.8-7.6,0.2c-2.1-1.6-3.2-4.4-3.2-8.4c0-4,1.1-8,3.2-12c2.1-4,4.7-6.9,7.6-8.6s5.5-1.8,7.6-0.2
	c2.1,1.6,3.2,4.4,3.2,8.4S395.8,284.1,393.7,288.1z"/>
<path id="XMLID_1_" class="st26" d="M420.9,259.3c-0.2-0.3-0.5-0.3-0.9-0.2l-7.7,2.9c-0.4-1.6-1-3.1-1.7-4.5c0.5-1.2,1.3-3,2.3-5.3
	c1-2.3,1.7-4,2.2-5c0.2-0.5,0.3-1,0.3-1.5c0-0.5-0.1-0.9-0.3-1.1c-1-1.3-3.3-3.2-7-5.5c-0.3-0.2-0.7-0.2-1.1,0
	c-0.4,0.2-0.8,0.6-1,1.1l-6,9.5c-1.2-0.1-2.4-0.1-3.8,0.1l-1.2-9.7c0-0.5-0.2-0.8-0.5-0.9s-0.6-0.1-1,0.1l-9.4,5.4
	c-0.8,0.5-1.3,1.3-1.5,2.5c-0.4,2.1-0.8,5.8-1.2,11.2c-1.3,1.3-2.6,2.8-3.8,4.4l-5.8-2.7c-0.4-0.2-0.7-0.1-1.1,0.1
	c-0.6,0.4-1.9,2.5-4,6.3c-2,3.9-3.4,6.7-4.2,8.5c-0.3,0.6-0.4,1.1-0.4,1.5c0,0.5,0.1,0.8,0.4,1.1c1.9,2,3.4,3.7,4.5,5.2
	c-0.7,2.1-1.3,4.2-1.6,6.1l-7.9,6.1c-0.3,0.3-0.7,0.7-0.9,1.2c-0.2,0.5-0.5,1-0.5,1.5v12.5c0,0.5,0.2,0.9,0.5,1.1
	c0.2,0.3,0.6,0.3,0.9,0.2l7.8-2.9c0.4,1.6,1,3.1,1.7,4.6c-0.5,1.2-1.3,3-2.3,5.3c-1,2.3-1.7,4-2.1,5c-0.2,0.5-0.3,1-0.3,1.5
	c0,0.5,0.1,0.9,0.3,1.1c1.1,1.4,3.4,3.2,7,5.4c0.3,0.2,0.7,0.2,1.1,0c0.4-0.2,0.8-0.6,1.1-1.1l6-9.5c1.2,0.1,2.4,0.1,3.8-0.1
	l1.2,9.7c0,0.5,0.2,0.8,0.5,0.9s0.6,0.1,1-0.1l9.4-5.4c0.8-0.5,1.3-1.3,1.5-2.5c0.4-2.1,0.8-5.8,1.2-11.2c1.3-1.3,2.6-2.8,3.8-4.4
	l5.8,2.7c0.4,0.1,0.8,0.1,1.1-0.1c0.6-0.4,1.9-2.5,4-6.3c2-3.8,3.4-6.7,4.2-8.5c0.3-0.5,0.4-1,0.4-1.5c0-0.5-0.1-0.9-0.4-1.2
	c-2-2.1-3.5-3.9-4.5-5.2c0.6-1.7,1.1-3.7,1.6-6.1l7.8-6.1c0.3-0.3,0.6-0.7,0.8-1.2c0.2-0.5,0.3-1,0.3-1.5v-12.5
	C421.2,260,421.1,259.6,420.9,259.3z M396.5,291.1c-2.1,4-4.7,6.9-7.6,8.6c-3,1.7-5.5,1.8-7.6,0.2c-2.1-1.6-3.2-4.4-3.2-8.4
	s1.1-8,3.2-12s4.7-6.9,7.6-8.6c3-1.7,5.5-1.8,7.6-0.2c2.1,1.6,3.2,4.4,3.2,8.4S398.6,287,396.5,291.1z"/>
</svg>
